<svg width="24" height="25" viewBox="0 0 24 25" fill="none" xmlns="http://www.w3.org/2000/svg">
    <path d="M11.5047 20.8282V19.885L11.3762 19.8795C10.188 19.8292 9.12791 19.2906 8.38275 18.5991L8.95461 17.9943C9.63145 18.615 10.4357 18.9748 11.4093 19.092L11.5598 19.1104V15.9624L11.4388 15.9073C9.8446 15.5326 8.62722 15.1354 8.62722 13.7773C8.62722 12.5964 9.73286 11.6096 11.378 11.517L11.5043 11.5098V10.5684H12.2947V11.5507L12.4157 11.5625C13.3245 11.6495 14.2611 12.1049 14.9372 12.6578L14.3718 13.2169C13.8825 12.8155 13.1498 12.5413 12.4555 12.4006L12.294 12.3676V15.2439L12.4171 15.3021C13.7263 15.6248 15.2504 16.0917 15.2504 17.5239C15.2504 17.7742 15.1999 18.2622 14.8646 18.7159C14.4301 19.3031 13.5359 19.6504 12.4712 19.7485L12.3498 19.7596V20.8195L11.5047 20.8282ZM12.3534 19.0715L12.6438 19.0459C14.1152 18.8036 14.2743 17.9353 14.2743 17.5738C14.2743 16.6511 13.2256 16.3295 12.6619 16.1565L12.3537 16.1031V19.0715H12.3534ZM11.4218 12.3018C10.3713 12.3566 9.66525 12.9118 9.66525 13.6834C9.66525 14.4771 10.4827 14.7628 11.3933 15.0075L11.563 15.0532V12.2945L11.4218 12.3018Z" fill="white"/>
    <path d="M22.1481 15.3579C20.6293 11.9773 16.338 8.32294 16.1572 8.16731C16.0989 8.11635 16.0409 8.07996 15.9854 8.04356C15.933 8.0096 15.8804 7.97563 15.8277 7.93195L15.6936 7.81792C15.9473 7.9635 16.2067 8.03386 16.4981 8.03386C17.0579 8.03386 17.5593 7.76211 17.781 7.34271L17.7838 7.33543C19.6816 7.65328 20.8011 8.18672 21.0228 8.8803C21.0844 9.13506 21.326 9.30005 21.6438 9.30005H21.7691C21.9349 9.27093 22.084 9.17388 22.1658 9.0432C22.2413 8.92189 22.2562 8.78359 22.2036 8.66713C22.0609 8.1628 21.7168 7.72884 21.1776 7.37217C20.6442 7.0207 19.9065 6.73682 18.9795 6.52608C19.6179 6.0169 20.0467 5.47133 20.1047 5.08555C20.1631 4.82836 19.93 4.55696 19.6062 4.50115C19.4549 4.47446 19.2973 4.50843 19.1635 4.59335C19.0379 4.67342 18.9446 4.79196 18.9158 4.92333C18.8688 5.15868 18.1838 5.81344 17.665 6.12123L17.6009 6.06543C17.3063 5.72089 16.8953 5.52956 16.4405 5.52956C16.0736 5.52956 15.7352 5.6481 15.505 5.85469C15.6099 5.72886 15.6975 5.66093 15.7295 5.64845H15.753L16.0473 5.39854C16.2658 5.26024 16.4903 5.11986 16.712 4.93061C17.8838 4.15454 19.0937 3.34935 19.3852 2.6582C19.4898 2.43775 19.5517 2.28732 19.5571 2.18056C19.7176 1.82666 19.6471 1.54279 19.3617 1.41697C19.251 1.32234 19.1226 1.21835 18.8222 1.21835C18.598 1.21835 18.4287 1.26168 18.1344 1.36151C17.5105 1.55804 17.0266 1.60622 16.6942 1.50223C16.3675 1.36393 16.0352 1.17468 15.7117 0.992707C15.0238 0.57053 14.3303 0.185093 13.4061 0.143846C12.7122 0.102598 12.1524 0.279719 11.6101 0.45164C11.5347 0.473477 11.4589 0.498087 11.3827 0.522003L11.2721 0.560824C10.7707 0.730666 10.2956 0.892882 9.63975 0.892882C8.95722 0.892882 8.15868 0.791324 7.60497 0.706403H7.59928C7.35445 0.686992 7.12991 0.660303 6.91106 0.635693C6.60502 0.599299 6.31358 0.56533 6.04526 0.56533C5.88477 0.56533 5.74207 0.56533 5.65453 0.601725C5.56415 0.555625 5.47376 0.47313 5.38337 0.356668C5.37448 0.344536 5.36309 0.329978 5.35455 0.317847C5.25242 0.181973 5.11257 0 4.7713 0C4.6375 0 4.45352 0.101905 4.33396 0.20381L4.32791 0.211089C4.13824 0.422178 4.14713 0.439162 4.48235 1.38993L4.53501 1.5206C4.53501 1.56428 4.53822 1.62008 4.59017 1.67346V1.70986C4.81756 2.73064 5.15847 3.42456 5.65702 3.89492L5.65987 3.89735C5.71218 3.9431 5.7677 4.00133 5.82001 4.05714C5.87552 4.11537 5.93103 4.17603 5.98904 4.22455C6.4641 4.71432 7.17261 5.44915 7.51103 6.1864C7.45836 6.1864 7.39715 6.19125 7.29823 6.2325C7.22812 6.23492 7.16407 6.25191 7.1114 6.26404C7.08258 6.27132 7.05055 6.2786 7.03881 6.2786H7.02422C6.87262 6.30286 6.74167 6.3805 6.65982 6.49211C6.57976 6.59887 6.55093 6.7344 6.58118 6.86299C6.61285 6.99159 6.70075 7.10077 6.83455 7.17113C6.96301 7.23907 7.11425 7.26333 7.26584 7.23907C7.3299 7.23664 7.37687 7.22451 7.42029 7.21238C7.45836 7.20267 7.49324 7.19297 7.53701 7.19297C7.58078 7.19297 7.63309 7.19297 7.6886 7.16871C7.68291 7.44288 7.6217 7.64669 7.48185 7.8453C7.42349 7.89175 7.38257 7.93993 7.342 7.98603C7.30428 8.03213 7.26335 8.0758 7.21389 8.11947C4.51544 10.0792 2.44259 12.5818 1.22129 15.3585C0.0932339 17.8615 0 18.9016 0 19.8306C0 20.3689 0 21.4871 0.845511 22.4423C1.8629 23.5893 3.7959 24.181 6.59114 24.2007C11.9026 24.2468 12.9727 24.2468 15.8323 24.2468H16.7184C19.4528 24.2274 21.3595 23.6406 22.3883 22.5054C23.2338 21.5695 23.2861 20.4708 23.3124 19.8815L23.3153 19.8306C23.3142 18.9179 23.2238 17.8195 22.1481 15.3579ZM16.4284 6.05746C17.0497 6.05746 17.5536 6.38501 17.5536 6.78916C17.5536 7.19332 17.0497 7.52087 16.4284 7.52087C15.8067 7.52087 15.3032 7.19332 15.3032 6.78916C15.3035 6.38501 15.8071 6.05746 16.4284 6.05746ZM6.76872 3.50706L6.72922 3.46616L6.68509 3.42976C6.67014 3.4159 6.65057 3.39371 6.63064 3.37257L6.60716 3.34761C6.53848 3.27309 6.46624 3.20134 6.39115 3.13306C6.0933 2.84537 5.86413 2.3816 5.69368 1.7206L5.96021 1.61003C5.98761 1.60968 6.01893 1.60968 6.04526 1.60968C6.25451 1.60968 6.52211 1.64157 6.78117 1.67207L6.89362 1.68455C7.07973 1.70535 7.27154 1.72719 7.48434 1.74452C8.32772 1.87207 9.05259 1.93689 9.63975 1.93689C10.4725 1.93689 11.0792 1.73135 11.6147 1.55007L11.7315 1.50916C11.7941 1.48906 11.8553 1.46965 11.9162 1.45197L11.9428 1.44365C12.3866 1.30293 12.7699 1.18127 13.2029 1.18127C13.2481 1.18127 13.294 1.18265 13.341 1.18543L13.357 1.18612C14.0164 1.21558 14.5331 1.50258 15.1409 1.87519L15.1765 1.89599L15.2203 1.9206C15.5541 2.10846 15.8996 2.30257 16.2672 2.45855L16.3159 2.479L16.3665 2.49494C16.5864 2.56357 16.8298 2.59858 17.0903 2.59858C17.4501 2.59858 17.8483 2.53445 18.3037 2.40239C17.9436 2.85161 16.7714 3.62803 16.1096 4.06615L16.0551 4.1022L16.0056 4.14414C15.8484 4.27862 15.6786 4.38573 15.4822 4.51016L15.4003 4.56216L15.1797 4.74968C15.0544 4.82073 14.8779 5.1826 14.6733 5.4287H8.31846C7.89286 4.54968 7.24378 3.99683 6.76872 3.50706ZM8.72485 6.88379L8.68286 6.47305H14.7167C14.7167 6.47305 14.6338 6.77148 14.6456 6.98327C14.6609 7.25987 14.8505 7.56073 14.8505 7.56073L8.59959 7.51879C8.61382 7.4259 8.76399 7.14132 8.72485 6.88379ZM22.2402 19.8358C22.2185 20.328 22.1815 21.1515 21.5822 21.815C20.7759 22.7044 19.092 23.1844 16.7134 23.2018H15.8313C12.9748 23.2018 11.9062 23.2018 6.59933 23.1557C4.15959 23.139 2.45077 22.6558 1.65544 21.7591C1.07112 21.0982 1.07112 20.3041 1.07112 19.8299C1.07112 19.0167 1.1576 18.0951 2.20203 15.7776C3.35251 13.1624 5.3058 10.8064 7.85443 8.95655L7.89535 8.92674L7.93343 8.89347C8.0167 8.81998 8.09427 8.74026 8.16509 8.65499L8.18039 8.63766L8.27825 8.56037L14.9886 8.60543L15.1228 8.71947C15.2082 8.79017 15.2982 8.85499 15.3925 8.91426L15.4064 8.92327C15.4206 8.93263 15.4356 8.94165 15.4505 8.95274C15.8975 9.33644 19.7994 12.7364 21.1659 15.7766C22.1466 18.0209 22.2399 19.0011 22.242 19.8008L22.2402 19.8358Z" fill="white"/>
</svg>
