<svg width="22" height="25" viewBox="0 0 22 25" fill="none" xmlns="http://www.w3.org/2000/svg">
    <path d="M10.6278 5.59912C7.92999 5.59912 5.72278 7.65642 5.72278 10.171C5.72278 12.6857 7.92999 14.7433 10.6278 14.7433C13.3257 14.7433 15.5333 12.686 15.5333 10.171C15.5333 7.65642 13.3257 5.59912 10.6278 5.59912ZM10.6278 13.2192C8.82916 13.2192 7.35791 11.8476 7.35791 10.171C7.35791 8.49452 8.8295 7.12288 10.6278 7.12288C12.4265 7.12288 13.8981 8.49452 13.8981 10.171C13.8981 11.8476 12.4265 13.2192 10.6278 13.2192Z" fill="white"/>
    <path d="M10.6279 0.264893C4.74186 0.264893 0 4.68437 0 10.1709C0 19.0102 10.6279 24.6492 10.6279 24.6492C10.6279 24.6492 21.2557 19.0102 21.2557 10.1709C21.2561 4.68437 16.5142 0.264893 10.6279 0.264893ZM10.6279 22.8205C8.25711 21.3724 1.63514 16.648 1.63514 10.1709C1.63514 5.52278 5.64103 1.78897 10.6279 1.78897C15.6151 1.78897 19.6206 5.52278 19.6206 10.1709C19.6209 16.648 12.999 21.3724 10.6279 22.8205Z" fill="white"/>
</svg>
