<svg width="21" height="23" viewBox="0 0 21 23" fill="none" xmlns="http://www.w3.org/2000/svg">
    <path d="M9.2878 1.94829C9.2878 1.80773 9.17391 1.69363 9.03361 1.69363H1.80379C1.66349 1.69363 1.5496 1.80773 1.5496 1.94829V20.6049C1.5496 20.7452 1.66349 20.8596 1.80379 20.8596H9.03333C9.17391 20.8596 9.28752 20.7455 9.28752 20.6049V1.94829H9.2878ZM10.8721 6.99058H18.3434C18.8293 6.99058 19.2953 7.18378 19.6389 7.52774C19.9825 7.87198 20.1753 8.33859 20.1753 8.82532V20.7083C20.1753 21.195 19.9822 21.6616 19.6389 22.0058C19.2953 22.3498 18.8293 22.5433 18.3434 22.543H9.30155V22.5237C9.2149 22.5364 9.12714 22.5427 9.03966 22.543H1.8313C1.34548 22.543 0.879744 22.3495 0.536148 22.0056C0.192553 21.6613 -0.000290062 21.1944 -1.49649e-05 20.7077V1.83474C0.000535229 0.82187 0.820323 0.00055122 1.8313 0H9.04076C10.052 0.00055122 10.8715 0.82187 10.8721 1.83474V6.99058ZM10.9483 21.0067L18.3968 20.9941C18.4647 20.9941 18.5299 20.9671 18.5781 20.9188C18.6262 20.8706 18.6532 20.8053 18.6529 20.7372V8.76275C18.6529 8.62081 18.5382 8.50561 18.3965 8.50533L10.9472 8.51801L10.9483 21.0067Z" fill="white"/>
    <path d="M6.59928 6.62573C6.91124 6.62573 7.19871 6.76326 7.35414 6.98623C7.50985 7.20121 7.50985 7.49225 7.35414 7.70723C7.19871 7.9302 6.91041 8.06745 6.59928 8.06745H4.27278C3.96082 8.06745 3.67307 7.9302 3.51764 7.70723C3.36194 7.49225 3.36194 7.20121 3.51764 6.98623C3.67307 6.76326 3.96137 6.62573 4.27278 6.62573H6.59928ZM6.59928 10.1213C7.0807 10.1213 7.47188 10.4438 7.47188 10.842C7.47188 11.2397 7.0807 11.5627 6.59928 11.5627H4.27278C3.79136 11.5627 3.40018 11.2397 3.40018 10.842C3.40018 10.4438 3.79109 10.1213 4.27278 10.1213H6.59928ZM15.9011 12.4513C16.3825 12.4513 16.7737 12.7738 16.7737 13.172C16.7737 13.5697 16.3828 13.8927 15.9011 13.8927H13.5755C13.094 13.8927 12.7034 13.5697 12.7034 13.172C12.7034 12.7735 13.0938 12.4513 13.5755 12.4513H15.9011ZM6.59928 13.616C7.0807 13.616 7.47188 13.9385 7.47188 14.3368C7.47188 14.7345 7.0807 15.0575 6.59928 15.0575H4.27278C3.79136 15.0575 3.40018 14.7345 3.40018 14.3368C3.40018 13.9382 3.79109 13.616 4.27278 13.616H6.59928ZM15.9014 15.9455C16.2134 15.9455 16.5008 16.0827 16.6565 16.306C16.8122 16.521 16.8122 16.8117 16.6565 17.0267C16.5011 17.2497 16.2128 17.3869 15.9014 17.3869H13.576C13.264 17.3869 12.9763 17.2497 12.8209 17.0267C12.6652 16.8117 12.6652 16.5207 12.8209 16.306C12.9768 16.0827 13.2646 15.9455 13.576 15.9455H15.9014Z" fill="white"/>
</svg>
