<svg width="20" height="28" viewBox="0 0 20 28" fill="none" xmlns="http://www.w3.org/2000/svg">
    <path d="M13.8492 23.0723H5.99058C5.58903 23.0723 5.26297 22.7445 5.26297 22.3412V22.2685C5.26297 21.8652 5.58943 21.5374 5.99058 21.5374H13.8492C14.2508 21.5374 14.5772 21.8652 14.5772 22.2685V22.3412C14.5768 22.7449 14.2508 23.0723 13.8492 23.0723ZM12.8789 25.3123H6.95927C6.55773 25.3123 6.23167 24.9844 6.23167 24.5811V24.5085C6.23167 24.1052 6.55773 23.7773 6.95927 23.7773H12.8789C13.2805 23.7773 13.607 24.1052 13.607 24.5085V24.5811C13.607 24.986 13.2821 25.3123 12.8789 25.3123ZM11.6541 27.5534H8.18605C7.7845 27.5534 7.45844 27.2256 7.45844 26.8223V26.7492C7.45844 26.3459 7.7845 26.0185 8.18605 26.0185H11.6541C12.0557 26.0185 12.3818 26.3463 12.3818 26.7492V26.8223C12.3818 27.2256 12.0553 27.5534 11.6541 27.5534Z" fill="white"/>
    <path d="M15.7533 10.7189C15.9501 10.7106 16.1351 10.6224 16.2663 10.4744C16.3975 10.3267 16.4631 10.1318 16.4489 9.93453C16.3773 8.10303 15.6691 6.35449 14.4467 4.99297C13.3475 3.72355 11.7611 2.98563 10.0862 2.96539C9.87945 2.95586 9.67828 3.03326 9.53086 3.17854C9.38305 3.32422 9.30163 3.52468 9.30677 3.73268C9.2961 3.94187 9.37673 4.14629 9.52573 4.29197C9.67473 4.43884 9.87945 4.51466 10.0877 4.49878C11.3868 4.50712 12.6211 5.07078 13.4807 6.04924C14.4743 7.13687 15.0723 8.52974 15.1774 10.002C15.1624 10.3525 15.409 10.6593 15.7533 10.7189Z" fill="white"/>
    <path d="M16.6429 2.89727C14.8012 1.01894 12.278 -0.0266139 9.65336 0.000775228C4.41347 -0.0655144 0.102363 4.1278 0 9.38929C0.0177851 12.1433 1.26274 14.7441 3.393 16.4783C3.76333 16.8046 3.97438 17.2781 3.96924 17.7739V18.5583C3.97833 19.6705 4.86403 20.5756 5.97145 20.6029H13.3689C13.9036 20.5978 14.4154 20.3807 14.7909 19.9968C15.1664 19.613 15.375 19.0954 15.3699 18.5583V17.7739C15.3699 17.2758 15.5873 16.8022 15.9631 16.4783C18.0835 14.7365 19.3261 12.1405 19.3561 9.38929C19.3664 6.94531 18.3874 4.60254 16.6429 2.89727ZM13.7716 17.533V18.2963C13.7637 18.5567 13.5657 18.7699 13.308 18.7945H6.04931C5.79004 18.7762 5.59322 18.5563 5.6027 18.2963V17.533C5.58848 16.6327 5.18416 15.7837 4.49529 15.2073C2.75076 13.7946 1.74057 11.6618 1.74966 9.41152C1.84017 5.11143 5.37071 1.69056 9.65336 1.75527C13.9451 1.68104 17.4911 5.1019 17.5907 9.41112C17.6017 11.6582 16.5982 13.7894 14.862 15.2069C14.1818 15.7884 13.7843 16.6363 13.7716 17.533Z" fill="white"/>
</svg>
