<svg width="24" height="24" viewBox="0 0 24 24" fill="none" xmlns="http://www.w3.org/2000/svg">
    <path d="M20.2133 6.0327H2.92043C1.3084 6.032 0.000677751 7.36722 0 9.01477V20.7976C0 22.3683 1.30704 23.7028 2.92077 23.7028H20.2133C21.8256 23.7035 23.1334 22.3683 23.134 20.7207V8.93789C23.0574 7.36687 21.7504 6.0327 20.2133 6.0327ZM21.4685 20.7183C21.4681 21.4261 20.9056 22.0005 20.2143 22.0005H2.92043C2.23997 22.0005 1.66524 21.4496 1.66524 20.7973V9.01719C1.66557 8.30942 2.22811 7.73461 2.91908 7.73461H20.2129C20.8392 7.73461 21.418 8.31703 21.4681 8.98914V20.7183H21.4685ZM15.7692 4.75981V3.12612C15.7692 2.38164 15.1765 1.77636 14.448 1.77636H8.68437C7.95579 1.77636 7.36343 2.38198 7.36343 3.12612V4.68156H7.36241V4.75947H5.625V3.12612C5.62568 1.40135 6.99744 0 8.68335 0H14.4541L14.4649 0.000692538C15.2674 0.000692538 16.0346 0.325839 16.612 0.916228C17.1874 1.50108 17.5097 2.29715 17.507 3.12646V4.75981H15.7692Z" fill="white"/>
    <path d="M16.044 13.1429H13.1233V10.1584H10.2028V13.1429H7.43591V16.1271H10.3563V19.1116H13.2771V16.1271H16.1979V13.1429H16.044Z" fill="white"/>
</svg>
