<svg width="36" height="39" viewBox="0 0 36 39" fill="none" xmlns="http://www.w3.org/2000/svg">
    <path fill-rule="evenodd" clip-rule="evenodd" d="M14.4 3.6V18C14.4 19.9882 11.1764 21.6 7.2 21.6C3.22355 21.6 0 19.9882 0 18V3.6C0 1.61177 3.22355 0 7.2 0C11.1764 0 14.4 1.61177 14.4 3.6Z" fill="#0073F7"/>
    <path fill-rule="evenodd" clip-rule="evenodd" d="M36 3.6H36V18C36 19.9882 32.7765 21.6 28.8 21.6C24.8235 21.6 21.6 19.9882 21.6 18V3.60948C21.6 3.60632 21.6 3.60316 21.6 3.6C21.6 1.61177 24.8235 0 28.8 0C32.7764 0 36 1.61177 36 3.6Z" fill="#0073F7"/>
    <g filter="url(#filter0_bd_1_104)">
        <mask id="path-3-inside-1_1_104" fill="white">
            <path fill-rule="evenodd" clip-rule="evenodd" d="M28.8 12.007C28.8 12.0047 28.8 12.0023 28.8 12C28.8 9.34898 23.9647 7.19995 18 7.19995C12.0354 7.19995 7.20004 9.34898 7.20002 11.9999H7.20001V31.1999C7.20001 33.8509 12.0353 35.9999 18 35.9999C23.9647 35.9999 28.8 33.8509 28.8 31.1999V12.007Z"/>
        </mask>
        <path fill-rule="evenodd" clip-rule="evenodd" d="M28.8 12.007C28.8 12.0047 28.8 12.0023 28.8 12C28.8 9.34898 23.9647 7.19995 18 7.19995C12.0354 7.19995 7.20004 9.34898 7.20002 11.9999H7.20001V31.1999C7.20001 33.8509 12.0353 35.9999 18 35.9999C23.9647 35.9999 28.8 33.8509 28.8 31.1999V12.007Z" fill="url(#paint0_linear_1_104)" shape-rendering="crispEdges"/>
        <path d="M28.8 12.007L28.3 12.0054V12.007H28.8ZM7.20002 11.9999V12.4999H7.70002L7.70002 11.9999L7.20002 11.9999ZM7.20001 11.9999V11.4999H6.70001V11.9999H7.20001ZM29.3 12.0086C29.3 12.0057 29.3 12.0028 29.3 12H28.3C28.3 12.0018 28.3 12.0036 28.3 12.0054L29.3 12.0086ZM29.3 12C29.3 11.1745 28.9215 10.4258 28.3135 9.78688C27.7079 9.15054 26.8552 8.60022 25.8398 8.14893C23.8078 7.2458 21.0356 6.69995 18 6.69995V7.69995C20.9291 7.69995 23.5569 8.22862 25.4337 9.06274C26.3727 9.48009 27.1017 9.96408 27.5891 10.4763C28.0741 10.9859 28.3 11.4999 28.3 12H29.3ZM18 6.69995C14.9645 6.69995 12.1923 7.2458 10.1602 8.14893C9.14481 8.60021 8.29214 9.15053 7.68655 9.78687C7.07851 10.4258 6.70003 11.1745 6.70002 11.9999L7.70002 11.9999C7.70003 11.4999 7.92597 10.9859 8.41095 10.4763C8.89838 9.96408 9.62733 9.48008 10.5663 9.06274C12.4431 8.22862 15.0709 7.69995 18 7.69995V6.69995ZM7.20001 12.4999H7.20002V11.4999H7.20001V12.4999ZM7.70001 31.1999V11.9999H6.70001V31.1999H7.70001ZM6.70001 31.1999C6.70001 32.0254 7.07849 32.7741 7.68653 33.413C8.29212 34.0494 9.14479 34.5997 10.1602 35.051C12.1922 35.9541 14.9645 36.4999 18 36.4999V35.4999C15.0709 35.4999 12.4431 34.9713 10.5663 34.1371C9.62731 33.7198 8.89836 33.2358 8.41093 32.7236C7.92595 32.214 7.70001 31.7 7.70001 31.1999H6.70001ZM18 36.4999C21.0356 36.4999 23.8078 35.9541 25.8398 35.051C26.8552 34.5997 27.7079 34.0494 28.3135 33.413C28.9215 32.7741 29.3 32.0254 29.3 31.1999H28.3C28.3 31.7 28.0741 32.214 27.5891 32.7236C27.1017 33.2358 26.3727 33.7198 25.4337 34.1371C23.5569 34.9713 20.9291 35.4999 18 35.4999V36.4999ZM28.3 12.007V31.1999H29.3V12.007H28.3Z" fill="#C5E2FF" fill-opacity="0.5" mask="url(#path-3-inside-1_1_104)"/>
    </g>
    <defs>
        <filter id="filter0_bd_1_104" x="3.20001" y="3.19995" width="29.6" height="36.8" filterUnits="userSpaceOnUse" color-interpolation-filters="sRGB">
            <feFlood flood-opacity="0" result="BackgroundImageFix"/>
            <feGaussianBlur in="BackgroundImageFix" stdDeviation="2"/>
            <feComposite in2="SourceAlpha" operator="in" result="effect1_backgroundBlur_1_104"/>
            <feColorMatrix in="SourceAlpha" type="matrix" values="0 0 0 0 0 0 0 0 0 0 0 0 0 0 0 0 0 0 127 0" result="hardAlpha"/>
            <feOffset dy="1"/>
            <feGaussianBlur stdDeviation="1"/>
            <feComposite in2="hardAlpha" operator="out"/>
            <feColorMatrix type="matrix" values="0 0 0 0 0 0 0 0 0 0.218568 0 0 0 0 0.804167 0 0 0 0.2 0"/>
            <feBlend mode="normal" in2="effect1_backgroundBlur_1_104" result="effect2_dropShadow_1_104"/>
            <feBlend mode="normal" in="SourceGraphic" in2="effect2_dropShadow_1_104" result="shape"/>
        </filter>
        <linearGradient id="paint0_linear_1_104" x1="18" y1="3.59995" x2="18" y2="36" gradientUnits="userSpaceOnUse">
            <stop stop-color="#33A9FF" stop-opacity="0"/>
            <stop offset="0.526042" stop-color="#33A9FF" stop-opacity="0.12"/>
            <stop offset="1" stop-color="#33A9FF" stop-opacity="0.2"/>
        </linearGradient>
    </defs>
</svg>
