<svg width="24" height="24" viewBox="0 0 24 24" fill="none" xmlns="http://www.w3.org/2000/svg">
  <path fill-rule="evenodd" clip-rule="evenodd"
    d="M12 21C16.9706 21 21 16.9706 21 12C21 7.02944 16.9706 3 12 3C7.02944 3 3 7.02944 3 12C3 16.9706 7.02944 21 12 21ZM12 22.5C17.799 22.5 22.5 17.799 22.5 12C22.5 6.20101 17.799 1.5 12 1.5C6.20101 1.5 1.5 6.20101 1.5 12C1.5 17.799 6.20101 22.5 12 22.5Z"
    fill="#506cfa" />
  <path fill-rule="evenodd" clip-rule="evenodd"
    d="M9.91338 9.75564C9.84257 9.78598 9.78616 9.8424 9.75581 9.91321L6.91654 16.5382C6.80986 16.7871 7.06154 17.0388 7.31046 16.9321L13.9354 14.0928C14.0062 14.0625 14.0626 14.0061 14.093 13.9353L16.9323 7.31029C17.0389 7.06137 16.7873 6.80969 16.5383 6.91637L9.91338 9.75564ZM14.3718 9.47684L10.9454 10.9453L9.47702 14.3716L12.9034 12.9032L14.3718 9.47684Z"
    fill="#506cfa" />
</svg>
