<svg width="24" height="24" viewBox="0 0 24 24" fill="none" xmlns="http://www.w3.org/2000/svg">
  <path fill-rule="evenodd" clip-rule="evenodd"
    d="M18.8571 19.99L18.4671 16.83C20.6071 15.33 21.9971 12.94 21.9971 10.24C21.9971 5.69 18.0471 2 13.1671 2C8.98709 2 5.48709 4.71 4.57709 8.35C4.48709 8.73 4.84709 9.07 5.21709 8.95C5.93709 8.71 6.70709 8.59 7.49709 8.59C11.3571 8.59 14.4971 11.57 14.4971 15.23C14.4971 16.27 14.2271 17.31 13.7271 18.23C13.5971 18.47 13.6571 18.77 13.8971 18.91L17.3571 20.97C18.0671 21.4 18.9571 20.82 18.8571 19.99ZM11.8171 18.3898C12.5571 17.5198 12.9971 16.4198 12.9971 15.2298C12.9971 12.3898 10.5371 10.0898 7.49707 10.0898C6.33707 10.0898 5.26707 10.4198 4.37707 10.9998C2.93707 11.9198 1.99707 13.4698 1.99707 15.2298C1.99707 16.9098 2.85707 18.3998 4.19707 19.3298L3.94707 21.2998C3.88707 21.8098 4.44707 22.1798 4.88707 21.9098L7.49707 20.3598C9.25707 20.3598 10.8271 19.5898 11.8171 18.3898Z"
    fill="#3838b9" />
</svg>
