<?xml version="1.0" encoding="UTF-8"?>
<svg id="_图层_1" data-name="图层 1" xmlns="http://www.w3.org/2000/svg" viewBox="0 0 48 48">
  <defs>
    <style>
      .cls-1 {
        fill: #a9a9a9;
      }

      .cls-2 {
        fill: #606060;
      }
    </style>
  </defs>
  <path class="cls-2" d="m1.64,39.21c.3-.17,2.16-1.27,2.58-3.52.26-1.34-.12-2.43-.32-2.9-.78-1.11-5.58-8.17-3.29-16.4C3.2,7.1,13,3.29,19.3,2.61c10.2-1.1,22.16,4.79,24.7,14.69,1.28,4.99-.21,9.51-1.28,11.98-.4-.1-7.19-1.62-11.9,3.13-3.06,3.08-3.38,6.93-3.43,8-1.02.11-2.11.18-3.25.18-4.92,0-9.05-1.21-12.06-2.47-1.43.52-3.41,1.07-5.8,1.24-1.8.13-3.38.02-4.64-.16Zm31.78-19.79c-1.7.1-2.52,1.17-2.63,2.72-.1,1.47,1.38,2.81,2.86,2.78,1.56-.03,2.74-1.3,2.69-2.9-.05-1.6-1.25-2.69-2.93-2.6Zm-11.09,5.51c1.45-.01,2.93-1.45,2.8-2.88-.15-1.59-1.03-2.58-2.73-2.64-1.65-.06-2.83,1.06-2.85,2.68-.02,1.54,1.27,2.85,2.78,2.84Zm-14.15-2.68c.19,1.59,1.2,2.54,2.8,2.66,1.51.12,2.81-1.24,2.81-2.8,0-1.58-1.22-2.73-2.85-2.7-1.55.03-2.93,1.38-2.75,2.84Z"/>
  <path class="cls-1" d="m47.34,46.26c-.12-.07-.83-.49-1-1.36-.1-.52.05-.94.12-1.12.3-.43,2.16-3.16,1.27-6.34-1-3.6-4.79-5.07-7.22-5.33-3.83-.41-8.61,1.7-9.55,5.68-.81,3.4,1.65,6.21,1.81,6.39,2.39,2.66,6.64,3.4,10.53,1.66.55.2,1.32.41,2.24.48.7.05,1.31,0,1.79-.06Z"/>
</svg>