<?xml version="1.0" encoding="UTF-8"?>
<svg id="_图层_1" data-name="图层 1" xmlns="http://www.w3.org/2000/svg" viewBox="0 0 48 48">
  <defs>
    <style>
      .cls-1 {
        fill: #d3d3d3;
      }

      .cls-2 {
        fill: #afafaf;
      }
    </style>
  </defs>
  <path class="cls-2" d="m1.82,37.83c.3-.17,2.14-1.26,2.57-3.49.25-1.33-.12-2.41-.32-2.88-.78-1.11-5.54-8.11-3.27-16.28C3.37,5.94,13.1,2.16,19.36,1.48c10.13-1.1,22.01,4.76,24.53,14.59,1.27,4.95-.21,9.44-1.27,11.89-5-1.26-10.08.09-13.12,3.57-2.36,2.7-2.74,5.84-2.83,7.16-.77.21-1.61.39-2.51.5-5.17.66-9.5-1.12-11.97-2.45-1.42.52-3.38,1.06-5.76,1.23-1.79.13-3.35.02-4.61-.16Zm31.56-19.65c-1.69.09-2.5,1.16-2.61,2.71-.1,1.46,1.37,2.79,2.84,2.76,1.55-.03,2.72-1.29,2.68-2.88-.04-1.59-1.25-2.67-2.91-2.58Zm-11.01,5.47c1.44-.01,2.91-1.44,2.78-2.86-.15-1.58-1.03-2.56-2.71-2.62-1.63-.06-2.81,1.06-2.83,2.66-.02,1.53,1.26,2.83,2.76,2.82Zm-14.05-2.67c.19,1.58,1.19,2.52,2.78,2.64,1.5.11,2.79-1.23,2.79-2.78,0-1.57-1.21-2.71-2.83-2.68-1.54.03-2.91,1.37-2.73,2.82Z"/>
  <path class="cls-1" d="m42.85,44.34c.59.21,1.41.44,2.39.51.74.05,1.39,0,1.91-.07-.12-.07-.89-.53-1.07-1.45-.11-.55.05-1,.13-1.2.32-.46,2.3-3.37,1.36-6.76-1.07-3.84-5.11-5.41-7.71-5.69-4.09-.44-9.18,1.82-10.19,6.06-.86,3.63,1.76,6.62,1.93,6.81,2.55,2.83,7.09,3.62,11.24,1.78"/>
</svg>