<?xml version="1.0" encoding="UTF-8"?>
<svg id="_图层_1" data-name="图层 1" xmlns="http://www.w3.org/2000/svg" viewBox="0 0 48 48">
  <defs>
    <style>
      .cls-1 {
        fill: #90a1cf;
      }

      .cls-2 {
        fill: #425ba3;
      }
    </style>
  </defs>
  <path class="cls-2" d="m1.82,38.28c.3-.17,2.14-1.26,2.57-3.49.25-1.33-.12-2.41-.32-2.88-.78-1.11-5.54-8.11-3.27-16.28C3.37,6.39,13.1,2.61,19.36,1.93c10.13-1.1,22.01,4.76,24.53,14.59,1.27,4.95-.21,9.44-1.27,11.89-.4-.1-7.14-1.61-11.82,3.11-3.04,3.06-3.35,6.88-3.41,7.95-1.01.11-2.09.18-3.23.18-4.89,0-8.98-1.2-11.97-2.45-1.42.52-3.38,1.06-5.76,1.23-1.79.13-3.35.02-4.61-.16Zm31.56-19.65c-1.69.09-2.5,1.16-2.61,2.71-.1,1.46,1.37,2.79,2.84,2.76,1.55-.03,2.72-1.29,2.68-2.88-.04-1.59-1.25-2.67-2.91-2.58Zm-11.01,5.47c1.44-.01,2.91-1.44,2.78-2.86-.15-1.58-1.03-2.56-2.71-2.62-1.63-.06-2.81,1.06-2.83,2.66-.02,1.53,1.26,2.83,2.76,2.82Zm-14.05-2.67c.19,1.58,1.19,2.52,2.78,2.64,1.5.11,2.79-1.23,2.79-2.78,0-1.57-1.21-2.71-2.83-2.68-1.54.03-2.91,1.37-2.73,2.82Z"/>
  <path class="cls-1" d="m47.2,45.28c-.11-.07-.83-.49-.99-1.35-.1-.51.05-.93.12-1.11.3-.43,2.14-3.14,1.26-6.29-.99-3.57-4.76-5.03-7.17-5.29-3.81-.41-8.55,1.69-9.48,5.64-.8,3.37,1.64,6.16,1.8,6.34,2.38,2.64,6.59,3.37,10.46,1.65.55.2,1.31.41,2.23.48.69.05,1.3,0,1.78-.06Z"/>
</svg>