<svg width="20" height="20" viewBox="0 0 20 20" fill="none" xmlns="http://www.w3.org/2000/svg">
  <path d="M9.375 1.25V10H10.625V1.25H9.375Z" fill="#003CAB" />
  <path
    d="M1.875 10.6251C1.875 7.50648 3.63202 4.79823 6.21016 3.43626L6.83581 4.51992C4.63109 5.66492 3.125 7.96912 3.125 10.6251C3.125 14.4221 6.20304 17.5001 10 17.5001C13.797 17.5001 16.875 14.4221 16.875 10.6251C16.875 7.96902 15.3688 5.66474 13.1639 4.51979L13.7896 3.43613C16.3679 4.79805 18.125 7.50638 18.125 10.6251C18.125 15.1124 14.4873 18.7501 10 18.7501C5.51268 18.7501 1.875 15.1124 1.875 10.6251Z"
    fill="#3838b9" />
</svg>
