<?xml version="1.0" encoding="UTF-8"?>
<svg id="_图层_1" data-name="图层 1" xmlns="http://www.w3.org/2000/svg" viewBox="0 0 48 48">
  <defs>
    <style>
      .cls-1 {
        fill: #8b9ccc;
      }

      .cls-2 {
        fill: #425ba3;
      }
    </style>
  </defs>
  <path class="cls-1" d="m9.85,3.54c.42.11.83.22,1.25.32,1.52.39,3.04.78,4.55,1.17,1.84.48,3.67.95,5.51,1.43,1.18.31,2.36.62,3.54.93.25.07.5.13.75.18.15.03.19.1.19.25,0,.93,0,1.85,0,2.78.01,5.09.03,10.18.04,15.27.01,4.75.02,9.5.04,14.25q0,.31.31.31c1.6,0,3.2,0,4.8,0q.29,0,.29-.3c0-4.79,0-9.57,0-14.36q0-.29.28-.29c.49,0,.97,0,1.46,0,.19,0,.26.05.25.25,0,1.18,0,2.36,0,3.54,0,4.29,0,8.58,0,12.88q0,.27-.28.27c-2.27,0-4.54,0-6.81,0-.27,0-.27,0-.27.26,0,1.17,0,2.33,0,3.5,0,.07,0,.14,0,.24-.35-.08-.68-.16-1-.24-1.93-.48-3.86-.96-5.78-1.44-1.89-.47-3.78-.94-5.67-1.41-1.21-.3-2.42-.6-3.63-.89-.1-.02-.21-.03-.31-.03-1.43,0-2.87,0-4.3,0q-.29,0-.29-.3c0-9.01,0-18.03,0-27.04,0-4.45,0-8.9,0-13.34q0-.29.28-.29s.08,0,.12,0c9.22.01,18.44.02,27.66.03q.27,0,.28.28c0,5.48,0,10.96,0,16.44q0,.26-.27.26c-.49,0-.99-.01-1.48,0-.2,0-.25-.06-.25-.26,0-3.8,0-7.6,0-11.4,0-1.04,0-2.07,0-3.11,0-.17-.04-.22-.22-.22-6.96,0-13.91,0-20.87,0-.06,0-.12,0-.18,0,0,.02,0,.03,0,.05Z"/>
  <path class="cls-2" d="m38.32,16.93c2.92,1.69,5.8,3.35,8.71,5.03-2.9,1.68-5.78,3.34-8.7,5.02,0-.09-.01-.16-.01-.22,0-1.01,0-2.02,0-3.03q0-.28-.29-.28c-3.44,0-6.87,0-10.31,0q-.26,0-.26-.25c0-.79,0-1.58,0-2.37q0-.3.29-.3c3.42,0,6.85,0,10.27,0q.29,0,.29-.29c0-1.01,0-2.02,0-3.03,0-.07,0-.14,0-.26Z"/>
</svg>