<svg width="24" height="24" viewBox="0 0 24 24" fill="none" xmlns="http://www.w3.org/2000/svg">
  <path
    d="M20.0373 6.82165L14.2773 2.79165C12.7073 1.69165 10.2973 1.75165 8.7873 2.92165L3.7773 6.83165C2.7773 7.61165 1.9873 9.21165 1.9873 10.4716V17.3716C1.9873 19.9216 4.0573 22.0016 6.6073 22.0016H17.3873C19.9373 22.0016 22.0073 19.9316 22.0073 17.3816V10.6016C22.0073 9.25165 21.1373 7.59165 20.0373 6.82165ZM12.7473 18.0016C12.7473 18.4116 12.4073 18.7516 11.9973 18.7516C11.5873 18.7516 11.2473 18.4116 11.2473 18.0016V15.0016C11.2473 14.5916 11.5873 14.2516 11.9973 14.2516C12.4073 14.2516 12.7473 14.5916 12.7473 15.0016V18.0016Z"
    fill="#909090" />
</svg>
