<?xml version="1.0" encoding="UTF-8"?>
<svg id="_图层_1" data-name="图层 1" xmlns="http://www.w3.org/2000/svg" viewBox="0 0 48 48">
  <defs>
    <style>
      .cls-1 {
        fill: #9d9df9;
      }

      .cls-2 {
        fill: #1f2afa;
      }
    </style>
  </defs>
  <path class="cls-2" d="m23.46,45.28c-7.23.23-12.56.18-14.24,0-.67-.07-1.55-.26-2.21-.91-.56-.56-.91-1.34-.91-2.21V4.88c0-1.72,1.4-3.12,3.12-3.12h26.1c.24.02,1.39.12,2.26,1.08.74.82.84,1.75.86,2.04-.08,7.17-.16,14.33-.25,21.5-.39-.26-2.76-1.81-5.71-1.07-2.3.58-4.54,2.43-5.06,5.16-.6,3.12,1.43,5.45,1.68,5.73.01.03.09.21.01.4-.08.18-.26.29-.47.29-2.45.36-4.49,1.91-5.28,4.06-.72,1.98-.13,3.77.08,4.32Zm9.03-35.4v-.04c0-.62-.51-1.13-1.13-1.13H13.26c-.62,0-1.13.51-1.13,1.13v.04c0,.62.51,1.13,1.13,1.13h18.09c.62,0,1.13-.51,1.13-1.13Zm0,5.02v-.04c0-.62-.51-1.13-1.13-1.13H13.26c-.62,0-1.13.51-1.13,1.13v.04c0,.62.51,1.13,1.13,1.13h18.09c.62,0,1.13-.51,1.13-1.13Zm-8.8,5.02v-.04c0-.62-.51-1.13-1.13-1.13h-9.29c-.62,0-1.13.51-1.13,1.13v.04c0,.62.51,1.13,1.13,1.13h9.29c.62,0,1.13-.51,1.13-1.13Z"/>
  <g>
    <path class="cls-1" d="m33.89,45.21c-2.49,0-4.97,0-7.46,0-.44,0-.84-.1-1.18-.39-.34-.29-.47-.66-.46-1.09,0-.91.32-1.73.79-2.49.93-1.51,2.32-2.43,3.98-2.99,1.66-.56,3.38-.68,5.12-.62,1.52.06,3,.31,4.39.94,1.61.72,2.85,1.83,3.56,3.48.22.51.37,1.04.38,1.59.01.94-.59,1.56-1.54,1.56-1.99,0-3.97,0-5.96,0-.53,0-1.07,0-1.6,0Z"/>
    <path class="cls-1" d="m29.33,31.61c-.06-2.47,1.95-4.55,4.45-4.61,2.5-.06,4.59,1.92,4.66,4.42.07,2.53-1.92,4.64-4.49,4.68-2.57.04-4.58-2.01-4.62-4.49Z"/>
  </g>
</svg>