<svg width="18" height="20" viewBox="0 0 18 20" fill="none" xmlns="http://www.w3.org/2000/svg">
<g id="Group">
<path id="Vector" d="M11.1533 14.8975C10.7655 14.8975 10.449 15.2178 10.449 15.6134V18.0699C10.449 18.4652 10.7655 18.787 11.1533 18.787C11.5425 18.787 11.8593 18.4652 11.8593 18.0699V15.6134C11.8596 15.2181 11.5425 14.8975 11.1533 14.8975Z" fill="#303133"/>
<path id="Vector_2" d="M8.87548 2.83502C8.82376 1.82163 8.06745 0.987075 7.10058 0.87675V0.861328H1.99746C0.93506 0.861328 0.0606109 1.73829 0.00436809 2.83472L0.000976562 7.89929C0.000976562 7.96335 0.0117164 8.02622 0.0306524 8.08405C0.193446 9.09092 1.0207 9.82256 1.99717 9.82256H7.00222L7.10001 9.81633V9.80773C7.98661 9.70838 8.6994 9.01233 8.84439 8.09948C8.867 8.02682 8.87859 7.96335 8.87859 7.89929V2.83502H8.87548ZM7.68477 3.05359V7.6303C7.68477 8.15019 7.28005 8.57251 6.78206 8.57251H2.09666C1.59923 8.57251 1.19451 8.15019 1.19451 7.6303V3.05359C1.19451 2.5337 1.59923 2.11079 2.09666 2.11079H6.78206C7.28005 2.11079 7.68477 2.5337 7.68477 3.05359Z" fill="#303133"/>
<path id="Vector_3" d="M8.64077 12.9408C8.58877 11.9553 7.85422 11.1436 6.91363 11.0353V11.0205H1.94589C0.911474 11.0205 0.059917 11.8732 0.00423941 12.9408L0 17.871C0 17.9357 0.012153 18.0009 0.0293933 18.0519C0.187947 19.0324 0.994566 19.7457 1.94589 19.7457H6.81669L6.91392 19.7403V19.7308C7.77706 19.6336 8.47034 18.9556 8.61053 18.0691C8.6337 18.0045 8.64557 17.9384 8.64557 17.871V13.0434L8.64416 12.9408H8.64077ZM7.47804 13.1558V17.6098C7.47804 18.1139 7.08575 18.5244 6.60246 18.5244H2.04255C1.5601 18.5244 1.16782 18.1139 1.16782 17.6098V13.1558C1.16782 12.6522 1.5601 12.2412 2.04255 12.2412H6.60274C7.08575 12.2412 7.47804 12.6522 7.47804 13.1558Z" fill="#303133"/>
<path id="Vector_4" d="M13.7749 11.8232C13.3866 11.8232 13.0701 12.1444 13.0701 12.5398V14.9978C13.0701 15.3925 13.3866 15.7143 13.7749 15.7143C14.1627 15.7143 14.4798 15.3925 14.4798 14.9978V12.5398C14.4798 12.1444 14.1627 11.8232 13.7749 11.8232Z" fill="#303133"/>
<path id="Vector_5" d="M17.9978 2.78668H17.9953C17.9427 1.7985 17.2062 0.984702 16.263 0.87586V0.861328H11.7986C10.7637 0.861328 9.90956 1.71635 9.85247 2.78668L9.84937 7.73024C9.84937 7.79549 9.86095 7.86251 9.87904 7.91056C10.0373 8.89399 10.8453 9.60814 11.7986 9.60814H16.1658L16.263 9.60221V9.5942C17.1282 9.49514 17.8226 8.8157 17.9653 7.92717C17.9873 7.86014 17.9984 7.7943 17.9984 7.73024V2.88929L17.9978 2.78668ZM16.8286 3.00228V7.46718C16.8286 7.97314 16.4349 8.38448 15.9504 8.38448H11.8973C11.4123 8.38448 11.0186 7.97314 11.0186 7.46718V3.00228C11.0186 2.49693 11.4123 2.08588 11.8973 2.08588H15.9504C16.4349 2.08588 16.8286 2.49693 16.8286 3.00228Z" fill="#303133"/>
<path id="Vector_6" d="M16.3631 11.8232C15.9745 11.8232 15.6582 12.145 15.6582 12.5404V13.7688C15.6582 14.1641 15.9747 14.4853 16.3631 14.4853C16.7514 14.4853 17.0685 14.1641 17.0685 13.7688V12.5404C17.0685 12.145 16.7514 11.8232 16.3631 11.8232Z" fill="#303133"/>
<path id="Vector_7" d="M16.3631 15.5107C15.9745 15.5107 15.6582 15.8319 15.6582 16.2273V18.0702C15.6582 18.4661 15.9747 18.7873 16.3631 18.7873C16.7514 18.7873 17.0685 18.4661 17.0685 18.0702V16.2273C17.0685 15.8319 16.7514 15.5107 16.3631 15.5107Z" fill="#303133"/>
<path id="Vector_8" d="M13.7749 16.126C13.3866 16.126 13.0701 16.4472 13.0701 16.8419V18.0709C13.0701 18.4656 13.3866 18.7874 13.7749 18.7874C14.1627 18.7874 14.4798 18.4656 14.4798 18.0709V16.8419C14.4798 16.4472 14.1627 16.126 13.7749 16.126Z" fill="#303133"/>
<path id="Vector_9" d="M11.1533 11.8232C10.7655 11.8232 10.449 12.145 10.449 12.5404V13.1549C10.449 13.5497 10.7655 13.8714 11.1533 13.8714C11.5425 13.8714 11.8593 13.5494 11.8593 13.1549V12.5404C11.8596 12.145 11.5425 11.8232 11.1533 11.8232Z" fill="#303133"/>
</g>
</svg>
