<svg width="24" height="24" viewBox="0 0 24 24" fill="none" xmlns="http://www.w3.org/2000/svg">
<g id="Frame 3196">
<rect width="24" height="24" fill="white"/>
<path id="Vector" d="M9.375 3.25H4.125C3.64175 3.25 3.25 3.64175 3.25 4.125V9.375C3.25 9.85825 3.64175 10.25 4.125 10.25H9.375C9.85825 10.25 10.25 9.85825 10.25 9.375V4.125C10.25 3.64175 9.85825 3.25 9.375 3.25Z" stroke="black" stroke-width="1.5" stroke-linecap="round" stroke-linejoin="round"/>
<path id="Vector_2" d="M9.375 13.75H4.125C3.64175 13.75 3.25 14.1418 3.25 14.625V19.875C3.25 20.3582 3.64175 20.75 4.125 20.75H9.375C9.85825 20.75 10.25 20.3582 10.25 19.875V14.625C10.25 14.1418 9.85825 13.75 9.375 13.75Z" stroke="black" stroke-width="1.5" stroke-linecap="round" stroke-linejoin="round"/>
<path id="Vector_3" d="M19.875 3.25H14.625C14.1418 3.25 13.75 3.64175 13.75 4.125V9.375C13.75 9.85825 14.1418 10.25 14.625 10.25H19.875C20.3582 10.25 20.75 9.85825 20.75 9.375V4.125C20.75 3.64175 20.3582 3.25 19.875 3.25Z" stroke="black" stroke-width="1.5" stroke-linecap="round" stroke-linejoin="round"/>
<path id="Vector_4" d="M13.75 13.75V17.25" stroke="black" stroke-width="1.5" stroke-linecap="round" stroke-linejoin="round"/>
<path id="Vector_5" d="M13.75 20.75H17.25V13.75" stroke="black" stroke-width="1.5" stroke-linecap="round" stroke-linejoin="round"/>
<path id="Vector_6" d="M17.25 15.5H20.75" stroke="black" stroke-width="1.5" stroke-linecap="round" stroke-linejoin="round"/>
<path id="Vector_7" d="M20.75 19V20.75" stroke="black" stroke-width="1.75" stroke-linecap="round" stroke-linejoin="round"/>
</g>
</svg>
