<svg width="24" height="24" viewBox="0 0 24 24" fill="none" xmlns="http://www.w3.org/2000/svg">
  <path fill-rule="evenodd" clip-rule="evenodd"
    d="M17.828 12.2783C16.8014 12.2783 15.8378 12.4854 15.0274 12.8366C17.864 13.6561 19.8722 15.6192 19.9263 17.9156C21.4031 17.7265 22.9971 17.1682 22.9971 15.6463C22.9971 13.8182 20.6287 12.2783 17.828 12.2783Z"
    fill="#909090" />
  <path fill-rule="evenodd" clip-rule="evenodd"
    d="M17.801 10.9815H17.819C19.7371 10.9815 21.3041 9.4146 21.3041 7.50547C21.3041 5.58734 19.7371 4.02042 17.819 4.02042C17.4408 4.02042 17.0806 4.08345 16.7384 4.19152C17.3597 5.11006 17.7199 6.21771 17.7199 7.41542C17.7289 8.63114 17.3507 9.80183 16.6393 10.7744C17.0085 10.9095 17.3957 10.9815 17.801 10.9815Z"
    fill="#909090" />
  <path fill-rule="evenodd" clip-rule="evenodd"
    d="M8.95777 12.8276C8.14729 12.4854 7.18372 12.2783 6.16612 12.2783C3.36547 12.2783 0.99707 13.8182 0.99707 15.6463C0.99707 17.1682 2.58201 17.7175 4.05888 17.9156C4.1039 15.6192 6.11209 13.6561 8.95777 12.8276Z"
    fill="#909090" />
  <path fill-rule="evenodd" clip-rule="evenodd"
    d="M6.16612 10.9815H6.19314C6.59838 10.9815 6.98561 10.9095 7.35483 10.7744C6.67042 9.83785 6.26518 8.67616 6.26518 7.41542C6.26518 6.21771 6.6254 5.11006 7.24676 4.19152C6.90456 4.08345 6.54435 4.02042 6.16612 4.02042C4.24799 4.02042 2.69007 5.58734 2.69007 7.50547C2.69007 9.4146 4.24799 10.9815 6.16612 10.9815Z"
    fill="#909090" />
  <path fill-rule="evenodd" clip-rule="evenodd"
    d="M11.9922 13.7525C8.4252 13.7525 5.41113 15.694 5.41113 17.9922C5.41113 20.9639 10.364 20.9639 11.9922 20.9639C14.8181 20.9639 18.5751 20.6577 18.5751 18.0111C18.5751 15.7021 15.5601 13.7525 11.9922 13.7525Z"
    fill="#909090" />
  <path fill-rule="evenodd" clip-rule="evenodd"
    d="M11.9931 11.7975H12.0228C13.189 11.7939 14.284 11.3355 15.1053 10.5079C15.9275 9.68033 16.3778 8.58258 16.3733 7.41819C16.3733 5.00207 14.4092 3.03711 11.9931 3.03711C9.57787 3.03711 7.61381 5.00207 7.61381 7.41819C7.61381 9.83252 9.57787 11.7975 11.9931 11.7975Z"
    fill="#909090" />
</svg>
