<svg xmlns="http://www.w3.org/2000/svg" viewBox="0 0 22.68 22.68"><defs><style>.cls-1{fill:#1f2af9;}</style></defs><g id="图层_2" data-name="图层 2"><g id="图层_1-2" data-name="图层 1"><path class="cls-1" d="M2.7,17.85a2.19,2.19,0,0,1,.38-1.17,2.13,2.13,0,0,0,.26-1.88A2,2,0,0,0,2,13.49a8.1,8.1,0,0,1-.91-.31,2,2,0,0,1-1.1-2A2,2,0,0,1,1.37,9.39L2,9.19a2.08,2.08,0,0,0,1.2-3,4,4,0,0,1-.45-1A2,2,0,0,1,3.58,3.1,2,2,0,0,1,5.79,3,3.39,3.39,0,0,0,7,3.44,2.07,2.07,0,0,0,9.15,2.11c.08-.22.13-.44.2-.66a2.09,2.09,0,0,1,4,0,4.87,4.87,0,0,0,.43,1.08,2,2,0,0,0,2.59.71c.29-.13.56-.3.85-.42a2,2,0,0,1,2.27.6,2.05,2.05,0,0,1,.29,2.27,6.31,6.31,0,0,0-.45,1,2.06,2.06,0,0,0,1.35,2.54l.57.17a2,2,0,0,1,1.45,2,2.06,2.06,0,0,1-1.49,1.95,4.23,4.23,0,0,0-1,.38,2,2,0,0,0-.76,2.67,4.65,4.65,0,0,1,.48,1.1,1.93,1.93,0,0,1-.81,2.08,2,2,0,0,1-2.25.13,3.38,3.38,0,0,0-1.07-.45,2.08,2.08,0,0,0-2.31,1.43c-.06.21-.12.42-.19.63a2.07,2.07,0,0,1-3.87.09c-.08-.22-.14-.44-.21-.67a2.08,2.08,0,0,0-3-1.23,3.51,3.51,0,0,1-1,.45A2.1,2.1,0,0,1,2.7,17.85ZM11.35,7.19a4.15,4.15,0,1,0,4.14,4.16A4.15,4.15,0,0,0,11.35,7.19Z"/></g></g></svg>