<svg width="24" height="24" viewBox="0 0 24 24" fill="none" xmlns="http://www.w3.org/2000/svg">
  <path
    d="M20.0971 9.6589C18.2871 9.6589 17.5471 8.3789 18.4471 6.8089C18.9671 5.8989 18.6571 4.7389 17.7471 4.2189L16.0171 3.2289C15.2271 2.7589 14.2071 3.0389 13.7371 3.8289L13.6271 4.0189C12.7271 5.5889 11.2471 5.5889 10.3371 4.0189L10.2271 3.8289C9.77707 3.0389 8.75707 2.7589 7.96707 3.2289L6.23707 4.2189C5.32707 4.7389 5.01707 5.9089 5.53707 6.8189C6.44707 8.3789 5.70707 9.6589 3.89707 9.6589C2.85707 9.6589 1.99707 10.5089 1.99707 11.5589V13.3189C1.99707 14.3589 2.84707 15.2189 3.89707 15.2189C5.70707 15.2189 6.44707 16.4989 5.53707 18.0689C5.01707 18.9789 5.32707 20.1389 6.23707 20.6589L7.96707 21.6489C8.75707 22.1189 9.77707 21.8389 10.2471 21.0489L10.3571 20.8589C11.2571 19.2889 12.7371 19.2889 13.6471 20.8589L13.7571 21.0489C14.2271 21.8389 15.2471 22.1189 16.0371 21.6489L17.7671 20.6589C18.6771 20.1389 18.9871 18.9689 18.4671 18.0689C17.5571 16.4989 18.2971 15.2189 20.1071 15.2189C21.1471 15.2189 22.0071 14.3689 22.0071 13.3189V11.5589C21.9971 10.5189 21.1471 9.6589 20.0971 9.6589ZM11.9971 15.6889C10.2071 15.6889 8.74707 14.2289 8.74707 12.4389C8.74707 10.6489 10.2071 9.1889 11.9971 9.1889C13.7871 9.1889 15.2471 10.6489 15.2471 12.4389C15.2471 14.2289 13.7871 15.6889 11.9971 15.6889Z"
    fill="#3838b9" />
</svg>
