<?xml version="1.0" encoding="UTF-8"?>
<svg id="_图层_1" data-name="图层 1" xmlns="http://www.w3.org/2000/svg" viewBox="0 0 48 48">
  <defs>
    <style>
      .cls-1 {
        fill: #d3d3d3;
      }

      .cls-2 {
        fill: #afafaf;
      }
    </style>
  </defs>
  <g>
    <path class="cls-1" d="m22.12,42.9c-8.81.1-15.25.05-16.84,0-.43-.01-1.72-.07-2.66-.87-.76-.64-1.05-1.5-1.05-2.47.01-2.05.72-3.9,1.78-5.62,2.11-3.41,5.25-5.49,8.98-6.75,4.51-1.53,8.9-1.49,11.56-1.39.45.02.82.04,1.07.06.02,0,.14.04.19.14.06.12,0,.28-.13.38-.03.03-.05.06-.08.09-.08.08-.08.09-.08.09h0c-.85.75-3.38,3.19-4.2,7.28-.92,4.59.95,8.15,1.47,9.07Z"/>
    <path class="cls-1" d="m11.83,12.21c-.15-5.57,4.39-10.28,10.05-10.42,5.65-.14,10.37,4.34,10.53,9.99.16,5.72-4.35,10.47-10.15,10.56-5.8.1-10.34-4.54-10.43-10.14Z"/>
  </g>
  <path class="cls-2" d="m26.46,42.7c0-.4.16-.8.38-1.17.36-.59.5-1.21.26-1.88-.23-.65-.67-1.09-1.33-1.31-.3-.1-.62-.18-.91-.32-.76-.36-1.16-1.13-1.1-2.04.06-.8.59-1.5,1.36-1.75.21-.07.42-.13.63-.19,1.25-.39,1.82-1.83,1.2-2.99-.18-.33-.37-.66-.45-1.02-.19-.86.13-1.58.83-2.09.7-.51,1.45-.53,2.21-.13.37.2.73.42,1.17.47.94.12,1.87-.44,2.19-1.34.08-.21.13-.44.2-.65.28-.89,1.05-1.45,1.98-1.45.95,0,1.7.56,2,1.46.12.37.23.76.43,1.08.54.86,1.67,1.15,2.59.71.28-.14.55-.31.85-.42.81-.31,1.67-.07,2.27.6.55.62.67,1.51.29,2.27-.16.32-.35.62-.45.96-.32,1.07.29,2.19,1.36,2.54.19.06.38.11.56.17.91.29,1.46,1.06,1.45,2.03,0,.91-.61,1.68-1.5,1.95-.34.1-.69.2-.99.38-.92.55-1.23,1.71-.76,2.67.18.36.4.72.48,1.1.19.85-.12,1.56-.81,2.08-.71.53-1.47.55-2.25.13-.35-.18-.68-.39-1.08-.45-1.02-.15-1.99.44-2.3,1.43-.07.21-.12.43-.19.63-.27.79-1.02,1.35-1.85,1.37-.94.02-1.7-.46-2.02-1.28-.08-.22-.14-.44-.21-.67-.4-1.32-1.82-1.9-3.03-1.23-.34.18-.67.38-1.06.45-1.24.21-2.43-.79-2.42-2.1Zm8.65-10.67c-2.29,0-4.15,1.85-4.16,4.14,0,2.27,1.85,4.16,4.12,4.16,2.31,0,4.17-1.84,4.18-4.14,0-2.28-1.86-4.16-4.14-4.16Z"/>
</svg>