<?xml version="1.0" encoding="UTF-8"?>
<svg id="_图层_1" data-name="图层 1" xmlns="http://www.w3.org/2000/svg" viewBox="0 0 48 48">
  <defs>
    <style>
      .cls-1 {
        fill: #8b9ccc;
      }

      .cls-2 {
        fill: #425ba3;
      }
    </style>
  </defs>
  <path class="cls-1" d="m24.63,33.98c-5.21-.08-10.42-.15-15.63-.23-.53.02-4.2.12-6.7-2.71-2.45-2.77-2.56-6.97-.66-9.97,2.3-3.61,6.52-3.9,6.96-3.92-.04-1.28.06-3.31.95-5.54.21-.52,2.69-6.49,8.99-8.25,6.66-1.86,13.24,2.21,16.02,6.96.92,1.57,1.34,3.08,1.55,4.19.31-.09,5.08-1.49,8.63,1.57,3.09,2.66,3.9,7.53,1.68,11.61-.76-.81-3.45-3.49-7.83-4.02-.68-.08-5.95-.63-10.15,3.28-2.85,2.65-3.6,5.87-3.81,7.02Z"/>
  <g>
    <path class="cls-2" d="m37.81,34.82c-1.58,0-3.12-.16-4.63-.56-.9-.24-1.77-.56-2.57-1.06-.39-.24-.76-.51-1.02-.9-.08-.12-.15-.25-.21-.38-.16-.36-.07-.68.12-1,.28-.46.68-.79,1.14-1.06.8-.48,1.66-.79,2.55-1.03.78-.21,1.56-.36,2.36-.45.44-.05.89-.08,1.33-.1.48-.02.96-.02,1.44-.01,1.68.05,3.33.28,4.93.83.76.26,1.48.6,2.12,1.09.33.25.6.56.78.94.16.33.11.64-.06.95-.28.51-.72.87-1.21,1.16-.75.44-1.55.74-2.38.98-.77.22-1.56.37-2.36.47-.49.06-.98.1-1.47.12-.29.01-.57,0-.85.02Z"/>
    <path class="cls-2" d="m37.81,40.2c-1.59,0-3.15-.17-4.69-.58-.95-.26-1.87-.61-2.69-1.15-.38-.25-.7-.55-.94-.93-.26-.42-.25-.82,0-1.24.26-.41.61-.72,1.02-.98.04-.03.08-.02.12,0,.76.35,1.55.62,2.37.81.8.2,1.61.33,2.43.42.53.06,1.06.09,1.59.11.46.02.91.02,1.37,0,1.62-.05,3.21-.26,4.76-.71.59-.17,1.16-.38,1.72-.63.04-.02.08-.04.13,0,.41.26.77.57,1.03.99.27.43.25.85-.02,1.27-.28.43-.66.75-1.1,1.02-.75.45-1.55.76-2.39,1-.8.22-1.61.39-2.43.49-.51.06-1.02.1-1.54.12-.25,0-.5.01-.75.01Z"/>
    <path class="cls-2" d="m37.75,45.1c-1.53,0-3.09-.17-4.63-.58-.9-.24-1.76-.57-2.56-1.07-.42-.27-.8-.58-1.07-1.01-.26-.42-.26-.82,0-1.23.17-.27.37-.5.61-.7.06-.05.1-.02.15,0,.55.29,1.13.52,1.73.71.9.29,1.81.48,2.74.62.65.09,1.31.15,1.97.19.53.03,1.05.04,1.58.03,1.45-.04,2.88-.2,4.29-.55.94-.24,1.86-.55,2.73-.99.06-.03.11-.03.16.02.27.22.48.48.65.78.23.4.16.78-.07,1.15-.28.44-.67.76-1.11,1.03-.85.51-1.77.84-2.72,1.08-.74.19-1.48.33-2.24.41-.46.05-.92.08-1.38.1-.26,0-.51.01-.83.02Z"/>
  </g>
</svg>