<svg width="24" height="24" viewBox="0 0 24 24" fill="none" xmlns="http://www.w3.org/2000/svg">
  <path fill-rule="evenodd" clip-rule="evenodd"
    d="M4.67707 3H19.3171C20.7871 3 21.9971 4.21 21.9971 5.68V8.32C21.9971 9.79 20.7871 11 19.3071 11H4.67707C3.20707 11 1.99707 9.79 1.99707 8.31V5.68C1.99707 4.21 3.20707 3 4.67707 3ZM5.99707 8.75C6.40707 8.75 6.74707 8.41 6.74707 8V6C6.74707 5.59 6.40707 5.25 5.99707 5.25C5.58707 5.25 5.24707 5.59 5.24707 6V8C5.24707 8.41 5.58707 8.75 5.99707 8.75ZM9.99707 8.75C10.4071 8.75 10.7471 8.41 10.7471 8V6C10.7471 5.59 10.4071 5.25 9.99707 5.25C9.58707 5.25 9.24707 5.59 9.24707 6V8C9.24707 8.41 9.58707 8.75 9.99707 8.75ZM13.9971 7.75H17.9971C18.4071 7.75 18.7471 7.41 18.7471 7C18.7471 6.59 18.4071 6.25 17.9971 6.25H13.9971C13.5871 6.25 13.2471 6.59 13.2471 7C13.2471 7.41 13.5871 7.75 13.9971 7.75ZM4.67707 13H19.3171C20.7871 13 21.9971 14.21 21.9871 15.69V18.32C21.9871 19.79 20.7871 21 19.3071 21H4.67707C3.20707 21 1.99707 19.79 1.99707 18.31V15.68C1.99707 14.21 3.20707 13 4.67707 13ZM5.99707 18.75C6.40707 18.75 6.74707 18.41 6.74707 18V16C6.74707 15.59 6.40707 15.25 5.99707 15.25C5.58707 15.25 5.24707 15.59 5.24707 16V18C5.24707 18.41 5.58707 18.75 5.99707 18.75ZM9.99707 18.75C10.4071 18.75 10.7471 18.41 10.7471 18V16C10.7471 15.59 10.4071 15.25 9.99707 15.25C9.58707 15.25 9.24707 15.59 9.24707 16V18C9.24707 18.41 9.58707 18.75 9.99707 18.75ZM13.9971 17.75H17.9971C18.4071 17.75 18.7471 17.41 18.7471 17C18.7471 16.59 18.4071 16.25 17.9971 16.25H13.9971C13.5871 16.25 13.2471 16.59 13.2471 17C13.2471 17.41 13.5871 17.75 13.9971 17.75Z"
    fill="#366EF4" />
</svg>
