<?xml version="1.0" encoding="UTF-8"?>
<svg id="_图层_1" data-name="图层 1" xmlns="http://www.w3.org/2000/svg" viewBox="0 0 48 48">
  <defs>
    <style>
      .cls-1 {
        fill: #a9a9a9;
      }

      .cls-2 {
        fill: #606060;
      }
    </style>
  </defs>
  <path class="cls-1" d="m24.67,32.76c-5.23-.08-10.47-.15-15.7-.23-.53.02-4.22.12-6.73-2.72-2.46-2.78-2.57-7-.66-10.01,2.3-3.62,6.55-3.91,6.99-3.94-.04-1.29.06-3.32.95-5.57.21-.53,2.7-6.52,9.03-8.28,6.69-1.86,13.3,2.22,16.09,6.99.92,1.58,1.35,3.09,1.56,4.21.31-.09,5.1-1.49,8.66,1.58,3.1,2.67,3.92,7.57,1.69,11.66-.76-.82-3.47-3.5-7.87-4.04-.68-.08-5.98-.64-10.19,3.29-2.86,2.66-3.61,5.89-3.83,7.05Z"/>
  <g>
    <path class="cls-2" d="m37.91,33.6c-1.58,0-3.13-.16-4.65-.57-.91-.24-1.78-.57-2.58-1.06-.39-.24-.76-.52-1.03-.9-.08-.12-.15-.25-.21-.38-.16-.36-.07-.69.12-1.01.28-.47.69-.79,1.14-1.07.8-.48,1.67-.8,2.56-1.04.78-.21,1.57-.36,2.37-.45.44-.05.89-.08,1.34-.1.48-.02.97-.02,1.45-.01,1.69.05,3.35.28,4.95.84.76.26,1.48.6,2.13,1.09.33.26.6.56.78.95.16.33.11.64-.06.95-.28.52-.72.87-1.22,1.17-.75.44-1.56.75-2.39.98-.78.22-1.57.38-2.37.47-.49.06-.99.1-1.48.12-.29.01-.58,0-.85.02Z"/>
    <path class="cls-2" d="m37.9,39.01c-1.59,0-3.17-.17-4.71-.58-.96-.26-1.87-.61-2.71-1.16-.38-.25-.7-.55-.94-.94-.26-.42-.25-.83,0-1.24.26-.42.62-.73,1.02-.99.04-.03.08-.02.12,0,.76.36,1.56.62,2.38.82.8.2,1.62.33,2.44.42.53.06,1.07.09,1.6.11.46.02.92.02,1.38,0,1.62-.05,3.22-.26,4.78-.71.59-.17,1.17-.38,1.73-.63.04-.02.08-.04.13,0,.41.26.77.57,1.04,1,.27.44.25.85-.02,1.27-.28.44-.67.75-1.1,1.02-.75.46-1.56.76-2.4,1-.8.23-1.61.39-2.44.49-.51.06-1.03.1-1.54.12-.25,0-.5.01-.76.01Z"/>
    <path class="cls-2" d="m37.84,43.93c-1.53,0-3.11-.17-4.65-.58-.9-.24-1.77-.57-2.57-1.07-.43-.27-.81-.58-1.08-1.02-.26-.42-.26-.82,0-1.23.17-.27.37-.5.62-.7.06-.05.1-.02.15,0,.56.29,1.14.52,1.74.71.9.29,1.82.49,2.75.62.66.09,1.32.15,1.98.19.53.03,1.06.04,1.59.03,1.45-.04,2.89-.2,4.3-.55.95-.24,1.87-.55,2.74-1,.06-.03.11-.03.16.02.27.22.49.48.66.79.23.4.16.78-.07,1.15-.28.45-.67.77-1.11,1.03-.85.52-1.78.84-2.74,1.09-.74.19-1.49.33-2.25.41-.46.05-.92.08-1.38.1-.26,0-.52.01-.83.02Z"/>
  </g>
</svg>