<?xml version="1.0" encoding="UTF-8"?>
<svg id="_图层_1" data-name="图层 1" xmlns="http://www.w3.org/2000/svg" viewBox="0 0 48 48">
  <defs>
    <style>
      .cls-1 {
        fill: #d3d3d3;
      }

      .cls-2 {
        fill: #afafaf;
      }
    </style>
  </defs>
  <path class="cls-1" d="m24.67,32.76c-5.23-.08-10.47-.15-15.7-.23-.53.02-4.22.12-6.73-2.72-2.46-2.78-2.57-7-.66-10.01,2.3-3.62,6.55-3.91,6.99-3.94-.04-1.29.06-3.32.95-5.57.21-.53,2.7-6.52,9.03-8.28,6.69-1.86,13.3,2.22,16.09,6.99.92,1.58,1.35,3.09,1.56,4.21.31-.09,5.1-1.49,8.66,1.58,3.1,2.67,3.92,7.57,1.69,11.66-.76-.82-3.47-3.5-7.87-4.04-.68-.08-5.98-.64-10.19,3.29-2.86,2.66-3.61,5.89-3.83,7.05Z"/>
  <g>
    <path class="cls-2" d="m37.16,34.18c-1.72,0-3.41-.18-5.06-.62-.99-.26-1.93-.62-2.81-1.15-.43-.26-.83-.56-1.12-.98-.09-.13-.17-.27-.23-.41-.18-.39-.07-.75.13-1.09.3-.51.75-.86,1.24-1.16.87-.52,1.81-.87,2.79-1.13.85-.23,1.71-.39,2.58-.49.48-.05.97-.09,1.45-.11.53-.02,1.05-.03,1.58-.01,1.84.05,3.64.31,5.39.91.83.29,1.61.65,2.31,1.19.36.28.65.61.85,1.03.17.36.12.7-.07,1.03-.31.56-.79.95-1.32,1.27-.81.48-1.69.81-2.6,1.07-.85.24-1.7.41-2.57.51-.53.07-1.07.11-1.61.13-.31.01-.63,0-.93.02Z"/>
    <path class="cls-2" d="m37.16,40.06c-1.73,0-3.44-.18-5.12-.63-1.04-.28-2.04-.66-2.94-1.26-.41-.27-.76-.6-1.03-1.02-.29-.46-.28-.9,0-1.35.28-.45.67-.79,1.11-1.07.05-.03.08-.02.13,0,.83.39,1.7.67,2.59.89.87.21,1.76.36,2.66.46.58.06,1.16.1,1.74.12.5.02,1,.02,1.5,0,1.76-.05,3.5-.28,5.2-.78.64-.19,1.27-.41,1.88-.69.05-.02.09-.04.14,0,.45.29.84.62,1.13,1.08.3.47.27.92-.02,1.39-.3.48-.72.82-1.2,1.11-.81.5-1.7.83-2.61,1.09-.87.25-1.75.42-2.65.53-.56.07-1.12.11-1.68.13-.27,0-.55.01-.82.02Z"/>
    <path class="cls-2" d="m37.09,45.41c-1.67,0-3.38-.18-5.06-.64-.98-.27-1.93-.62-2.79-1.17-.46-.29-.88-.63-1.17-1.11-.28-.45-.29-.89,0-1.34.18-.29.41-.55.67-.76.06-.05.11-.02.16,0,.61.32,1.24.57,1.89.78.98.32,1.98.53,3,.67.71.1,1.43.17,2.15.2.57.03,1.15.05,1.72.03,1.58-.04,3.14-.22,4.68-.6,1.03-.26,2.03-.6,2.98-1.08.07-.04.12-.03.18.02.3.24.53.53.71.85.25.44.17.85-.08,1.25-.3.48-.73.83-1.21,1.12-.93.56-1.93.92-2.98,1.18-.8.21-1.62.36-2.45.45-.5.06-1,.09-1.5.11-.28,0-.56.01-.91.02Z"/>
  </g>
</svg>