<?xml version="1.0" encoding="UTF-8"?>
<svg id="_图层_1" data-name="图层 1" xmlns="http://www.w3.org/2000/svg" viewBox="0 0 48 48">
  <defs>
    <style>
      .cls-1 {
        fill: #9d9df9;
      }

      .cls-2 {
        fill: #1f2afa;
      }
    </style>
  </defs>
  <path class="cls-1" d="m24.63,33.98c-5.21-.08-10.42-.15-15.63-.23-.53.02-4.2.12-6.7-2.71-2.45-2.77-2.56-6.97-.66-9.97,2.3-3.61,6.52-3.9,6.96-3.92-.04-1.28.06-3.31.95-5.54.21-.52,2.69-6.49,8.99-8.25,6.66-1.86,13.24,2.21,16.02,6.96.92,1.57,1.34,3.08,1.55,4.19.31-.09,5.08-1.49,8.63,1.57,3.09,2.66,3.9,7.53,1.68,11.61-.76-.81-3.45-3.49-7.83-4.02-.68-.08-5.95-.63-10.15,3.28-2.85,2.65-3.6,5.87-3.81,7.02Z"/>
  <g>
    <path class="cls-2" d="m37.14,35.34c-1.7,0-3.37-.17-5-.61-.97-.26-1.91-.61-2.77-1.14-.42-.26-.82-.55-1.1-.97-.09-.13-.17-.27-.23-.41-.17-.39-.07-.74.13-1.08.3-.5.74-.85,1.23-1.15.86-.52,1.79-.86,2.75-1.11.84-.23,1.69-.39,2.55-.48.48-.05.96-.09,1.44-.11.52-.02,1.04-.03,1.56-.01,1.82.05,3.6.3,5.32.9.82.28,1.59.64,2.29,1.17.36.27.65.61.84,1.02.17.36.12.69-.07,1.02-.31.56-.78.94-1.31,1.25-.8.48-1.67.8-2.57,1.05-.84.23-1.68.4-2.54.51-.53.06-1.06.11-1.59.13-.31.01-.62,0-.91.02Z"/>
    <path class="cls-2" d="m37.14,41.15c-1.71,0-3.4-.18-5.06-.63-1.03-.28-2.01-.66-2.91-1.25-.4-.27-.75-.59-1.01-1.01-.28-.45-.27-.89,0-1.34.28-.45.66-.78,1.1-1.06.04-.03.08-.02.13,0,.82.38,1.68.66,2.55.88.86.21,1.74.36,2.63.45.57.06,1.14.1,1.72.12.49.02.99.02,1.48,0,1.74-.05,3.46-.28,5.14-.77.63-.19,1.26-.41,1.86-.68.04-.02.09-.04.14,0,.44.28.83.62,1.12,1.07.29.47.27.91-.02,1.37-.3.47-.72.81-1.18,1.1-.81.49-1.68.82-2.58,1.07-.86.24-1.73.42-2.62.52-.55.07-1.1.11-1.66.13-.27,0-.54.01-.81.02Z"/>
    <path class="cls-2" d="m37.07,46.43c-1.65,0-3.34-.18-5-.63-.97-.26-1.9-.62-2.76-1.15-.46-.29-.87-.63-1.16-1.1-.28-.45-.28-.88,0-1.33.18-.29.4-.54.66-.76.06-.05.11-.02.16,0,.6.31,1.22.56,1.87.77.97.31,1.96.52,2.96.67.71.1,1.41.16,2.13.2.57.03,1.14.05,1.7.03,1.56-.04,3.11-.22,4.63-.6,1.02-.25,2.01-.59,2.94-1.07.07-.04.12-.03.18.02.29.23.52.52.71.84.24.43.17.84-.08,1.24-.3.48-.72.82-1.19,1.11-.91.55-1.91.9-2.94,1.17-.8.2-1.6.36-2.42.45-.49.05-.99.09-1.48.11-.28,0-.56.01-.9.02Z"/>
  </g>
</svg>