<?xml version="1.0" encoding="UTF-8"?>
<svg id="_图层_1" data-name="图层 1" xmlns="http://www.w3.org/2000/svg" viewBox="0 0 48 48">
  <defs>
    <style>
      .cls-1 {
        fill: #fff;
      }

      .cls-2 {
        fill: #8b9ccc;
      }

      .cls-3 {
        fill: #425ba3;
      }
    </style>
  </defs>
  <path class="cls-3" d="m23.2,43.09c-7.09.23-12.33.18-13.97,0-.65-.07-1.52-.26-2.17-.9-.55-.55-.9-1.32-.9-2.17V3.44c0-1.69,1.37-3.06,3.06-3.06h25.62c1.69,0,3.06,1.37,3.06,3.06v22.32c-4.53-1.46-9.48-.26-12.7,3.08-3.6,3.72-4.43,9.47-2.01,14.25Zm8.86-34.77h0c0-.62-.51-1.13-1.13-1.13H13.21c-.62,0-1.13.51-1.13,1.13h0c0,.62.51,1.13,1.13,1.13h17.72c.62,0,1.13-.51,1.13-1.13Zm0,4.92h0c0-.62-.51-1.13-1.13-1.13H13.21c-.62,0-1.13.51-1.13,1.13h0c0,.62.51,1.13,1.13,1.13h17.72c.62,0,1.13-.51,1.13-1.13Zm-8.64,4.92h0c0-.62-.51-1.13-1.13-1.13h-9.07c-.62,0-1.13.51-1.13,1.13h0c0,.62.51,1.13,1.13,1.13h9.07c.62,0,1.13-.51,1.13-1.13Z"/>
  <circle class="cls-2" cx="34.39" cy="37.59" r="10.03"/>
  <g>
    <rect class="cls-1" x="33" y="32.71" width="2.43" height="8.44" rx="1.16" ry="1.16"/>
    <rect class="cls-1" x="34.62" y="37.68" width="2.43" height="5.95" rx="1.16" ry="1.16" transform="translate(-15.7 57.44) rotate(-66.66)"/>
  </g>
</svg>