<?xml version="1.0" encoding="UTF-8"?>
<svg id="_图层_1" data-name="图层 1" xmlns="http://www.w3.org/2000/svg" viewBox="0 0 48 48">
  <defs>
    <style>
      .cls-1 {
        fill: #9d9df9;
      }

      .cls-2 {
        fill: #1f2afa;
      }
    </style>
  </defs>
  <path class="cls-2" d="m23.26,43.3c-4.32.09-8.64.18-12.95.27-.31-.05-1.13-.21-1.87-.9-.84-.79-1.02-1.74-1.07-2.04V5.5c0-1.62,1.32-2.94,2.94-2.94h24.6c.2,0,1.24.02,2.08.86s.86,1.88.86,2.08c.02,10.85.05,18.13.12,18.54,0,.04.06.31-.04.61-.05.16-.13.27-.17.33-.01.02-.03.03-.03.04-.08.1-2.17,3.39-7.38,11.65-.04.07-.23.4-.57.45-.19.03-.34-.05-.5-.11,0,0-.13-.06-.55-.38-.85-.65-1.7-1.31-2.54-1.96-.37-.19-1.13-.5-2.08-.41-1.51.14-2.99,1.28-3.38,2.92-.41,1.74.63,3.12.77,3.3.96.99,1.66,1.68,2.12,2.09.09.08.32.28.27.46-.06.22-.51.28-.64.29Zm8.97-33.11h0c0-.6-.49-1.09-1.09-1.09H14.13c-.6,0-1.09.49-1.09,1.09h0c0,.6.49,1.09,1.09,1.09h17.01c.6,0,1.09-.49,1.09-1.09Zm0,4.73h0c0-.6-.49-1.09-1.09-1.09H14.13c-.6,0-1.09.49-1.09,1.09h0c0,.6.49,1.09,1.09,1.09h17.01c.6,0,1.09-.49,1.09-1.09Zm-8.3,4.73h0c0-.6-.49-1.09-1.09-1.09h-8.71c-.6,0-1.09.49-1.09,1.09h0c0,.6.49,1.09,1.09,1.09h8.71c.6,0,1.09-.49,1.09-1.09Z"/>
  <path class="cls-1" d="m31.74,46.03c-.54,0-1.07-.16-1.51-.49l-6.51-4.81c-1.11-.82-1.34-2.37-.52-3.48.82-1.11,2.37-1.34,3.48-.52l4.38,3.23,7.66-11.87c.74-1.15,2.29-1.49,3.44-.74,1.15.74,1.49,2.29.74,3.44l-9.1,14.09c-.37.58-.97.97-1.64,1.1-.14.02-.27.04-.41.04Z"/>
</svg>