<?xml version="1.0" encoding="UTF-8"?>
<svg id="_图层_1" data-name="图层 1" xmlns="http://www.w3.org/2000/svg" viewBox="0 0 48 48">
  <defs>
    <style>
      .cls-1 {
        fill: #fff;
      }

      .cls-2 {
        fill: #a9a9a9;
      }

      .cls-3 {
        fill: #606060;
      }
    </style>
  </defs>
  <path class="cls-3" d="m22.04,43.58c-7.17.23-12.46.18-14.13,0-.66-.07-1.54-.26-2.19-.91-.56-.56-.91-1.33-.91-2.19V3.5c0-1.71,1.39-3.1,3.1-3.1h25.9c1.71,0,3.1,1.39,3.1,3.1v22.56c-4.58-1.47-9.58-.26-12.84,3.11-3.64,3.76-4.48,9.58-2.03,14.4ZM31,8.43h0c0-.63-.51-1.14-1.14-1.14H11.95c-.63,0-1.14.51-1.14,1.14h0c0,.63.51,1.14,1.14,1.14h17.91c.63,0,1.14-.51,1.14-1.14Zm0,4.98h0c0-.63-.51-1.14-1.14-1.14H11.95c-.63,0-1.14.51-1.14,1.14h0c0,.63.51,1.14,1.14,1.14h17.91c.63,0,1.14-.51,1.14-1.14Zm-8.74,4.98h0c0-.63-.51-1.14-1.14-1.14h-9.17c-.63,0-1.14.51-1.14,1.14h0c0,.63.51,1.14,1.14,1.14h9.17c.63,0,1.14-.51,1.14-1.14Z"/>
  <circle class="cls-2" cx="33.35" cy="37.74" r="10.14"/>
  <g>
    <rect class="cls-1" x="31.95" y="32.8" width="2.45" height="8.53" rx="1.16" ry="1.16"/>
    <rect class="cls-1" x="33.59" y="37.83" width="2.45" height="6.01" rx="1.16" ry="1.16" transform="translate(-16.47 56.62) rotate(-66.66)"/>
  </g>
</svg>