<svg width="24" height="24" viewBox="0 0 24 24" fill="none" xmlns="http://www.w3.org/2000/svg">
  <path fill-rule="evenodd" clip-rule="evenodd"
    d="M2 10C2 6.22876 2 4.34315 3.17157 3.17157C4.34315 2 6.22876 2 10 2H12C15.7712 2 17.6569 2 18.8284 3.17157C19.3941 3.73727 19.6867 4.46945 19.838 5.5C18.9003 5.49981 17.9626 5.85741 17.2472 6.57282L17.12 6.70004L16.0081 7.81188L12.0017 11.8183L12.0017 11.8183C11.7317 12.0881 11.5106 12.309 11.316 12.5586C11.0879 12.8509 10.8924 13.1672 10.7329 13.5019C10.5968 13.7876 10.4981 14.0842 10.3775 14.4463L10.3556 14.5121L9.88046 15.9375L9.60696 16.7579C9.35743 17.5065 9.55226 18.3318 10.1102 18.8898C10.6682 19.4478 11.4935 19.6426 12.2421 19.3931L14.5538 18.6225C14.9159 18.502 15.2124 18.4032 15.4981 18.2671C15.8328 18.1076 16.1491 17.9121 16.4415 17.6841C16.691 17.4894 16.9119 17.2683 17.1817 16.9984L20 14.1801C19.9997 17.8316 19.9812 19.6756 18.8284 20.8284C17.6569 22 15.7712 22 12 22H10C6.22876 22 4.34315 22 3.17157 20.8284C2 19.6569 2 17.7712 2 14V10ZM7 8.25C6.58579 8.25 6.25 8.58579 6.25 9C6.25 9.41421 6.58579 9.75 7 9.75H13.5C13.9142 9.75 14.25 9.41421 14.25 9C14.25 8.58579 13.9142 8.25 13.5 8.25H7ZM7 12.25C6.58579 12.25 6.25 12.5858 6.25 13C6.25 13.4142 6.58579 13.75 7 13.75H9.5C9.91421 13.75 10.25 13.4142 10.25 13C10.25 12.5858 9.91421 12.25 9.5 12.25H7ZM7 16.25C6.58579 16.25 6.25 16.5858 6.25 17C6.25 17.4142 6.58579 17.75 7 17.75H8.5C8.91421 17.75 9.25 17.4142 9.25 17C9.25 16.5858 8.91421 16.25 8.5 16.25H7ZM21.3665 7.63348C22.2112 8.47812 22.2112 9.84754 21.3665 10.6922L21.2393 10.8194C21.1165 10.9422 20.945 10.9978 20.7741 10.9671C20.6666 10.9478 20.5095 10.9121 20.3219 10.847C19.9469 10.7169 19.4545 10.4712 18.9917 10.0083C18.5289 9.54549 18.2831 9.05314 18.153 8.67807C18.0879 8.49053 18.0522 8.33336 18.0329 8.22586C18.0022 8.05496 18.0578 7.88348 18.1806 7.7607L18.3078 7.63348C19.1525 6.78884 20.5219 6.78884 21.3665 7.63348ZM16.1701 15.8886C15.8526 16.2061 15.6939 16.3648 15.5189 16.5013C15.3124 16.6623 15.0891 16.8004 14.8527 16.913C14.6524 17.0085 14.4395 17.0795 14.0137 17.2214L14.0137 17.2214L14.0136 17.2214L14.0135 17.2214L13.4632 17.4049L12.5882 17.6966L11.7677 17.9701C11.5581 18.0399 11.3271 17.9854 11.1708 17.8292C11.0146 17.6729 10.9601 17.4419 11.0299 17.2323L11.3034 16.4118L11.5951 15.5368L11.7786 14.9865C11.9205 14.5606 11.9915 14.3476 12.087 14.1473C12.1996 13.9109 12.3377 13.6876 12.4987 13.4811C12.6352 13.3061 12.7939 13.1474 13.1114 12.8299L17.0688 8.87254C17.1644 8.77687 17.3292 8.82066 17.3736 8.94849C17.5356 9.41561 17.8399 10.0233 18.4083 10.5917C18.9767 11.1601 19.5844 11.4644 20.0515 11.6264C20.1793 11.6708 20.2231 11.8356 20.1275 11.9312L16.1701 15.8886Z"
    fill="#506cfa" />
</svg>
