<?xml version="1.0" encoding="UTF-8"?>
<svg id="_图层_1" data-name="图层 1" xmlns="http://www.w3.org/2000/svg" viewBox="0 0 48 48">
  <defs>
    <style>
      .cls-1 {
        fill: #acacac;
      }

      .cls-2 {
        fill: #585858;
      }
    </style>
  </defs>
  <path class="cls-1" d="m22.06,44.41h-11.74c-.32-.05-1.18-.22-1.95-.94-.88-.82-1.07-1.81-1.11-2.12V4.75c0-1.69,1.37-3.06,3.06-3.06h25.63c.2,0,1.29.02,2.17.9.88.88.9,1.96.9,2.17v20c-.23.35-.66.98-1.22,1.74-2.84,3.9-4.51,5.1-6.4,8.36-.27.46-.69,1.23-1.15,2.22-1.64.62-2.48,1.47-2.94,2.11-.69.96-.76,1.75-1.72,3.45-.44.79-.89,1.39-1.2,1.79m8.78-34.74v-.09c0-.6-.49-1.09-1.09-1.09H14.27c-.6,0-1.09.49-1.09,1.09v.09c0,.6.49,1.09,1.09,1.09h17.81c.6,0,1.09-.49,1.09-1.09Zm0,4.92v-.09c0-.6-.49-1.09-1.09-1.09H14.27c-.6,0-1.09.49-1.09,1.09v.09c0,.6.49,1.09,1.09,1.09h17.81c.6,0,1.09-.49,1.09-1.09Zm-8.65,4.92v-.09c0-.6-.49-1.09-1.09-1.09h-9.17c-.6,0-1.09.49-1.09,1.09v.09c0,.6.49,1.09,1.09,1.09h9.17c.6,0,1.09-.49,1.09-1.09Z"/>
  <g>
    <path class="cls-2" d="m45.47,23.19c-.33-.24-.66-.15-.97.09-.11.09-.22.18-.32.27-2.36,2.06-4.56,4.3-6.56,6.71-2.8,3.36-3.56,4.4-3.98,5.12-.63,1.07-1.07,2-1.36,2.67.44,0,1.63.08,2.81.91,1.04.74,1.51,1.68,1.69,2.09.32-.32.75-.77,1.23-1.33.63-.72,1.94-2.27,3.22-4.6,1.28-2.32,1.86-4.33,2.97-6.96.56-1.32,1-2.68,1.5-4.02.14-.37.1-.7-.23-.94Z"/>
    <path class="cls-2" d="m33.46,41.8c-.31-.33-.92-1.09-2-1.25-.18-.03-.97-.12-1.76.31-.69.38-1.08.95-1.38,1.57-.14.3-.3.6-.43.91-.43,1.03-.88,2.01-1.85,2.69-.61.42-.45,1.25.22,1.59.25.12.53.21.8.24,1.8.21,3.53-.08,5.2-.75.76-.31,1.34-.87,1.61-1.64.22-.64.28-1.33.44-2,0,0,0,0,0,0-.2-.9-.62-1.43-.84-1.68Z"/>
  </g>
</svg>