<svg width="24" height="24" viewBox="0 0 24 24" fill="none" xmlns="http://www.w3.org/2000/svg">
  <path fill-rule="evenodd" clip-rule="evenodd"
    d="M22.697 7.4L14.5592 15.4722L10.5598 11.2229L18.547 3.3C18.947 2.9 19.547 2.9 19.947 3.3L22.697 6C23.097 6.4 23.097 7 22.697 7.4ZM8.74617 19.5519L8.89707 19.7008C9.29707 20.1008 9.89707 20.1008 10.2971 19.7008L13.0471 17.0008C13.4471 16.6008 13.4471 16.0008 13.0471 15.6008L5.44707 8.10078C5.04707 7.70078 4.39707 7.70078 4.04707 8.10078L1.29707 10.8008C0.89707 11.2008 0.89707 11.8008 1.29707 12.2008L6.05676 16.8978C6.08417 16.9331 6.11426 16.9672 6.14705 17L8.74617 19.5519Z"
    fill="#366EF4" />
</svg>
