<svg width="18" height="18" viewBox="0 0 18 18" fill="none" xmlns="http://www.w3.org/2000/svg">
    <mask id="mask0_353_1783" style="mask-type:luminance" maskUnits="userSpaceOnUse" x="0" y="0" width="18" height="18">
        <path d="M18 0H0V18H18V0Z" fill="white"/>
    </mask>
    <g mask="url(#mask0_353_1783)">
        <path d="M15.7249 6.43264L11.2282 6.4312C12.8552 0.293236 10.2236 0.019043 9.73953 0.019043V1.3013C9.82943 1.3013 10.138 1.32492 10.3433 1.64059C10.5519 1.9623 10.9537 3.03776 10.1522 6.06052C10.0491 6.44877 10.1138 6.86956 10.3256 7.19617C10.5375 7.52164 10.8724 7.71346 11.2282 7.71346H15.6701C15.6744 7.71346 16.2188 7.7774 16.5471 8.20798C16.7996 8.53978 16.8984 9.0634 16.8468 9.71058C16.7822 10.1703 15.9213 14.4125 15.2615 16.2106C15.2067 16.3557 15.0309 16.6901 14.6006 16.6901H1.12034L1.12791 9.03949C1.13321 9.02336 1.13877 9.00579 1.12791 8.99946V8.99571H3.35872V16.689H4.48296V8.89059C6.11326 8.32953 8.89079 5.43206 8.97867 2.65499H8.97766C8.97993 2.62993 8.97993 2.60746 8.97993 2.58356C8.97993 2.19905 9.04685 1.30389 9.66503 1.30389H9.687C9.70215 1.30389 9.71124 1.30389 9.73422 1.3013L9.73978 0.019043C9.69155 0.019043 9.66503 0.0216351 9.66503 0.0216351C8.45847 0.0216351 7.85594 1.19992 7.85594 2.58356C7.85468 2.57117 7.85367 2.56599 7.85367 2.56599C7.85266 2.56599 7.85367 2.60718 7.85493 2.60718C7.77791 5.05389 4.84887 7.71346 3.97614 7.71346H1.11377C0.411245 7.72958 0.00392203 8.496 0.00392203 8.9767L-0.00390625 17.0196C-0.00390625 17.5067 0.390286 17.9724 1.11023 17.9724H14.6006C15.883 17.9724 16.3044 16.6901 16.3044 16.6901C17.0345 14.7005 17.9403 10.1414 17.9612 9.88223C18.2302 6.57405 15.7249 6.43264 15.7249 6.43264Z" fill="#0073F7"/>
    </g>
</svg>
