<svg width="15" height="18" viewBox="0 0 15 18" fill="none" xmlns="http://www.w3.org/2000/svg">
    <path d="M7.28441 3.9375C5.43497 3.9375 3.92188 5.45616 3.92188 7.3124C3.92188 9.16864 5.43497 10.6875 7.28441 10.6875C9.13384 10.6875 10.6472 9.16887 10.6472 7.3124C10.6472 5.45616 9.13384 3.9375 7.28441 3.9375ZM7.28441 9.56249C6.05137 9.56249 5.0428 8.54997 5.0428 7.3124C5.0428 6.07483 6.0516 5.06231 7.28441 5.06231C8.51744 5.06231 9.52625 6.07483 9.52625 7.3124C9.52625 8.54997 8.51744 9.56249 7.28441 9.56249Z" fill="#0073F7"/>
    <path d="M7.28564 0C3.25065 0 0 3.26237 0 7.31243C0 13.8374 7.28564 18 7.28564 18C7.28564 18 14.5713 13.8374 14.5713 7.31243C14.5715 3.26237 11.3209 0 7.28564 0ZM7.28564 16.6501C5.66043 15.5811 1.12092 12.0937 1.12092 7.31243C1.12092 3.88127 3.86705 1.12504 7.28564 1.12504C10.7045 1.12504 13.4504 3.88127 13.4504 7.31243C13.4506 12.0937 8.91108 15.5811 7.28564 16.6501Z" fill="#0073F7"/>
</svg>
