<svg width="16" height="18" viewBox="0 0 16 18" fill="none" xmlns="http://www.w3.org/2000/svg">
    <path d="M7.3626 1.55566C7.3626 1.44342 7.27232 1.35232 7.1611 1.35232H1.42991C1.31869 1.35232 1.22841 1.44342 1.22841 1.55566V16.4525C1.22841 16.5645 1.31869 16.6558 1.42991 16.6558H7.16088C7.27232 16.6558 7.36238 16.5647 7.36238 16.4525V1.55566H7.3626ZM8.61849 5.5818H14.5411C14.9263 5.5818 15.2957 5.73607 15.5681 6.01071C15.8404 6.28557 15.9933 6.65815 15.9933 7.04679V16.535C15.9933 16.9236 15.8402 17.2962 15.5681 17.5711C15.2957 17.8457 14.9263 18.0002 14.5411 18H7.37351V17.9846C7.30481 17.9947 7.23525 17.9998 7.1659 18H1.45172C1.0666 18 0.6974 17.8455 0.425026 17.5709C0.152652 17.296 -0.000217841 16.9232 2.32997e-07 16.5346V1.46499C0.00043638 0.656242 0.650296 0.000440135 1.45172 0H7.16677C7.96841 0.000440135 8.61805 0.656242 8.61849 1.46499V5.5818ZM8.67889 16.7733L14.5835 16.7632C14.6373 16.7632 14.689 16.7417 14.7272 16.7031C14.7653 16.6646 14.7867 16.6125 14.7865 16.5581V6.99683C14.7865 6.8835 14.6955 6.79151 14.5832 6.79129L8.67802 6.80141L8.67889 16.7733Z" fill="#0073F7"/>
    <path d="M5.23324 5.29053C5.48054 5.29053 5.70843 5.40034 5.83164 5.57838C5.95507 5.75003 5.95507 5.98242 5.83164 6.15407C5.70843 6.33211 5.47988 6.4417 5.23324 6.4417H3.389C3.1417 6.4417 2.91359 6.33211 2.79038 6.15407C2.66695 5.98242 2.66695 5.75003 2.79038 5.57838C2.91359 5.40034 3.14214 5.29053 3.389 5.29053H5.23324ZM5.23324 8.08165C5.61487 8.08165 5.92497 8.33913 5.92497 8.65712C5.92497 8.97468 5.61487 9.2326 5.23324 9.2326H3.389C3.00737 9.2326 2.69727 8.97468 2.69727 8.65712C2.69727 8.33913 3.00715 8.08165 3.389 8.08165H5.23324ZM12.607 9.9421C12.9886 9.9421 13.2987 10.1996 13.2987 10.5176C13.2987 10.8351 12.9888 11.0931 12.607 11.0931H10.7634C10.3817 11.0931 10.0721 10.8351 10.0721 10.5176C10.0721 10.1994 10.3815 9.9421 10.7634 9.9421H12.607ZM5.23324 10.8721C5.61487 10.8721 5.92497 11.1296 5.92497 11.4476C5.92497 11.7651 5.61487 12.0231 5.23324 12.0231H3.389C3.00737 12.0231 2.69727 11.7651 2.69727 11.4476C2.69727 11.1294 3.00715 10.8721 3.389 10.8721H5.23324ZM12.6072 12.7321C12.8545 12.7321 13.0824 12.8417 13.2058 13.02C13.3292 13.1916 13.3292 13.4238 13.2058 13.5954C13.0826 13.7735 12.854 13.8831 12.6072 13.8831H10.7638C10.5165 13.8831 10.2884 13.7735 10.1652 13.5954C10.0418 13.4238 10.0418 13.1914 10.1652 13.02C10.2888 12.8417 10.5169 12.7321 10.7638 12.7321H12.6072Z" fill="#0073F7"/>
</svg>
