<svg width="13" height="18" viewBox="0 0 13 18" fill="none" xmlns="http://www.w3.org/2000/svg">
    <path d="M10.3274 7.07634C10.4564 7.07084 10.5776 7.01266 10.6636 6.91491C10.7497 6.81743 10.7927 6.68876 10.7833 6.55851C10.7364 5.34937 10.2722 4.19501 9.47102 3.29615C8.75062 2.45808 7.71083 1.97092 6.61301 1.95755C6.47753 1.95126 6.34568 2.00236 6.24906 2.09828C6.15217 2.19445 6.09881 2.32679 6.10218 2.46411C6.09518 2.60221 6.14803 2.73717 6.24569 2.83335C6.34335 2.93031 6.47753 2.98036 6.61405 2.96988C7.46552 2.97539 8.2745 3.34751 8.83792 3.99348C9.48915 4.71152 9.88108 5.63109 9.94999 6.60306C9.94014 6.83446 10.1018 7.03703 10.3274 7.07634Z" fill="#0073F7"/>
    <path d="M10.9083 1.91275C9.70112 0.672692 8.0474 -0.0175702 6.3271 0.000511799C2.89272 -0.043252 0.0670919 2.72513 0 6.19872C0.0116569 8.01688 0.827639 9.73389 2.22388 10.8788C2.4666 11.0942 2.60493 11.4069 2.60156 11.7342V12.252C2.60752 12.9863 3.18803 13.5838 3.91387 13.6019H8.76235C9.11284 13.5985 9.4483 13.4551 9.69439 13.2017C9.94048 12.9483 10.0773 12.6066 10.0739 12.252V11.7342C10.0739 11.4053 10.2164 11.0927 10.4627 10.8788C11.8525 9.72891 12.6669 8.01505 12.6866 6.19872C12.6933 4.58523 12.0517 3.03856 10.9083 1.91275ZM9.02632 11.5751V12.0791C9.02114 12.251 8.89136 12.3917 8.72246 12.4079H3.9649C3.79496 12.3959 3.66596 12.2507 3.67218 12.0791V11.5751C3.66285 10.9808 3.39785 10.4202 2.94634 10.0397C1.80293 9.10705 1.14082 7.699 1.14678 6.2134C1.2061 3.37452 3.52012 1.11609 6.3271 1.15881C9.14004 1.10981 11.4642 3.36823 11.5294 6.21313C11.5367 7.69665 10.879 9.10364 9.74101 10.0394C9.2952 10.4234 9.03461 10.9831 9.02632 11.5751Z" fill="#0073F7"/>
    <path d="M8.9187 15.0416H3.76791C3.50473 15.0416 3.29102 14.8251 3.29102 14.5589V14.5109C3.29102 14.2447 3.50498 14.0282 3.76791 14.0282H8.9187C9.18189 14.0282 9.39586 14.2447 9.39586 14.5109V14.5589C9.3956 14.8254 9.18189 15.0416 8.9187 15.0416ZM8.28275 16.5204H4.40282C4.13964 16.5204 3.92593 16.3039 3.92593 16.0377V15.9897C3.92593 15.7235 4.13964 15.507 4.40282 15.507H8.28275C8.54594 15.507 8.75991 15.7235 8.75991 15.9897V16.0377C8.75991 16.305 8.54698 16.5204 8.28275 16.5204ZM7.47998 18H5.20689C4.9437 18 4.72999 17.7835 4.72999 17.5172V17.469C4.72999 17.2028 4.9437 16.9866 5.20689 16.9866H7.47998C7.74317 16.9866 7.95688 17.203 7.95688 17.469V17.5172C7.95688 17.7835 7.74291 18 7.47998 18Z" fill="#0073F7"/>
</svg>
