<svg width="18" height="18" viewBox="0 0 18 18" fill="none" xmlns="http://www.w3.org/2000/svg">
    <path d="M15.5901 4.58125H2.25247C1.00914 4.58073 0.000522737 5.59469 0 6.84585V15.7938C0 16.9866 1.0081 18 2.25274 18H15.5901C16.8337 18.0005 17.8423 16.9866 17.8428 15.7354V6.78747C17.7838 5.59443 16.7757 4.58125 15.5901 4.58125ZM16.5582 15.7336C16.558 16.2711 16.1241 16.7073 15.5909 16.7073H2.25247C1.72765 16.7073 1.28437 16.2889 1.28437 15.7935V6.84769C1.28463 6.3102 1.7185 5.87369 2.25143 5.87369H15.5899C16.0729 5.87369 16.5193 6.31599 16.558 6.82639V15.7336H16.5582ZM12.1625 3.61462V2.37398C12.1625 1.80862 11.7054 1.34897 11.1434 1.34897H6.69809C6.13615 1.34897 5.67928 1.80889 5.67928 2.37398V3.55519H5.67849V3.61436H4.33846V2.37398C4.33898 1.06419 5.397 0 6.69731 0H11.1482L11.1565 0.000525916C11.7754 0.000525916 12.3672 0.247443 12.8125 0.695787C13.2564 1.13992 13.5049 1.74446 13.5028 2.37425V3.61462H12.1625Z" fill="#0073F7"/>
    <path d="M12.3756 9.98067H10.1229V7.71423H7.8704V9.98067H5.73633V12.2468H7.9888V14.5133H10.2415V12.2468H12.4943V9.98067H12.3756Z" fill="#0073F7"/>
</svg>
