<svg width="18" height="18" viewBox="0 0 18 18" fill="none" xmlns="http://www.w3.org/2000/svg">
    <path d="M16.6951 18H1.3049C0.585302 18 0 17.4147 0 16.6951V1.3049C0 0.585302 0.585574 0 1.3049 0H16.6951C17.4147 0 18 0.585302 18 1.3049V16.6951C18 17.4147 17.4147 18 16.6951 18ZM1.3049 1.3049V16.6951H16.6959L16.6951 1.3049H1.3049Z" fill="#0073F7"/>
    <path d="M5.82686 12.154C5.69311 12.154 5.55881 12.1062 5.45198 12.0094L2.69673 9.51054C2.58283 9.40724 2.5165 9.26152 2.51378 9.10765C2.51079 8.95378 2.57168 8.80562 2.68178 8.69824L5.43865 6.00525C5.65913 5.78995 6.01254 5.79402 6.22785 6.0145C6.44316 6.23497 6.43881 6.58838 6.21833 6.80369L3.88582 9.08183L6.20175 11.1824C6.43011 11.3896 6.44723 11.7425 6.24008 11.9705C6.13025 12.0923 5.97883 12.154 5.82686 12.154ZM7.75431 14.1019C7.70456 14.1019 7.65372 14.0951 7.60343 14.0809C7.30656 13.9975 7.13367 13.6895 7.21685 13.3929L9.76467 4.30562C9.84786 4.00903 10.1559 3.83586 10.4525 3.91905C10.7491 4.00223 10.9222 4.31024 10.839 4.60684L8.29122 13.6938C8.22244 13.9407 7.99816 14.1019 7.75431 14.1019ZM12.1733 12.154C12.0213 12.154 11.8699 12.0923 11.7598 11.9711C11.5527 11.7427 11.5701 11.3899 11.7981 11.183L14.1141 9.08237L11.781 6.80369C11.5605 6.58838 11.5565 6.23497 11.7718 6.0145C11.9871 5.7943 12.3405 5.78995 12.561 6.00525L15.3181 8.69824C15.4282 8.80562 15.4891 8.95378 15.4861 9.10765C15.4834 9.26152 15.4171 9.40724 15.3032 9.51054L12.5476 12.0094C12.4457 12.1024 12.3119 12.154 12.1733 12.154Z" fill="#0073F7"/>
</svg>
