<svg width="17" height="18" viewBox="0 0 17 18" fill="none" xmlns="http://www.w3.org/2000/svg">
    <mask id="mask0_353_1773" style="mask-type:luminance" maskUnits="userSpaceOnUse" x="0" y="0" width="17" height="18">
        <path d="M16.8462 0H0V18H16.8462V0Z" fill="white"/>
    </mask>
    <g mask="url(#mask0_353_1773)">
        <path d="M8.30021 15.4421V14.7432L8.20749 14.7391C7.34987 14.7019 6.58472 14.3027 6.04688 13.7903L6.45963 13.3421C6.94816 13.8021 7.52864 14.0687 8.23138 14.1555L8.34003 14.1692V11.8364L8.2527 11.7956C7.10201 11.518 6.22333 11.2236 6.22333 10.2173C6.22333 9.34218 7.02136 8.61093 8.20878 8.54235L8.29996 8.53696V7.83936H8.87042V8.56727L8.95775 8.576C9.61374 8.64047 10.2898 8.97797 10.7778 9.38764L10.3696 9.80194C10.0165 9.50451 9.48763 9.30134 8.98652 9.19706L8.86991 9.17266V11.304L8.95878 11.3471C9.90372 11.5863 11.0038 11.9322 11.0038 12.9936C11.0038 13.179 10.9673 13.5406 10.7254 13.8769C10.4118 14.312 9.76631 14.5693 8.99782 14.642L8.91023 14.6502V15.4357L8.30021 15.4421ZM8.9128 14.1404L9.12239 14.1214C10.1845 13.9418 10.2993 13.2984 10.2993 13.0305C10.2993 12.3468 9.54234 12.1084 9.13549 11.9803L8.91306 11.9407V14.1404H8.9128ZM8.24037 9.12386C7.48215 9.16444 6.97256 9.57591 6.97256 10.1477C6.97256 10.7358 7.56254 10.9475 8.21982 11.1288L8.34234 11.1627V9.11847L8.24037 9.12386Z" fill="#0073F7"/>
    </g>
    <mask id="mask1_353_1773" style="mask-type:luminance" maskUnits="userSpaceOnUse" x="0" y="0" width="17" height="18">
        <path d="M16.8462 0H0V18H16.8462V0Z" fill="white"/>
    </mask>
    <g mask="url(#mask1_353_1773)">
        <path d="M15.9821 11.3884C14.8859 8.88336 11.7886 6.1754 11.6581 6.06007C11.616 6.02232 11.5741 5.99535 11.534 5.96838C11.4963 5.94321 11.4583 5.91804 11.4202 5.88567L11.3234 5.80117C11.5065 5.90905 11.6938 5.96119 11.9041 5.96119C12.3082 5.96119 12.6701 5.75982 12.8301 5.44903L12.8321 5.44364C14.2019 5.67917 15.01 6.07446 15.17 6.58841C15.2144 6.7772 15.3888 6.89946 15.6182 6.89946H15.7086C15.8283 6.87788 15.9359 6.80596 15.995 6.70913C16.0494 6.61924 16.0602 6.51675 16.0222 6.43045C15.9192 6.05674 15.6708 5.73516 15.2817 5.47086C14.8967 5.21042 14.3642 5.00006 13.6952 4.84389C14.1559 4.46658 14.4654 4.0623 14.5073 3.77643C14.5494 3.58585 14.3812 3.38473 14.1475 3.34338C14.0383 3.3236 13.9245 3.34877 13.8279 3.4117C13.7373 3.47103 13.67 3.55888 13.6492 3.65622C13.6153 3.83062 13.1208 4.31581 12.7464 4.54389L12.7001 4.50254C12.4874 4.24723 12.1908 4.10545 11.8625 4.10545C11.5977 4.10545 11.3535 4.19329 11.1873 4.34638C11.263 4.25314 11.3262 4.2028 11.3493 4.19355H11.3663L11.5787 4.00836C11.7364 3.90588 11.8985 3.80186 12.0585 3.66162C12.9043 3.08653 13.7776 2.48987 13.988 1.97771C14.0635 1.81436 14.1082 1.70288 14.112 1.62377C14.2279 1.36153 14.177 1.15117 13.971 1.05793C13.8911 0.987815 13.7984 0.91076 13.5816 0.91076C13.4198 0.91076 13.2976 0.942866 13.0851 1.01684C12.6349 1.16247 12.2856 1.19817 12.0457 1.12112C11.8099 1.01864 11.57 0.878397 11.3365 0.743551C10.84 0.430709 10.3394 0.145092 9.67238 0.114527C9.17152 0.083962 8.7675 0.215212 8.37606 0.342609C8.32161 0.358791 8.2669 0.377027 8.21193 0.39475L8.13205 0.423517C7.77015 0.549373 7.42726 0.669578 6.95389 0.669578C6.46125 0.669578 5.88488 0.594322 5.48522 0.531393H5.48111C5.3044 0.51701 5.14233 0.497232 4.98436 0.478996C4.76347 0.452027 4.55311 0.426856 4.35945 0.426856C4.24361 0.426856 4.14061 0.426856 4.07743 0.453825C4.01219 0.419664 3.94695 0.358534 3.88171 0.272233C3.87529 0.263243 3.86707 0.252455 3.86091 0.243465C3.78719 0.14278 3.68625 0.00793457 3.43993 0.00793457C3.34335 0.00793457 3.21056 0.0834483 3.12426 0.158962L3.1199 0.164356C2.98299 0.320777 2.98942 0.333363 3.23137 1.0379L3.26938 1.13473C3.26938 1.1671 3.27169 1.20845 3.30919 1.248V1.27497C3.47332 2.03139 3.71938 2.54561 4.07923 2.89415L4.08128 2.89595C4.11904 2.92985 4.15911 2.973 4.19686 3.01436C4.23693 3.05751 4.277 3.10246 4.31887 3.13841C4.66176 3.50134 5.17315 4.04586 5.41741 4.59218C5.3794 4.59218 5.33522 4.59578 5.26382 4.62634C5.21322 4.62814 5.16698 4.64073 5.12897 4.64972C5.10817 4.65511 5.08505 4.6605 5.07657 4.6605H5.06604C4.95662 4.67848 4.8621 4.73602 4.80303 4.81872C4.74524 4.89783 4.72443 4.99826 4.74627 5.09355C4.76912 5.18884 4.83257 5.26975 4.92914 5.32189C5.02186 5.37223 5.13103 5.39021 5.24044 5.37223C5.28668 5.37043 5.32058 5.36144 5.35192 5.35246C5.3794 5.34526 5.40457 5.33807 5.43616 5.33807C5.46775 5.33807 5.50551 5.33807 5.54558 5.32009C5.54147 5.52326 5.49729 5.67429 5.39635 5.82146C5.35423 5.85588 5.32469 5.89158 5.29541 5.92574C5.26818 5.9599 5.23865 5.99227 5.20294 6.02463C3.25525 7.47686 1.75911 9.33131 0.877601 11.3889C0.0633882 13.2436 -0.00390625 14.0144 -0.00390625 14.7028C-0.00390625 15.1017 -0.00390625 15.9303 0.606368 16.6382C1.3407 17.4881 2.73591 17.9265 4.75346 17.9412C8.58719 17.9753 9.35954 17.9753 11.4236 17.9753H12.0631C14.0368 17.9609 15.413 17.5261 16.1555 16.6849C16.7658 15.9914 16.8035 15.1772 16.8225 14.7406L16.8246 14.7028C16.8238 14.0265 16.7586 13.2126 15.9821 11.3884ZM11.8538 4.49663C12.3023 4.49663 12.666 4.73936 12.666 5.03884C12.666 5.33833 12.3023 5.58105 11.8538 5.58105C11.4051 5.58105 11.0416 5.33833 11.0416 5.03884C11.0419 4.73936 11.4053 4.49663 11.8538 4.49663ZM4.88162 2.60674L4.85311 2.57643L4.82127 2.54946C4.81048 2.53918 4.79635 2.52275 4.78197 2.50708L4.76502 2.48859C4.71544 2.43336 4.6633 2.38019 4.60911 2.3296C4.39412 2.11641 4.22871 1.77275 4.10568 1.28293L4.29806 1.201C4.31784 1.20074 4.34044 1.20074 4.35945 1.20074C4.51048 1.20074 4.70363 1.22437 4.89061 1.24698L4.97178 1.25622C5.10611 1.27163 5.24455 1.28781 5.39815 1.30066C6.00688 1.39518 6.53008 1.44321 6.95389 1.44321C7.55491 1.44321 7.99284 1.2909 8.3794 1.15656L8.46365 1.12626C8.50885 1.11136 8.55303 1.09698 8.59695 1.08388L8.61621 1.07771C8.9365 0.973431 9.21313 0.883277 9.52572 0.883277C9.55834 0.883277 9.59147 0.884304 9.62537 0.886359L9.63693 0.886873C10.1129 0.908705 10.4858 1.12138 10.9245 1.39749L10.9502 1.4129L10.9818 1.43114C11.2227 1.57035 11.4721 1.71418 11.7374 1.82977L11.7726 1.84492L11.8091 1.85674C11.9678 1.90759 12.1435 1.93353 12.3315 1.93353C12.5912 1.93353 12.8786 1.88602 13.2074 1.78816C12.9475 2.12103 12.1014 2.69638 11.6237 3.02103L11.5844 3.04775L11.5487 3.07882C11.4351 3.17848 11.3126 3.25785 11.1708 3.35006L11.1118 3.38859L10.9525 3.52754C10.8621 3.58019 10.7347 3.84835 10.587 4.03071H6.0002C5.69301 3.37934 5.22452 2.96966 4.88162 2.60674ZM6.29353 5.10896L6.26322 4.8046H10.6184C10.6184 4.8046 10.5585 5.02574 10.567 5.18268C10.578 5.38764 10.7149 5.61059 10.7149 5.61059L6.20311 5.57951C6.21339 5.51067 6.32178 5.2998 6.29353 5.10896ZM16.0487 14.7066C16.033 15.0714 16.0063 15.6816 15.5737 16.1733C14.9917 16.8323 13.7763 17.1881 12.0595 17.2009H11.4228C9.36108 17.2009 8.58976 17.2009 4.75936 17.1668C2.99841 17.1544 1.76502 16.7964 1.19096 16.1319C0.76921 15.6421 0.76921 15.0537 0.76921 14.7023C0.76921 14.0997 0.831625 13.4168 1.58548 11.6995C2.41587 9.76153 3.82572 8.01573 5.66527 6.64492L5.69481 6.62283L5.72229 6.59817C5.7824 6.54372 5.83839 6.48465 5.8895 6.42146L5.90055 6.40862L5.97118 6.35134L10.8146 6.38473L10.9114 6.46924C10.9731 6.52163 11.038 6.56966 11.1061 6.61358L11.1161 6.62026C11.1264 6.6272 11.1372 6.63388 11.148 6.6421C11.4706 6.92643 14.2869 9.44586 15.2732 11.6987C15.9811 13.3618 16.0484 14.0882 16.0499 14.6807L16.0487 14.7066Z" fill="#0073F7"/>
    </g>
</svg>
