<svg width="28" height="28" viewBox="0 0 28 28" fill="none" xmlns="http://www.w3.org/2000/svg">
    <path d="M13.9998 0C21.7316 0 28 6.26839 28 13.9998C28 21.7316 21.732 28 13.9998 28C6.26798 28 0 21.7316 0 13.9998C0 6.26839 6.26798 0 13.9998 0ZM21.0413 10.4565C20.6308 10.0471 19.9663 10.048 19.5566 10.4585L15.074 14.9538L12.3904 12.0298C12.1943 11.8165 11.9191 11.6935 11.6295 11.6898C11.3399 11.6861 11.0619 11.8026 10.8605 12.011L6.94391 16.0707C6.54114 16.4882 6.55344 17.1527 6.97057 17.5554C7.38811 17.9582 8.05256 17.9463 8.45533 17.5288L11.5975 14.2717L14.2689 17.1822C14.4625 17.3934 14.7344 17.5165 15.0207 17.5222C15.3074 17.5284 15.5838 17.4168 15.786 17.2138L21.043 11.9408C21.4527 11.5307 21.4519 10.8662 21.0413 10.4565Z" fill="#F76800"/>
</svg>
