<svg width="52" height="52" viewBox="0 0 52 52" fill="none" xmlns="http://www.w3.org/2000/svg">
<path d="M34.6667 0H17.3333C7.7604 0 0 7.7604 0 17.3333V34.6667C0 44.2396 7.7604 52 17.3333 52H34.6667C44.2396 52 52 44.2396 52 34.6667V17.3333C52 7.7604 44.2396 0 34.6667 0Z" fill="#2F96F9"/>
<path d="M36.0408 22.274C36.0408 22.2376 36.0469 22.202 36.0469 22.1648C36.0481 19.9317 35.2318 17.7753 33.7521 16.1029C32.2724 14.4304 30.2316 13.3574 28.0149 13.0866C25.7983 12.8157 23.5592 13.3656 21.7203 14.6325C19.8814 15.8995 18.5698 17.7958 18.0332 19.9635C16.1599 20.4535 14.5295 21.6098 13.4475 23.2156C12.3654 24.8214 11.9059 26.7666 12.155 28.6869C12.4042 30.6071 13.3449 32.3707 14.8009 33.6473C16.2569 34.9238 18.1283 35.6257 20.0647 35.6215H33.8612C35.4907 35.6286 37.0694 35.0542 38.3134 34.0016C39.5574 32.9489 40.3852 31.4871 40.648 29.8789C40.9107 28.2706 40.5912 26.6213 39.7469 25.2275C38.9026 23.8337 37.5888 22.7868 36.0417 22.2748L36.0408 22.274ZM26.1608 30.4787C25.4471 30.5185 24.7328 30.4096 24.0634 30.1588C23.394 29.908 22.784 29.5208 22.2721 29.0218C21.3678 27.997 20.8772 26.6723 20.8958 25.3056L21.6351 25.3359L22.3744 25.3645C22.371 26.3335 22.7168 27.2713 23.3485 28.0061C23.7244 28.3555 24.168 28.6241 24.652 28.7951C25.1359 28.966 25.6497 29.0359 26.1617 29.0002C26.6804 29.0433 27.2024 28.9807 27.6961 28.8161C28.1899 28.6514 28.645 28.3882 29.034 28.0424C29.423 27.6966 29.7377 27.2755 29.9591 26.8044C30.1804 26.3334 30.3038 25.8223 30.3217 25.3021L31.8002 25.3671C31.774 26.0758 31.6064 26.772 31.3071 27.4149C31.0079 28.0578 30.5831 28.6344 30.0577 29.1106C29.5323 29.5869 28.917 29.9533 28.2479 30.1883C27.5788 30.4232 26.8695 30.522 26.1617 30.4787H26.1608Z" fill="white"/>
</svg>
