<svg width="24" height="24" viewBox="0 0 24 24" fill="none" xmlns="http://www.w3.org/2000/svg">
  <path fill-rule="evenodd" clip-rule="evenodd"
    d="M15.9778 7.99414L14.5446 14.5434L9.18987 15.7151L8.02588 16.0076L9.45909 9.45786L14.814 8.2861L15.9778 7.99414ZM10 14.0025L13.2849 13.2837L14.0037 9.99881L10.7188 10.7176L10 14.0025Z"
    fill="#506cfa" />
  <path fill-rule="evenodd" clip-rule="evenodd"
    d="M12.0023 3.50113C7.3082 3.50113 3.50284 7.30649 3.50284 12.0006C3.50284 16.6948 7.3082 20.5001 12.0023 20.5001C16.6965 20.5001 20.5018 16.6948 20.5018 12.0006C20.5018 7.30649 16.6965 3.50113 12.0023 3.50113ZM2.00293 12.0006C2.00293 6.47811 6.47982 2.00122 12.0023 2.00122C17.5249 2.00122 22.0018 6.47811 22.0018 12.0006C22.0018 17.5232 17.5249 22 12.0023 22C6.47982 22 2.00293 17.5232 2.00293 12.0006Z"
    fill="#506cfa" />
</svg>
