<svg width="24" height="24" viewBox="0 0 24 24" fill="none" xmlns="http://www.w3.org/2000/svg">
  <path
    d="M7.48047 18.35L10.5805 20.75C10.9805 21.15 11.8805 21.35 12.4805 21.35H16.2805C17.4805 21.35 18.7805 20.45 19.0805 19.25L21.4805 11.95C21.9805 10.55 21.0805 9.34997 19.5805 9.34997H15.5805C14.9805 9.34997 14.4805 8.84997 14.5805 8.14997L15.0805 4.94997C15.2805 4.04997 14.6805 3.04997 13.7805 2.74997C12.9805 2.44997 11.9805 2.84997 11.5805 3.44997L7.48047 9.54997"
    stroke="#506cfa" stroke-width="1.5" stroke-miterlimit="10" />
  <path
    d="M2.37988 18.3499V8.5499C2.37988 7.1499 2.97988 6.6499 4.37988 6.6499H5.37988C6.77988 6.6499 7.37988 7.1499 7.37988 8.5499V18.3499C7.37988 19.7499 6.77988 20.2499 5.37988 20.2499H4.37988C2.97988 20.2499 2.37988 19.7499 2.37988 18.3499Z"
    stroke="#506cfa" stroke-width="1.5" stroke-linecap="round" stroke-linejoin="round" />
</svg>
