<svg width="25" height="24" viewBox="0 0 25 24" fill="none" xmlns="http://www.w3.org/2000/svg">
  <path
    d="M8 10.5H8.01M12.5 10.5H12.51M17 10.5H17.01M10.4 19.2L11.86 21.1467C12.0771 21.4362 12.1857 21.5809 12.3188 21.6327C12.4353 21.678 12.5647 21.678 12.6812 21.6327C12.8143 21.5809 12.9229 21.4362 13.14 21.1467L14.6 19.2C14.8931 18.8091 15.0397 18.6137 15.2185 18.4645C15.4569 18.2656 15.7383 18.1248 16.0405 18.0535C16.2671 18 16.5114 18 17 18C18.3978 18 19.0967 18 19.6481 17.7716C20.3831 17.4672 20.9672 16.8831 21.2716 16.1481C21.5 15.5967 21.5 14.8978 21.5 13.5V7.8C21.5 6.11984 21.5 5.27976 21.173 4.63803C20.8854 4.07354 20.4265 3.6146 19.862 3.32698C19.2202 3 18.3802 3 16.7 3H8.3C6.61984 3 5.77976 3 5.13803 3.32698C4.57354 3.6146 4.1146 4.07354 3.82698 4.63803C3.5 5.27976 3.5 6.11984 3.5 7.8V13.5C3.5 14.8978 3.5 15.5967 3.72836 16.1481C4.03284 16.8831 4.61687 17.4672 5.35195 17.7716C5.90326 18 6.60218 18 8 18C8.48858 18 8.73287 18 8.95951 18.0535C9.26169 18.1248 9.54312 18.2656 9.7815 18.4645C9.96028 18.6137 10.1069 18.8091 10.4 19.2ZM8.5 10.5C8.5 10.7761 8.27614 11 8 11C7.72386 11 7.5 10.7761 7.5 10.5C7.5 10.2239 7.72386 10 8 10C8.27614 10 8.5 10.2239 8.5 10.5ZM13 10.5C13 10.7761 12.7761 11 12.5 11C12.2239 11 12 10.7761 12 10.5C12 10.2239 12.2239 10 12.5 10C12.7761 10 13 10.2239 13 10.5ZM17.5 10.5C17.5 10.7761 17.2761 11 17 11C16.7239 11 16.5 10.7761 16.5 10.5C16.5 10.2239 16.7239 10 17 10C17.2761 10 17.5 10.2239 17.5 10.5Z"
    stroke="#424A57" stroke-width="2" stroke-linecap="round" stroke-linejoin="round" />
</svg>
