<?xml version="1.0" encoding="UTF-8"?>
<svg id="_图层_1" data-name="图层 1" xmlns="http://www.w3.org/2000/svg" viewBox="0 0 48 48">
  <defs>
    <style>
      .cls-1 {
        fill: #fff;
      }

      .cls-2 {
        fill: #acacac;
      }

      .cls-3 {
        fill: #d3d3d3;
      }

      .cls-4 {
        fill: #afafaf;
      }
    </style>
  </defs>
  <path class="cls-2" d="m10.05,7.34c-.13,0-.23-.02-.31-.17-.13-.25-.32-.31-.52-.22-.04.02-.09.03-.09.08,0,.23-.27.22-.35.39,0,.01-.07,0-.1,0,.01-.06.04-.1.09-.14.01-.13.1-.2.21-.25.11-.12.21-.25.32-.37.06-.07.13-.11.21-.02.13.04.17.15.21.26.07.09.12.19.21.26.06.04.15.05.14.15,0,0-.01.02-.02.03Z"/>
  <path class="cls-2" d="m8.16,8.11c.07.13.07.25-.1.3-.07.02-.11.07-.11.14-.02.25-.2.42-.33.61-.06.09-.16.11-.27.11-.07-.1.04-.12.08-.17.23-.33.46-.66.69-.98,0-.03.02-.04.04,0Z"/>
  <path class="cls-1" d="m5.03,26.29c.14.26.2.55.29.83-.12,0-.2-.07-.21-.2,0-.09-.04-.16-.09-.24-.09-.13-.1-.26,0-.39Z"/>
  <path class="cls-1" d="m4.88,14.82c-.07.27-.14.54-.21.82-.02-.01-.04-.02-.05-.04-.11-.15.09-.72.26-.78Z"/>
  <path class="cls-1" d="m7.25,9.4c-.08.17-.17.33-.29.48-.13-.17.02-.43.29-.48Z"/>
  <path class="cls-1" d="m8.34,32.74c.19.12.28.32.41.48-.24-.03-.41-.23-.41-.48Z"/>
  <path class="cls-1" d="m5.28,13.53c-.04.16-.09.33-.17.48-.12-.31-.09-.4.17-.48Z"/>
  <path class="cls-2" d="m8.59,7.51c.02.31-.02.37-.25.35.05-.14.15-.24.25-.35Z"/>
  <path class="cls-1" d="m6.78,10.22c-.07.12-.14.23-.2.35-.06-.27-.04-.31.2-.35Z"/>
  <path class="cls-1" d="m6.01,11.68c-.02.11-.06.21-.13.3-.13-.18-.1-.25.13-.3Z"/>
  <path class="cls-1" d="m5.49,12.93c-.02.12-.06.24-.12.34-.11-.24-.1-.28.12-.34Z"/>
  <path class="cls-1" d="m4.89,25.78c.04.13.08.26.12.39-.32-.05-.13-.24-.12-.39Z"/>
  <path class="cls-1" d="m6.67,30.13c.07.08.11.17.15.26-.09,0-.18-.01-.22-.11-.03-.07,0-.12.07-.15Z"/>
  <path class="cls-1" d="m7.22,31.07c.07.08.13.16.16.26-.25-.04-.28-.1-.16-.26Z"/>
  <path class="cls-1" d="m6.84,30.43c.05.09.11.17.16.26-.09,0-.18-.01-.22-.11-.03-.07,0-.12.07-.15Z"/>
  <path class="cls-1" d="m5.71,28.15c.07.09.1.19.12.3-.22-.07-.24-.11-.12-.3Z"/>
  <path class="cls-1" d="m9.71,33.61c.07-.09.14-.17.22-.26.06.24,0,.29-.22.26Z"/>
  <path class="cls-1" d="m9.97,33.31c.07-.09.14-.17.22-.26.04.24,0,.28-.22.26Z"/>
  <path class="cls-1" d="m8.16,8.11s-.02,0-.04,0c-.06-.19.01-.27.2-.27-.06.09-.11.17-.17.26Z"/>
  <path class="cls-1" d="m7.43,9.1c-.03.06-.05.11-.08.17-.02.01-.03.03-.05.04-.1-.15-.09-.17.13-.22Z"/>
  <path class="cls-1" d="m10.14,7.42s-.06-.06-.09-.08c-.04-.06-.09-.11-.13-.17.19-.01.28.06.22.26Z"/>
  <path class="cls-1" d="m8.97,7.04c-.05.1-.12.18-.21.25-.06-.19.03-.25.21-.25Z"/>
  <path class="cls-1" d="m9.71,6.91c-.07-.09-.14-.17-.21-.26.2-.02.22.11.21.26Z"/>
  <g>
    <path class="cls-3" d="m26.98,40.17c-.11-.15-.21-.31-.32-.46-.11-.06-.12-.17-.12-.28-.08-.33-.14-.66-.21-.99-.1-.47-.2-.93-.29-1.4-.25-1.23-.5-2.46-.74-3.68-.18-.92-.39-1.83-.55-2.75-.07-.43.05-.85.32-1.21.36-.49.87-.69,1.46-.69.77,0,1.55.04,2.32.05.85.02,1.7.05,2.56.09.76.03,1.51.05,2.27.09.75.03,1.5.06,2.24.09.73.03,1.47.06,2.2.09.7.03,1.39.06,2.09.09.71.03,1.42.06,2.13.09.24,0,.49.03.73.03.1,0,.15-.02.17-.15.06-.45.12-.91.22-1.35.23-1.01,1.14-1.72,2.17-1.72.64,0,1.24.19,1.84.35.39.1.63.59.51.96-.15.49-.56.74-1.01.64-.41-.1-.82-.19-1.23-.28-.27-.06-.64.22-.68.51-.12.87-.24,1.74-.36,2.6-.13.87-.27,1.73-.39,2.6-.1.66-.18,1.31-.28,1.97-.11.79-.24,1.57-.35,2.36-.11.83-.24,1.66-.36,2.5-.1.72-.18,1.45-.33,2.17-.15.69-.54,1.23-1.11,1.66-.52.4-1.13.55-1.76.6-.33.03-.68-.06-1.02-.03-.19.05-.38,0-.58.01-.33.01-.66-.02-.99.02-.46.03-.92.08-1.38.04-.22-.02-.45-.03-.67,0-.34-.02-.68.09-1.02.04-.34-.02-.69-.03-1.03,0-.12,0-.24,0-.36.01-.08.04-.16.09-.26.03-.06-.03-.12-.03-.19,0-.18,0-.35,0-.53,0-.23-.02-.45-.03-.67,0-.15,0-.3,0-.45.01-.09.1-.19.02-.29.02-.09,0-.19,0-.29,0-.35.01-.69-.02-1.04.02-.12,0-.24,0-.36.01-.17.11-.36.04-.54.06-.4,0-.8-.06-1.2-.06-.38-.11-.68-.48-.7-.84,0-.19.35-.67.57-.74.19-.06.39-.09.59-.09.2-.12.41.04.62-.01.35-.01.69.02,1.04-.02.13,0,.27,0,.4-.01.08-.08.16-.04.24-.02.12.03.25,0,.37,0,.35-.01.69.02,1.04-.02.12,0,.24,0,.36-.01.13-.1.27-.02.4,0,.58.04,1.15-.02,1.73-.04.15,0,.31,0,.46,0,.29-.04.57,0,.86-.02.09,0,.18.02.26-.02.12,0,.24,0,.36-.01.09-.07.18-.1.29-.04.1.05.22.02.33.03.35-.01.7.02,1.04-.02.15,0,.3,0,.45-.01.16-.11.33.03.49-.01.35,0,.69.02,1.04-.01.13,0,.26.01.4.03.58.07,1.06-.18,1.39-.69.02-.03.06-.09.02-.12-.04-.03-.1-.03-.15-.02-.35.08-.69.05-1.02-.06-.12-.04-.26.1-.37-.03-.82-.06-1.64-.12-2.46-.19-.11.01-.22.07-.31-.04-.61-.05-1.22-.09-1.83-.14-.11.01-.22.07-.31-.04-.07,0-.15,0-.22,0-.11,0-.22.05-.31-.04-.61-.05-1.22-.1-1.83-.14-.1.04-.18.02-.27-.04l-1.25-.1c-.08.03-.16.03-.22-.03-.58-.05-1.16-.08-1.74-.15-.25-.03-.5-.12-.75-.18-.11,0-.23,0-.28-.12-.19-.07-.34-.21-.51-.32-.21-.08-.35-.22-.43-.43Z"/>
    <path class="cls-4" d="m43.11,13.45c.08.26.18.53.26.79.08.26.17.51.21.78.02.13.06.25.09.37.06.09.14.18.08.3,0,.03,0,.06.01.09.14.24.21.49.16.77,0,.18.02.37.1.53.04.09-.02.17.02.24.13.08.06.2.05.3,0,.01,0,.03,0,.04.12.1.01.24.04.35,0,.01,0,.03,0,.04.16.11,0,.27.04.39,0,.18,0,.36.02.53.01.12-.04.15-.14.15-.04,0-.09,0-.13,0-2.32,0-4.64,0-6.96,0-.3,0-.32-.01-.34-.31-.01-.17-.07-.34-.05-.51-.11-.09-.05-.2-.04-.31-.06-.42-.12-.83-.18-1.25-.07-.18-.15-.36-.18-.56,0-.08,0-.14.02-.21-.02-.1-.04-.2-.06-.3-.09-.1-.15-.2-.08-.34-.03-.1-.05-.2-.08-.3-.13-.21-.16-.45-.17-.7-.02-.08-.04-.17-.05-.25-.17-.09-.08-.26-.12-.39-.02-.07-.03-.14-.05-.21-.15-.08-.1-.23-.12-.35l-.05-.2c-.16-.08-.1-.23-.12-.35-.05-.14-.09-.28-.14-.42-.19-.11-.12-.31-.17-.47-.01-.04-.03-.09-.04-.13-.13-.07-.13-.19-.12-.31-.03-.08-.06-.17-.1-.25-.16-.14-.21-.32-.21-.52,0-.03,0-.05,0-.08-.04-.06-.03-.12.03-.15.19-.1.31-.28.5-.38.15-.08.22-.24.35-.35.08-.07.14-.15.25-.19.14-.05.21-.16.2-.31.02-.04.06-.05.1-.08.33-.32.66-.63.98-.95.36-.24.63-.56.82-.95.01-.12.13-.17.18-.26.17-.07.3-.19.41-.34.12-.16.28-.24.48-.13.03.05.06.09.09.14.02.15.09.25.22.32.14.08.18.25.29.37.1.11.2.2.32.28l.04.04c0,.21.16.29.3.39.08.12.2.21.26.35-.04.2.11.27.25.34.02.01.03.03.05.04.02.01.03.03.05.04.01.19.08.34.29.39.03.03.04.07.04.11-.02.2.05.35.23.44.17.17.24.41.39.6.15.07.19.2.2.35.17.41.39.81.59,1.2.13.06.17.16.14.3.09.28.21.55.34.82.05.09.07.2.1.3.15.06.07.21.12.3Z"/>
    <path class="cls-4" d="m12.61,11.16c-.06.11-.1.23-.12.35-.05.1.03.24-.12.3-.11.32-.25.64-.32.98-.02.12.04.28-.12.35,0,.01,0,.03,0,.04-.04.13.06.3-.12.39-.02.07-.03.14-.05.21-.04.13.05.3-.12.39-.11.37-.22.74-.27,1.12.08.13-.01.21-.08.3-.14.55-.23,1.11-.31,1.68,0,.1.08.22-.05.3-.08.4-.12.8-.16,1.21-.03.33-.03.34-.37.34-2.4,0-4.8,0-7.2,0-.08-.07-.06-.14,0-.21,0-.06,0-.11,0-.17.04-.06.02-.13,0-.18-.04-.1-.03-.18.05-.25,0-.03,0-.05,0-.08.03-.11-.08-.25.04-.35.03-.23.06-.46.09-.68-.01-.1-.07-.22.04-.3h0c.02-.2-.03-.42.12-.6.02-.1.04-.2.05-.3-.06-.12.02-.21.07-.3,0-.02,0-.03,0-.05-.02-.3.04-.57.21-.82.08-.27.15-.54.23-.81,0-.18-.01-.36.17-.48.03-.09.06-.17.09-.26,0-.13-.02-.27.12-.34.13-.31.26-.63.39-.94-.04-.13.01-.23.13-.3.19-.37.37-.74.56-1.11.01-.15.05-.28.2-.35.06-.11.12-.23.19-.34,0-.22.13-.36.29-.48l.06-.08s0-.06.03-.08c.12-.02.2-.09.26-.19.11-.18.25-.34.31-.55.02-.06.05-.1.1-.13.1-.05.14-.14.13-.25-.02-.14.08-.2.18-.26h.02c.16-.05.2-.2.25-.34.03-.03.06-.06.09-.08.11-.17.31-.24.41-.44.11-.23.36-.22.54-.05.14.13.19.36.43.37.06.15.05.37.31.33.08.04.07.13.12.19.02.03.03.05.05.08.06.2.19.32.38.39.02.02.03.03.05.05.24.02.33.2.43.38,0,.21.15.28.31.35.04.03.08.07.12.1.04.19.22.23.36.3.19.1.24.32.41.44.1.07.23.06.31.15.11.07.22.15.34.22.14,0,.22.07.26.2.11.12.33.16.25.39.04.14,0,.23-.13.3Z"/>
    <path class="cls-4" d="m10.94,25.92c0,.19.04.38.09.56.09.2.21.4.13.64.05.38.16.75.26,1.12.14.16.19.35.16.56,0,.06.01.12.05.17.15.08.1.23.12.35.03.19.1.37.18.55.14.08.12.22.13.34.03.12-.03.18-.12.25-.24.18-.47.38-.7.57-.04.12-.1.22-.26.22-.53.45-1.03.92-1.47,1.45,0,.14-.09.19-.21.22-.05.03-.1.07-.13.13-.02.13-.07.23-.22.26-.01.02-.03.03-.04.05,0,.14-.07.23-.22.26-.03.03-.06.06-.08.1-.23.28-.25.28-.49,0-.13-.16-.26-.32-.38-.48-.19-.12-.32-.29-.41-.48-.32-.47-.64-.94-.96-1.41-.08-.07-.21-.11-.16-.26-.08-.13-.15-.26-.23-.39-.08-.07-.22-.11-.16-.26,0-.01-.01-.03-.02-.04-.09-.06-.2-.12-.15-.26-.14-.25-.31-.49-.41-.74-.13-.32-.31-.61-.41-.93-.12-.07-.14-.18-.12-.3-.13-.34-.26-.69-.39-1.03-.18-.25-.28-.52-.29-.83,0-.04,0-.08-.01-.12-.18-.09-.08-.26-.12-.39-.18-.53-.26-1.09-.39-1.63-.06-.08-.08-.17-.03-.26-.08-.28-.1-.57-.13-.86-.13-.1-.04-.23-.04-.35-.08-.15-.03-.31-.05-.47-.16-.12,0-.27-.04-.39,0-.07,0-.14,0-.21-.04-.07-.07-.14,0-.21,2.46,0,4.93,0,7.39,0,.15.25.1.53.06.8-.03.23-.05.45-.02.67v.29c.09.07.11.16.06.26-.04.07-.05.14-.01.22,0,.67.12,1.32.2,1.98.13.08.06.19.05.3Z"/>
    <path class="cls-4" d="m15.68,28.23s-.09.03-.13.05c-.18-.05-.3.03-.39.18-.16.1-.33.2-.52.26-.12-.02-.22.03-.31.09-.18.11-.23.1-.31-.1-.05-.11-.09-.22-.2-.29-.01-.02-.02-.03-.03-.05.07-.29-.01-.57-.2-.68,0-.03,0-.06,0-.09,0-.19.03-.38-.14-.52,0-.03,0-.06-.01-.09,0-.02-.01-.04,0-.06.12-.14.02-.23-.07-.33,0-.01-.02-.03-.03-.04.07-.06.08-.14.05-.22-.04-.12-.09-.24-.07-.38.02-.11-.12-.15-.11-.26,0-.03,0-.06,0-.09.04-.33.01-.65-.17-.94.04-.14,0-.27-.03-.4.04-.13.14-.27-.04-.37-.01-.05.03-.1-.01-.14-.04-.31-.04-.63-.05-.94-.05-.06-.09-.13-.07-.21.1-.3.03-.61.05-.91,0-.1-.02-.2.02-.29,3.22,0,6.45,0,9.67,0,.04.05.02.11.02.17,0,1.6,0,3.2,0,4.8,0,.05,0,.1-.02.15.02.17-.07.21-.23.22-1.08.05-2.15.19-3.21.41-1.06.21-2.09.55-3.1.92-.16-.05-.26.04-.34.16Z"/>
    <path class="cls-4" d="m33.35,13.87c.02.06.03.12.05.17.04.08.15.14.08.26.12.49.24.98.36,1.47.16.65.26,1.31.37,1.97.14.09.1.22.08.34.03.27.02.55.1.82.03.11-.02.22-.2.22-3.04,0-6.09,0-9.13,0-.18,0-.23-.06-.23-.24,0-1.63,0-3.27,0-4.9,0-.13.02-.23.17-.24.11-.12.24,0,.35-.04.14-.01.28-.03.42-.04.09-.09.2-.06.31-.04.39-.02.78-.11,1.16-.18.11-.03.2-.16.34-.08.28-.03.55-.12.82-.18.08-.04.14-.15.25-.08h.04c.07-.08.14-.15.26-.09.23-.07.46-.15.69-.22.06-.15.2-.08.3-.12.27-.16.57-.23.86-.35.05-.12.16-.1.26-.12.11-.06.23-.11.34-.17.16-.19.38-.26.61-.3.01,0,.02-.02.04-.02q.41-.23.61.19c.12.05.1.17.11.27,0,.03.01.05.02.08.15.06.09.2.12.3.12.36.23.72.35,1.07.09.07.14.15.08.26Z"/>
    <path class="cls-4" d="m17.99,13.09c.38.13.78.17,1.16.27.17-.05.32,0,.47.08.23.08.47.12.71.14.36.04.72.13,1.1.12.13.06.27-.1.39.04.06,0,.11,0,.17,0,.08.03.17.03.25,0,.09-.04.16-.02.23.04h.08s.03.1.03.15c0,1.68,0,3.36,0,5.04,0,.05.01.1-.03.14-3.07,0-6.15,0-9.22,0-.04,0-.07,0-.11,0-.1-.11-.13-.2-.12-.38.02-.41.25-.78.17-1.19-.01-.07-.05-.13-.07-.19-.01-.04-.01-.09,0-.13.28-.14.29-.42.31-.68.03-.3.18-.59.07-.89,0-.02.02-.04.03-.05.18-.18.21-.4.2-.64,0-.11.02-.19.09-.29.17-.23.22-.52.24-.81,0-.05-.03-.1.02-.16.26-.3.31-.68.42-1.04.03-.09-.02-.17-.02-.25,0-.01,0-.03,0-.04.21-.16.22-.21.13-.39.05-.11.13-.08.21-.04.13.06.25.12.38.18.06.11.14.19.27.23.26.07.49.24.75.3.09.02.17.07.26.02.27.08.55.17.82.25.22-.03.42.05.6.17Z"/>
    <path class="cls-4" d="m15.2,31.81c-.05-.1-.1-.2-.15-.3-.15-.3-.14-.32.15-.5.11.04.15-.04.21-.1.44-.25.89-.49,1.36-.68.07-.03.13-.06.19-.09.08-.1.16-.17.3-.12.67-.2,1.33-.44,2.01-.58.74-.15,1.48-.31,2.24-.34.09-.16.22-.1.34-.05.16.04.32-.05.48-.03.14-.04.24-.05.24.16,0,3.22,0,6.43,0,9.65,0,.04,0,.09-.02.13-.07.19-.15.03-.22,0-.07-.1-.17-.15-.29-.14-.06-.03-.12-.05-.18-.08-.13.04-.19-.06-.26-.13-.74-.48-1.47-.99-2.16-1.54-.14,0-.2-.09-.25-.21-.04-.04-.08-.07-.12-.11-.14,0-.19-.08-.23-.2-.33-.33-.66-.66-.99-.99-.11-.03-.2-.09-.2-.23-.4-.43-.75-.92-1.13-1.37-.11-.07-.22-.15-.21-.31-.07-.11-.15-.22-.22-.34-.05-.15-.09-.31-.25-.39-.08-.13-.15-.26-.23-.39-.08-.07-.18-.12-.16-.26-.02-.04-.04-.09-.06-.13-.04-.03-.09-.06-.09-.11.01-.08.02-.15-.08-.19-.01-.01-.02-.03-.04-.04Z"/>
    <path class="cls-4" d="m15.67,9.7c.09-.17.18-.34.27-.52.2-.1.32-.24.29-.48.01-.03.03-.05.04-.08.24-.17.37-.4.39-.69.03-.12.11-.21.18-.3.14-.06.23-.14.2-.31.09-.22.25-.41.39-.6.28-.23.48-.52.69-.8.2-.27.41-.53.63-.79.07-.08.07-.18.11-.26h0c.15-.06.3-.11.29-.31.29-.37.62-.7.99-.99.19,0,.27-.13.31-.29.01-.01.03-.03.04-.04.18-.03.29-.13.34-.29.03-.02.05-.04.08-.05.31-.14.54-.4.81-.59.12-.08.27-.12.31-.28.16-.14.33-.25.52-.34.04.06.02.13.02.19,0,3.14,0,6.29,0,9.43,0,.06.01.13-.02.19-.13.08-.28.05-.42.04-.9-.07-1.78-.24-2.66-.39-.28-.05-.55-.14-.83-.21-.13-.05-.3.05-.39-.12-.68-.19-1.34-.43-1.98-.74-.23.03-.39-.14-.57-.22-.06-.03-.08-.1-.04-.16Z"/>
    <path class="cls-4" d="m27.89,10.99c-.21.05-.42.12-.65.13-.15-.01-.3,0-.43.09-.18.1-.39.03-.59.09-.07.02-.13.03-.19.08-.1.12-.23.02-.34.05-.13-.08-.22.09-.34.04-.15.05-.29.09-.41-.05-.04-.22-.02-.44-.02-.66,0-2.87,0-5.75,0-8.62,0-.11-.07-.27.13-.3.64.38,1.21.85,1.77,1.33,1.89,1.64,3.36,3.61,4.53,5.82.04.07.07.14.1.21.07.15.06.28-.12.34-.11.05-.23.06-.3.17-.21.15-.44.26-.69.35-.09.03-.18.06-.24.14-.02,0-.04,0-.06,0-.03.01-.06.02-.09.03-.11,0-.18.06-.24.14-.02,0-.04,0-.06,0-.21.09-.42.21-.65.25-.26.04-.52.07-.73.25-.04.02-.09.04-.13.06-.08.04-.15.1-.26.08Z"/>
    <path class="cls-4" d="m34.43,23.94c-.02.46-.1.92-.18,1.38-.01.06-.01.16-.1.13-.25-.09-.5,0-.75-.03-.58-.07-1.17-.07-1.75-.1-.67-.04-1.34-.08-2.01-.12-.28-.02-.56-.03-.83-.04-.44,0-.87-.09-1.3-.15-.85-.12-1.67,0-2.46.34-.19.08-.21.03-.21-.15,0-1.18,0-2.37,0-3.55,0-.15.01-.26.21-.26,3.13,0,6.26,0,9.4,0,.02,0,.04,0,.06,0-.11.46.06.91.02,1.36,0,.11-.01.21.02.32-.11.15-.06.33-.07.49.04.13.06.25-.06.35Z"/>
    <path class="cls-4" d="m44.14,22.48c-.03.53-.16,1.03-.25,1.55.09.1.03.18-.05.26-.1.45-.21.91-.31,1.36-.07.27-.08.27-.36.24-.4-.05-.81-.07-1.22-.02-.33.04-.67.04-1.01-.02-.26-.04-.53-.01-.79-.04-.39-.04-.78-.03-1.18-.05-.61-.04-1.22-.08-1.84-.12-.13,0-.26,0-.39,0-.21,0-.22-.03-.2-.24.05-.48.14-.95.15-1.43.04-.13-.11-.28.04-.39,0-.06,0-.11,0-.17.03-.1.04-.2,0-.29-.05-.11-.02-.19.04-.27,0-.06,0-.11,0-.17.04-.34,0-.68.02-1.02,0-.08-.02-.16.02-.23,2.38,0,4.77,0,7.15,0,.16,0,.24.03.21.22-.03.15,0,.31-.01.47-.04.13.12.28-.04.39Z"/>
    <path class="cls-4" d="m10.98,4.11s.09-.06.14-.09c.04-.12.15-.16.25-.21.02-.02.03-.03.05-.05.08-.11.17-.19.31-.21.29-.25.64-.42.94-.65.06-.07.1-.15.22-.12.24-.15.48-.29.73-.44.05-.08.11-.16.22-.11.14-.08.28-.15.43-.23.16-.17.35-.29.6-.29.31-.15.61-.33.95-.42.14.07.22,0,.3-.1.04-.02.08-.03.13-.05.26,0,.5-.07.69-.26.21-.08.42-.17.64-.21.15.04.29-.02.42-.07.39-.13.82-.12,1.17-.36.27-.09.54-.13.82-.17.08.03.16.05.25.03.07-.01.14,0,.17.07.03.07,0,.13-.05.17-.23.2-.5.37-.73.57-.17.15-.39.24-.47.48h0c-.17.03-.28.13-.34.3-.05.05-.11.1-.16.14-.2.03-.29.16-.36.33-.22.22-.44.44-.65.65-.15.08-.33.14-.33.36-.02.02-.04.05-.06.07-.24.06-.28.31-.45.44-.13.11-.26.26-.37.41-.07.1-.13.2-.12.32-.04.18-.16.3-.31.41-.06.04-.09.1-.12.17-.02.12-.07.22-.2.27-.04.05-.09.09-.1.16-.04.17-.1.31-.27.39-.01.02-.02.03-.03.05.03.12-.05.17-.14.21-.3.41-.54.85-.78,1.28-.19.34-.37.68-.54,1.03-.07.15-.14.16-.27.07-.56-.42-1.12-.84-1.6-1.35-.28-.29-.56-.57-.85-.85-.1-.05-.2-.1-.2-.23l-.36-.42c-.11-.05-.19-.12-.21-.25q-.24-.34-.57-.09c-.1.08-.2.15-.31.22.2-.3.49-.5.75-.74.04-.11.13-.17.24-.21.09-.08.18-.15.27-.23.04-.12.15-.16.25-.2Z"/>
    <path class="cls-4" d="m35.37,6.29l-.1.1c-.17.06-.28.17-.33.35-.09.09-.17.17-.26.26-.18.07-.34.15-.35.38-.07.04-.12.13-.21.14-.23.15-.45.31-.61.55-.15.06-.15-.08-.18-.15-.63-1.21-1.36-2.36-2.2-3.44-1.32-1.72-2.86-3.2-4.66-4.42-.05-.03-.12-.05-.14-.16,2.61.33,5.06,1.13,7.34,2.42.06.15.19.21.34.21h0c.14.16.29.28.51.3h0c.06.13.15.21.31.21l.47.31c.06.09.11.19.26.2.11,0,.12.15.2.21.22.17.46.32.67.5q.24.21.12.53c-.11.15-.23.3-.34.44-.21.13-.35.32-.43.55-.05.06-.09.12-.14.18-.16.06-.25.17-.29.33Z"/>
    <path class="cls-4" d="m20.28,40.4s.06.06.09.09c-.02.09-.07.08-.14.05-.04,0-.09,0-.13-.01-.12-.06-.22-.25-.39-.08-.03.01-.06.02-.09,0-.1-.11-.2-.19-.36-.2-.06,0-.11.02-.15.05-.27-.02-.52-.12-.77-.2-.19-.15-.4-.23-.64-.18-.06-.01-.12-.03-.18-.04-.13-.18-.32-.22-.52-.23-.05,0-.11.02-.16-.02h-.05s-.08-.01-.11-.04c-.07-.15-.2-.11-.32-.12-.13-.11-.24-.26-.44-.18,0,0-.02,0-.03,0-.26-.12-.52-.23-.78-.35-.03-.01-.06-.01-.08-.03-.04-.14-.14-.16-.26-.14-.17-.04-.32-.14-.47-.22-.07-.11-.14-.21-.3-.16-.18-.12-.42-.12-.56-.31-.03,0-.07.03-.08,0-.17-.19-.47-.19-.61-.42-.07-.05-.14-.09-.21-.14-.22,0-.36-.13-.46-.31-.06-.04-.12-.08-.18-.12-.1-.04-.22-.06-.26-.18-.3-.22-.6-.43-.88-.67-.12-.03-.2-.1-.25-.21h0c-.13-.01-.23-.07-.26-.21-.04-.04-.08-.07-.12-.11-.14.01-.19-.08-.23-.2-.13-.12-.25-.24-.38-.36-.16-.04-.17-.07-.09-.17.17.13.34.26.5.4.11.09.19.08.28-.05.12-.17.25-.32.38-.49,0-.14.09-.2.21-.25.43-.51.91-.96,1.38-1.43.04-.11.09-.2.23-.2.2-.16.4-.33.6-.49.23,0,.13.22.21.32.11.29.26.55.43.81.14.17.34.3.34.56.02.09.07.15.13.21.24.12.3.35.39.57.27.47.64.86.96,1.28.13.18.33.3.42.51.01.15.14.17.25.22.05.17.22.24.31.38.14.29.35.51.65.65.1.09.2.17.3.26.07.14.13.29.32.27.02,0,.04.01.05.03.05.2.31.41.48.4.04.01.06.05.08.09.01.02.03.04.04.05.08.2.24.29.44.33.08.02.15.04.17.13.05.14.17.19.3.22.1.07.2.14.3.21.06.07.09.17.21.13.09.05.17.11.26.16.13-.05.16.06.21.13Z"/>
    <path class="cls-3" d="m42.06,46.43c.04.79-.7,1.44-1.38,1.47-.76.03-1.59-.65-1.55-1.33.04-.82.49-1.49,1.34-1.55.78-.06,1.56.49,1.59,1.41Z"/>
    <path class="cls-3" d="m27.17,46.68c-.06-.62.12-1.13.66-1.48.15-.2.37-.21.59-.22.11,0,.22,0,.34,0,.09,0,.18-.01.23.08.55.21.91.58,1.01,1.17.11.69-.25,1.23-.88,1.53-.75.36-1.63-.07-1.88-.81-.05-.08-.15-.15-.08-.27Z"/>
    <path class="cls-4" d="m25.06,1.83c-.05.08-.05.16-.05.25,0,3.13,0,6.26,0,9.39.03.02.02.03,0,.03-.12,0-.17-.05-.16-.17,0-.06,0-.11,0-.17,0-3.04,0-6.09,0-9.13,0-.04,0-.07,0-.11,0-.06-.03-.14.04-.18.08-.04.13.04.18.08Z"/>
    <path class="cls-4" d="m14.56,12.41c.13.09.15.22.11.36-.08.25-.1.54-.26.72-.21.26-.12.56-.24.82-.08.17-.01.42-.28.48-.05.01-.04.07-.02.11.08.16.03.31,0,.46-.03.13-.11.22-.25.22.07-.36.15-.72.26-1.07.04-.13-.06-.3.12-.39.06-.21.12-.42.18-.64.02-.32.07-.62.3-.87l.09-.21Z"/>
    <path class="cls-4" d="m19.16,1.4c-.08-.33.24-.38.39-.53.25-.23.55-.4.81-.67-.16-.04-.32.05-.38-.13.36-.09.72-.14,1.1-.15-.67.46-1.29.96-1.92,1.48Z"/>
    <path class="cls-4" d="m22.56,38.95c0-2.91,0-5.81,0-8.72,0-.33,0-.66,0-.99,0-.16-.05-.25-.22-.24.23-.06.26-.03.26.23,0,2.34,0,4.67,0,7.01,0,.8,0,1.6,0,2.41,0,.1.01.2-.04.29Z"/>
    <path class="cls-4" d="m22.56,11.51c0-2.98,0-5.95,0-8.93,0-.29,0-.59,0-.88.07.06.04.15.04.22,0,3.1,0,6.19,0,9.29,0,.1.01.2-.04.29Z"/>
    <path class="cls-4" d="m36.57,4.79c.06-.28-.1-.44-.31-.58-.24-.16-.5-.29-.66-.55-.02-.03-.06-.05-.09-.05-.16-.02-.19-.12-.18-.26.04.01.08.03.12.04.11.04.22.07.27.2.2.15.4.29.6.44.17.08.33.18.43.35.02.01.03.03.05.04.12.03.22.09.26.22l.05.04c.12.03.22.09.26.22,0,.02.07.1-.03.07-.12-.05-.24-.12-.34-.22-.17-.17-.3-.14-.41.05Z"/>
    <path class="cls-4" d="m18.86,4.89c.12.23-.08.33-.18.47-.24.32-.48.64-.73.96-.09.11-.24.15-.26.33-.02.12-.16.08-.26.09.43-.65.9-1.27,1.43-1.84Z"/>
    <path class="cls-4" d="m35.89,9.01c.01.21.01.41-.29.4-.05,0-.09.05-.09.1-.01.1-.07.15-.17.17-.02,0-.06.01-.06.02-.03.3-.42.27-.51.53-.04.1-.21.03-.26.15-.1-.11-.07-.2.04-.28.15-.11.29-.22.43-.34.03-.13.12-.2.25-.21.12-.19.33-.28.48-.43.05-.05.05-.17.17-.12Z"/>
    <path class="cls-4" d="m13.58,15.65c.16.16.16.33.09.55-.07.21-.07.46-.1.69-.02.18-.1.3-.29.34-.08-.08.04-.14.03-.21.09-.46.19-.91.28-1.37Z"/>
    <path class="cls-4" d="m13.26,17.36c.12.17.15.36.11.56-.04.18-.14.35-.14.53,0,.22-.1.45,0,.67-.04,0-.09,0-.13.01-.17,0-.13-.08-.08-.18,0-.01,0-.03,0-.04.03-.11-.1-.25.04-.35,0-.01,0-.02,0-.04-.01-.11-.07-.22.04-.31-.06-.21.1-.39.09-.6-.04-.11-.08-.21.08-.26Z"/>
    <path class="cls-4" d="m16.58,12.67c-.04.13-.12.13-.23.1-.31-.08-.58-.25-.89-.34-.15-.04-.17-.17-.17-.31.43.18.86.37,1.29.55Z"/>
    <path class="cls-4" d="m19.16.24c-.13.25-.38.29-.62.33-.24.04-.47.09-.7.17-.11.04-.19-.01-.28-.07.52-.19,1.05-.33,1.6-.43Z"/>
    <path class="cls-4" d="m37.73,7.04c.05.24-.05.46-.3.63-.03.02-.1.05-.1.07-.03.27-.23.25-.42.24.27-.32.48-.68.82-.95Z"/>
    <path class="cls-4" d="m44.23,20.28c-.02-.25.05-.5-.11-.73-.04-.06-.03-.16.04-.21.06-.04.12-.04.18,0,.07.06.07.14.03.22-.2.39-.07.8-.1,1.2,0,.08.07.14.1.21.03.08.03.16-.04.22-.05.05-.12.05-.18,0-.07-.06-.09-.15-.04-.21.17-.22.08-.47.11-.7Z"/>
    <path class="cls-4" d="m22.55,19.12c0-1.77,0-3.55,0-5.32.07.08.05.18.05.27,0,1.6,0,3.19,0,4.79,0,.09.02.19-.05.27Z"/>
    <path class="cls-4" d="m38.8,6.31c-.19.02-.36.09-.43.26-.1.21-.26.23-.45.21.13-.17.26-.34.38-.51.04-.1.06-.22.18-.26.11.1.21.2.32.3Z"/>
    <path class="cls-4" d="m39.72,7.42c-.25,0-.5-.19-.56-.45-.02-.07-.03-.13-.1-.15-.22-.06-.23-.2-.16-.38.3.3.58.62.83.98Z"/>
    <path class="cls-4" d="m22.56,26.52c0-1.56,0-3.12,0-4.69,0-.14,0-.29,0-.43.06.08.05.18.05.27,0,1.52,0,3.05,0,4.57,0,.09.01.19-.04.27Z"/>
    <path class="cls-4" d="m16.29,4.42c-.09-.28.15-.41.28-.59.12-.18.35-.25.42-.49.03-.12.17-.08.26-.09-.29.38-.63.72-.89,1.12-.02.03-.03.05-.07.05Z"/>
    <path class="cls-4" d="m13.82,28.41c.17-.02.24.1.28.23.04.11.06.18.19.07.1-.09.23-.11.34,0-.03.03-.06.05-.09.08-.05.08-.1.16-.22.13q-.32.12-.42-.2c-.03-.1-.06-.2-.09-.3Z"/>
    <path class="cls-4" d="m22.04,2.04c.05.17-.01.23-.17.32-.17.1-.4.14-.5.36-.09.19-.3.13-.45.19.35-.33.73-.6,1.13-.87Z"/>
    <path class="cls-4" d="m11.89,10.05c-.27.03-.44-.11-.57-.34-.06-.12-.18-.22-.3-.25-.19-.05-.21-.16-.21-.31.1.01.13.13.22.16.23.08.41.21.51.43.08.14.3.12.35.3Z"/>
    <path class="cls-4" d="m13.02,24.67c.14,0,.2.07.21.21.02.16.03.31.09.46.06.14-.03.21-.14.27-.08-.31-.14-.62-.17-.94Z"/>
    <path class="cls-4" d="m9.44,34.99c-.02.08.07.11.09.17-.06.04-.13.07-.18.03-.14-.13-.28-.28-.4-.43-.04-.05,0-.12.07-.16.07-.04.13,0,.17.05.09.11.17.23.25.34Z"/>
    <path class="cls-4" d="m10.64,22.87c-.07-.32-.03-.65-.04-.98,0-.16,0-.33,0-.49.15.05.19.16.17.3-.02.09-.01.18.02.27.02.06.02.12-.01.17-.17.22-.12.48-.13.72Z"/>
    <path class="cls-4" d="m34.51,22.78c0-.25,0-.48-.11-.73-.08-.2-.06-.45.1-.65.08.15.04.32.04.48,0,.29,0,.59,0,.88,0,.02-.02.03-.04.02Z"/>
    <path class="cls-4" d="m16.66,7.94c.16.29-.06.68-.39.69.11-.24.24-.47.39-.69Z"/>
    <path class="cls-4" d="m14.47,12.63c-.09.29-.17.59-.3.87-.17-.29.03-.53.12-.77.02-.07.11-.09.18-.09Z"/>
    <path class="cls-4" d="m17.1,38c-.35-.01-.63-.29-.65-.65.23.2.44.42.65.65Z"/>
    <path class="cls-4" d="m13.19,25.71c.14.09.24.19.19.38-.02.07.04.16.07.24.04.12.02.21-.13.23-.05-.29-.09-.57-.14-.86Z"/>
    <path class="cls-4" d="m16.92.87c-.02.16-.07.28-.27.25-.06,0-.1.04-.15.07-.11.07-.2.07-.26-.06.22-.12.45-.19.69-.26Z"/>
    <path class="cls-4" d="m15.67,9.7c.07.16.23.19.37.26.08.04.16.08.24.13-.12.09-.23.1-.34-.01-.08-.08-.19-.08-.28-.14-.11-.07-.18-.16,0-.23Z"/>
    <path class="cls-4" d="m10.34,8.72c-.13-.13-.26-.26-.39-.39.1-.15.2-.06.28,0,.14.1.21.25.19.43-.04.02-.06-.02-.08-.04Z"/>
    <path class="cls-4" d="m13.62,27.68c.06-.03.12-.03.17.03.11.13.11.52,0,.66,0-.03-.01-.05-.02-.08-.16-.17-.22-.37-.16-.6Z"/>
    <path class="cls-4" d="m17.7,39.93c.07-.09.17-.16.27-.09.12.1.4-.02.37.27-.22-.05-.43-.1-.64-.18Z"/>
    <path class="cls-4" d="m14.86,1.7c-.19.12-.39.22-.6.29.05-.26.41-.44.6-.29Z"/>
    <path class="cls-4" d="m36.19,15.98c.08.25.12.51.16.77-.17-.16-.23-.36-.27-.58-.02-.1,0-.17.11-.19Z"/>
    <path class="cls-4" d="m43.93,16.54c-.05-.26-.11-.51-.16-.77.14.06.22.15.2.31,0,.06.02.13.05.18.06.12.03.21-.08.27Z"/>
    <path class="cls-4" d="m16.84,39.63c.16-.05.31-.1.47,0,.11.06.21.12.22.26-.23-.08-.46-.17-.69-.25Z"/>
    <path class="cls-4" d="m33.52,8.06c0-.15,0-.29.2-.3.03,0,.07-.04.08-.06.04-.19.18-.19.33-.18-.17.21-.39.38-.61.55Z"/>
    <path class="cls-4" d="m35.8,5.78c0-.34.16-.53.43-.55-.03.06-.06.11-.09.17-.03.12-.09.22-.21.26-.04.04-.09.08-.13.12Z"/>
    <path class="cls-4" d="m12.75,37.66c.24.12.47.26.69.41-.07.1-.16.1-.22,0-.06-.1-.15-.15-.26-.17-.15-.02-.21-.11-.21-.25Z"/>
    <path class="cls-4" d="m16.23,8.71c.16.29.06.47-.29.48.03-.06.05-.11.08-.17-.04-.12.06-.16.13-.22.03-.03.05-.06.08-.09Z"/>
    <path class="cls-4" d="m32.03,11.73c-.19.13-.39.24-.61.3.07-.26.33-.39.61-.3Z"/>
    <path class="cls-4" d="m12.88,21.4c0,.47,0,.95,0,1.42-.12-.04-.21-.12-.13-.23.12-.18.08-.38.1-.58.01-.2-.04-.41.04-.61Z"/>
    <path class="cls-4" d="m12.07,37.22c.16.09.32.19.46.31-.07.13-.18.08-.25.02-.09-.09-.31-.1-.22-.32Z"/>
    <path class="cls-4" d="m28.28,10.86c.11-.22.41-.32.73-.25-.07.03-.14.07-.21.1-.08.12-.19.19-.34.12-.06.01-.11.02-.17.03Z"/>
    <path class="cls-4" d="m40.06,7.85c-.35,0-.41-.07-.3-.39.1.13.27.21.3.39Z"/>
    <path class="cls-4" d="m13.62,27.68c.05.2.1.4.16.6-.13-.01-.17-.08-.2-.22-.03-.16-.1-.31,0-.48.02-.02.03-.01.04.01,0,.03,0,.05.01.08Z"/>
    <path class="cls-4" d="m14.7,11.98c.16.02.17.12.15.25-.03.17-.17.13-.29.14.04-.13.09-.26.13-.39Z"/>
    <path class="cls-4" d="m11.55,9.75c-.17-.14-.34-.29-.51-.43.24-.05.55.21.51.43Z"/>
    <path class="cls-4" d="m40.62,8.62s0-.02,0-.04c.02,0,.04-.02.06-.02.17.04.38.4.32.58-.02.03-.03.03-.04,0-.02-.03-.04-.05-.05-.08-.16-.1-.24-.26-.29-.44Z"/>
    <path class="cls-4" d="m18.34,39.03s-.06-.03-.1-.04c-.23-.07-.39-.23-.51-.43h0s-.11,0-.08-.09c.25-.03.35.22.53.32.08.04.21.09.16.24Z"/>
    <path class="cls-4" d="m14.51,34.96c-.15-.17-.27-.37-.39-.57.27.03.38.19.39.57Z"/>
    <path class="cls-4" d="m11.16,27.12c-.07-.21-.11-.42-.13-.64.11.11.2.23.23.39.02.11,0,.19-.1.25Z"/>
    <path class="cls-4" d="m13.26,17.36c-.03.09-.05.17-.08.26-.13-.09-.15-.32-.02-.47.04-.05.09-.09.14-.13,0,.07-.02.14-.03.21,0,.04,0,.09-.01.13Z"/>
    <path class="cls-4" d="m11.59,28.8c-.08-.18-.12-.37-.16-.56.12.01.2.07.19.21,0,.06.02.11.05.16.06.1.03.16-.08.19Z"/>
    <path class="cls-4" d="m40.96,9.14s.02,0,.04,0c.07.14.15.28.22.43-.32,0-.35-.06-.26-.44Z"/>
    <path class="cls-4" d="m13.99,34.18c-.14-.17-.24-.37-.34-.56.17.07.29.2.38.36.05.09.04.15-.04.2Z"/>
    <path class="cls-4" d="m16.29,4.42s.05-.03.07-.05c.04.26-.09.42-.35.47.06-.16.18-.29.28-.42Z"/>
    <path class="cls-4" d="m19.12,40.31c.07-.16.23-.18.4-.06.05.04.08.1.12.15-.13.11-.23.04-.34-.03-.06-.02-.11-.04-.17-.06Z"/>
    <path class="cls-4" d="m18.82,39.42c-.25.06-.46-.1-.44-.33.15.11.29.22.44.33Z"/>
    <path class="cls-4" d="m15.16,28.46c0-.14.04-.24.18-.28.1-.03.17,0,.2.1-.1.11-.25.14-.39.18Z"/>
    <path class="cls-4" d="m34.55,2.82c-.28.06-.42-.03-.51-.3.19.07.35.19.51.3Z"/>
    <path class="cls-4" d="m34.51,10.47c.1.16.17.34.21.52-.24-.08-.33-.3-.21-.52Z"/>
    <path class="cls-4" d="m9.9,8.28c-.33,0-.37-.05-.38-.39.14.12.27.24.38.39Z"/>
    <path class="cls-4" d="m13.61,27.6s-.03,0-.04-.01c-.04-.17-.08-.34-.13-.51.21.02.23.18.22.34,0,.06-.04.12-.06.18Z"/>
    <path class="cls-4" d="m34.34,7.37c-.07-.32-.01-.38.35-.38-.12.13-.23.25-.35.38Z"/>
    <path class="cls-4" d="m40.56,8.54c-.12,0-.25.02-.31-.12-.04-.08-.03-.17.07-.22.11.1.17.22.25.34Z"/>
    <path class="cls-4" d="m19.29,40.37c.12-.02.23.02.34.03.03,0,.06,0,.09,0,.04-.02.05,0,.04.04-.15.18-.34.15-.47-.08Z"/>
    <path class="cls-4" d="m17.32,3.18c-.08-.27-.01-.35.33-.36-.09.14-.21.25-.33.36Z"/>
    <path class="cls-4" d="m19.15,4.58c.06.09.07.19,0,.27-.08.11-.19.06-.29.04.08-.12.18-.22.29-.31Z"/>
    <path class="cls-4" d="m35.8,14.34c.09.23.14.46.17.7-.23-.19-.24-.43-.17-.7Z"/>
    <path class="cls-4" d="m18.3,2.17c0-.34.05-.38.36-.33-.11.12-.22.24-.36.33Z"/>
    <path class="cls-4" d="m15.68,28.23c0-.11.02-.22.14-.26.1-.04.16,0,.2.1-.09.1-.22.13-.34.16Z"/>
    <path class="cls-4" d="m16.32,39.5c-.18.1-.37.01-.43-.2,0,0,0-.02,0-.02.25-.03.39.05.43.21Z"/>
    <path class="cls-4" d="m17.99,13.09c-.2-.06-.4-.11-.6-.17.18-.11.48-.02.6.17Z"/>
    <path class="cls-4" d="m28.62,45.13h-.35c-.1-.04-.2,0-.31.02-.07,0-.15.03-.21-.05-.2-.03-.41.04-.6-.05.39,0,.78,0,1.17,0,.09.06.22-.05.3.07Z"/>
    <path class="cls-4" d="m20.45,3.29c.06.29-.04.38-.31.29.1-.1.21-.2.31-.29Z"/>
    <path class="cls-4" d="m34.94,6.74c0-.32.02-.34.33-.35-.09.14-.21.24-.33.35Z"/>
    <path class="cls-4" d="m17.04,7.33c.07.07.11.15.06.24-.06.11-.16.09-.26.07.05-.11.12-.22.2-.31Z"/>
    <path class="cls-4" d="m27.76,45.1c.17,0,.35-.05.51.03-.2.01-.37.11-.55.17.01-.07.03-.13.04-.2Z"/>
    <path class="cls-4" d="m10.34,8.72s.06.03.08.04c.09.1.18.2.26.29-.31,0-.34-.03-.35-.34Z"/>
    <path class="cls-4" d="m34.51,22.78s.02-.01.04-.02c0,.1.01.2.08.3.09.13.07.24-.11.27-.07-.07-.07-.14,0-.21,0-.11,0-.22,0-.34Z"/>
    <path class="cls-4" d="m16.32,39.5c-.11-.14-.29-.15-.43-.21.2-.12.39-.05.48.18,0,0,0,.02,0,.02-.01,0-.03,0-.04.01Z"/>
    <path class="cls-4" d="m20.84,2.96c0,.31-.03.33-.34.29.11-.1.23-.2.34-.29Z"/>
    <path class="cls-4" d="m34.43,23.94c-.03-.13.05-.25.04-.38,0-.02.02-.03.04-.02.02.04.04.08.06.11.11.17.08.23-.13.28Z"/>
    <path class="cls-4" d="m18.81,1.69c0-.31.02-.33.34-.29-.11.1-.21.22-.34.29Z"/>
    <path class="cls-4" d="m19.76,40.45s-.03-.03-.04-.04c.16-.19.22-.18.39.12-.11-.03-.23-.06-.34-.08Z"/>
    <path class="cls-4" d="m26.9,40.47c.14.14.28.28.42.42-.26-.02-.4-.17-.42-.42Z"/>
    <path class="cls-4" d="m19.29,39.76c-.24.08-.29.04-.3-.22.1.07.26.07.3.22Z"/>
    <path class="cls-4" d="m34.98,11.68c.08.15.13.31.17.47-.23-.07-.23-.09-.17-.47Z"/>
    <path class="cls-4" d="m19.63,13.44c-.16,0-.32-.03-.47-.08.16-.12.34-.09.47.08Z"/>
    <path class="cls-4" d="m10.69,23.64c-.06-.16-.04-.32-.04-.48.18.03.2.13.12.27-.04.07-.08.13-.08.21Z"/>
    <path class="cls-4" d="m15.32,5.83c.07-.14.16-.27.27-.39.04.26-.03.36-.27.39Z"/>
    <path class="cls-4" d="m9.34,7.68c-.25.03-.28,0-.3-.34,0,0,0,0,0,0,.08-.03.05.06.09.08.03.06.07.1.12.13.04.04.13.04.08.13Z"/>
    <path class="cls-4" d="m28.45,10.83c.11-.04.23-.08.34-.12,0,.12-.05.19-.17.22-.09.02-.15-.01-.17-.1Z"/>
    <path class="cls-4" d="m36.78,22.82c0,.19.03.38-.04.56,0-.09,0-.18-.05-.26-.11-.14-.07-.24.09-.3Z"/>
    <path class="cls-4" d="m17.66,38.47s.05.06.08.09c-.33,0-.33-.01-.34-.31.13.02.15.18.26.22Z"/>
    <path class="cls-4" d="m37.68,5.07c.08.01.12.06.12.14,0,.05-.04.08-.08.07-.07,0-.15-.03-.14-.12,0-.06.04-.09.1-.09Z"/>
    <path class="cls-4" d="m36.84,21.4c0,.33,0,.65,0,.98,0,.09,0,.18-.04.27,0-.35,0-.71,0-1.06,0-.06,0-.13.05-.18Z"/>
    <path class="cls-4" d="m34.04,2.52c-.27.1-.32.07-.34-.21.12.05.24.12.34.21Z"/>
    <path class="cls-4" d="m36.74,4.37c-.14-.12-.29-.23-.43-.35.23.02.43.18.43.35Z"/>
    <path class="cls-4" d="m14,38.39c.17-.13.26-.09.3.16-.11-.04-.22-.07-.3-.16Z"/>
    <path class="cls-4" d="m16.1,1.18c0,.08,0,.17-.1.2-.09.03-.16,0-.2-.1.1-.05.19-.09.3-.1Z"/>
    <path class="cls-4" d="m13.35,26.6c.1.02.19.05.21.17.01.09-.03.15-.12.17-.15-.06-.13-.18-.09-.3,0-.01,0-.03,0-.04Z"/>
    <path class="cls-4" d="m12.97,23.89c.22.08.22.16.01.38,0-.04-.01-.08-.02-.12-.08-.09-.1-.17,0-.26Z"/>
    <path class="cls-4" d="m35.37,6.29c0-.31.01-.32.29-.33-.1.11-.19.22-.29.33Z"/>
    <path class="cls-4" d="m13.01,18.95c0,.07,0,.15.08.18-.02.07-.06.12-.14.1-.06-.02-.1-.06-.1-.12,0-.09.07-.13.15-.15Z"/>
    <path class="cls-4" d="m15.85,32.93c.23.04.27.1.25.39-.08-.13-.17-.26-.25-.39Z"/>
    <path class="cls-4" d="m34.86,3.03c-.24.08-.28.05-.31-.21.11.06.22.11.31.21Z"/>
    <path class="cls-4" d="m15.2,31.81s.02,0,.03,0c.07.05.18.09.13.22.01.04.03.08.04.12-.24-.04-.27-.1-.2-.35Z"/>
    <path class="cls-4" d="m26.81,11.21c.11-.17.24-.2.43-.09-.14.06-.28.08-.43.09Z"/>
    <path class="cls-4" d="m34.3,18.09c-.04-.11-.08-.22-.08-.34.24.08.24.11.08.34Z"/>
    <path class="cls-4" d="m15.46,32.28c.1.06.14.15.16.26-.24-.04-.28-.1-.16-.26Z"/>
    <path class="cls-4" d="m44.18,18.44c-.06-.13-.04-.26-.04-.39.18.08.2.12.1.28-.02.04-.04.08-.06.11Z"/>
    <path class="cls-4" d="m12.97,23.89c0,.09,0,.17,0,.26-.32-.1-.08-.26-.04-.39.01.04.03.09.04.13Z"/>
    <path class="cls-4" d="m25,11.51s0-.02,0-.03c.11,0,.23-.12.34,0-.09.23-.22.11-.35.04Z"/>
    <path class="cls-4" d="m42.55,12.03c-.07-.09-.1-.2-.14-.3.23.03.27.11.14.3Z"/>
    <path class="cls-4" d="m35.07,43.29c-.36.07-.72.04-1.08.04.36-.07.72-.04,1.08-.04Z"/>
    <path class="cls-4" d="m28.18,43.45c-.2,0-.4,0-.6,0,.06-.13.14-.17.27-.08.1.07.22.03.34.04.01.01.02.02,0,.03,0,0-.01,0-.02,0Z"/>
    <path class="cls-4" d="m41.82,10.53c-.07-.12-.14-.23-.2-.35.25.04.27.08.2.35Z"/>
    <path class="cls-4" d="m16.32,33.65c.08.09.17.18.21.31-.24-.04-.27-.08-.21-.31Z"/>
    <path class="cls-4" d="m44.14,22.48c0-.13-.01-.27.04-.39.05.14.25.29-.04.39Z"/>
    <path class="cls-4" d="m21.86,29.04c-.11.02-.23,0-.34.05.08-.24.15-.25.34-.05Z"/>
    <path class="cls-4" d="m12.06,30.22c-.06-.11-.1-.22-.13-.34.23.07.24.1.13.34Z"/>
    <path class="cls-4" d="m12.61,11.16c.04-.1.06-.21.13-.3.13.18.11.24-.13.3Z"/>
    <path class="cls-4" d="m13.99,14.13c-.04.13-.08.26-.12.39-.01-.15-.2-.35.12-.39Z"/>
    <path class="cls-4" d="m36.74,23.55c0,.13.02.27-.04.39-.03-.13-.26-.29.04-.39Z"/>
    <path class="cls-4" d="m11.64,14.18c.03-.13.06-.27.12-.39,0,.14.2.34-.12.39Z"/>
    <path class="cls-4" d="m35.63,13.7c.06.12.09.26.12.39-.32-.05-.13-.25-.12-.39Z"/>
    <path class="cls-4" d="m22.47,13.79c-.16,0-.32.02-.48-.04.08,0,.15,0,.22-.05.13-.1.21-.03.26.09Z"/>
    <path class="cls-4" d="m35.29,12.58c.06.11.1.23.12.35-.22-.05-.23-.07-.12-.35Z"/>
    <path class="cls-4" d="m11.94,13.14c.02-.12.06-.24.12-.35.11.28.1.3-.12.35Z"/>
    <path class="cls-4" d="m11.81,13.57c.03-.13.06-.27.12-.39.01.15.19.34-.12.39Z"/>
    <path class="cls-4" d="m35.46,13.13c.06.11.09.23.12.35-.28-.04-.18-.2-.12-.35Z"/>
    <path class="cls-4" d="m38.9,43.21c-.33.06-.66.04-1,.03-.01-.01-.01-.02,0-.03,0,0,.01,0,.02,0,.33,0,.66,0,.99,0Z"/>
    <path class="cls-4" d="m11.76,29.32c-.06-.11-.1-.23-.12-.35.27.04.18.2.12.35Z"/>
    <path class="cls-4" d="m36.01,43.28s0-.02.01-.03c.33,0,.66,0,.98,0-.33.07-.66.04-1,.03Z"/>
    <path class="cls-4" d="m10.25,35.82c.1.05.18.13.26.21-.23.05-.29,0-.26-.21Z"/>
    <path class="cls-4" d="m30.16,43.41s0-.02.01-.03c.33,0,.66,0,.98,0-.33.07-.66.04-1,.03Z"/>
    <path class="cls-4" d="m28.18,43.45s0-.02.01-.03c.33,0,.66,0,.98,0-.33.07-.66.04-1,.03Z"/>
    <path class="cls-4" d="m33.09,44.96c.33-.05.66-.07.99,0-.33,0-.66,0-.99,0Z"/>
    <path class="cls-4" d="m17.27,30c-.09.06-.19.1-.3.12.07-.22.13-.24.3-.12Z"/>
    <path class="cls-4" d="m18.26,10.83c.13.04.26.08.39.12-.05.01-.1.01-.15.03-.16.07-.23,0-.25-.15Z"/>
    <path class="cls-4" d="m29.18,45.05c.33-.07.66-.04,1-.03.01.01.01.02,0,.03,0,0-.01,0-.02,0-.33,0-.66,0-.98,0Z"/>
    <path class="cls-4" d="m36.05,15.34c.03.11.05.23.08.34-.23-.14-.24-.18-.08-.34Z"/>
    <path class="cls-4" d="m30.16,45.05s0-.02.01-.03c.18,0,.37,0,.55,0-.02.1-.08.14-.17.1-.13-.07-.26-.06-.4-.06Z"/>
    <path class="cls-4" d="m12.49,10.47c-.09-.07-.18-.13-.26-.2.24-.06.29-.03.26.2Z"/>
    <path class="cls-4" d="m35.23,9.57c-.07.09-.15.16-.25.21-.03-.21.02-.26.25-.21Z"/>
    <path class="cls-4" d="m13.35,26.65c.03.1.06.2.09.3,0,.01,0,.03-.01.04-.23-.14-.24-.18-.08-.34Z"/>
    <path class="cls-4" d="m17.66,35.33c.08.07.15.13.2.23-.21.03-.26-.02-.2-.23Z"/>
    <path class="cls-4" d="m10.81,34.6c-.05.1-.13.18-.21.25-.05-.23-.01-.27.21-.25Z"/>
    <path class="cls-4" d="m14.77,38.77c.19-.12.25-.1.3.13-.12.07-.19.01-.26-.08l-.04-.04Z"/>
    <path class="cls-4" d="m9.91,35.51c.1.04.16.12.23.2-.2.07-.26.02-.23-.2Z"/>
    <path class="cls-4" d="m11.72,3.56c-.09.08-.18.17-.31.21.02-.19.12-.27.31-.21Z"/>
    <path class="cls-4" d="m34.82,11.24c.06.09.1.2.12.31-.23-.07-.24-.1-.12-.31Z"/>
    <path class="cls-4" d="m32.31,45.01c.14-.08.29-.03.43-.03-.07.12-.14.19-.28.08-.04-.03-.1-.03-.16-.04Z"/>
    <path class="cls-4" d="m13.05,18.56c0,.12.01.24-.04.35-.07-.13-.23-.26.04-.35Z"/>
    <path class="cls-4" d="m12.42,32.98c-.07.08-.13.15-.23.2-.03-.21.02-.26.23-.2Z"/>
    <path class="cls-4" d="m37.05,44.88c.32-.07.63-.04.95-.03.01.01.01.02,0,.03,0,0-.01,0-.02,0h-.94Z"/>
    <path class="cls-4" d="m9.31,32.92c.07-.07.14-.15.21-.22.06.21.01.26-.21.22Z"/>
    <path class="cls-4" d="m13.22,32.81c-.07-.11-.14-.21-.21-.32.11-.1.17-.03.2.07.02.08,0,.17.01.25Z"/>
    <path class="cls-4" d="m19.2,36.85c.1.05.18.12.25.21-.23.05-.27.01-.25-.21Z"/>
    <path class="cls-4" d="m18.85,36.55c.1.04.16.12.23.2-.2.06-.26.02-.23-.2Z"/>
    <path class="cls-4" d="m11.3,15.59c.03-.1.05-.2.08-.3.17.12.16.16-.08.3Z"/>
    <path class="cls-4" d="m10.99,31.25c.09-.07.17-.14.26-.22.01.24-.03.27-.26.22Z"/>
    <path class="cls-4" d="m27.59,13.36c-.11.05-.22.06-.34.08.04-.04.08-.09.13-.13.09-.07.17-.06.21.06Z"/>
    <path class="cls-4" d="m10.93,17.57c.02-.1,0-.21.05-.3.17.17.16.21-.05.3Z"/>
    <path class="cls-4" d="m44.1,17.62c-.05-.1-.03-.2-.05-.3.21.09.22.13.05.3Z"/>
    <path class="cls-4" d="m10.94,25.92c-.05-.09-.04-.2-.05-.3.21.09.22.13.05.3Z"/>
    <path class="cls-4" d="m13.1,18.22c0,.1,0,.21-.04.31-.17-.17-.16-.2.04-.31Z"/>
    <path class="cls-4" d="m30.04,10.19s.03-.01.04-.02c.06-.1.14-.13.25-.09-.05.23-.12.26-.29.11Z"/>
    <path class="cls-4" d="m14.82,38.82c.09.03.17.06.26.08.01.02.03.03.04.05-.16.09-.28.09-.3-.13Z"/>
    <path class="cls-4" d="m21.61,38.6c.1,0,.18.07.26.13-.16.11-.2.09-.26-.13Z"/>
    <path class="cls-4" d="m36.53,18c.05.1.04.2.04.31-.2-.11-.21-.14-.04-.31Z"/>
    <path class="cls-4" d="m20.23,40.54s.09-.03.14-.05c.05.01.11.03.19.05-.13.09-.23.2-.32,0Z"/>
    <path class="cls-4" d="m21.82,13.74c-.13,0-.27.02-.39-.04.04-.01.09-.02.12-.04.13-.1.21-.05.28.08Z"/>
    <path class="cls-4" d="m16.36,39.48s0-.02,0-.02c.13,0,.32-.19.34.12-.1.06-.16.02-.21-.07-.04-.01-.09-.02-.13-.03Z"/>
    <path class="cls-4" d="m27.89,10.99c.06-.1.16-.08.26-.08-.06.12-.11.24-.26.08Z"/>
    <path class="cls-4" d="m34.51,23.54s-.02.01-.04.02c0-.09-.02-.17-.06-.25-.05-.1-.02-.17.09-.19,0,.07,0,.14,0,.21,0,.07,0,.14,0,.21Z"/>
    <path class="cls-4" d="m15.69,5.27c.07-.09.13-.18.2-.26.06.18,0,.28-.2.26Z"/>
    <path class="cls-4" d="m25.7,11.42c.11-.06.23-.04.34-.05-.08.22-.21.12-.34.05Z"/>
    <path class="cls-4" d="m32.92,12.54c-.04-.1-.08-.2-.12-.3.26.01.17.17.12.3Z"/>
    <path class="cls-4" d="m9.34,7.68s-.05-.09-.08-.13c.2-.02.26.08.22.26-.05-.04-.09-.09-.14-.13Z"/>
    <path class="cls-4" d="m25.36,13.71c-.11.05-.23.04-.35.04.09-.23.23-.1.35-.04Z"/>
    <path class="cls-4" d="m33.35,13.87c-.03-.09-.06-.17-.08-.26.21.07.22.12.08.26Z"/>
    <path class="cls-4" d="m43.75,15.68c-.03-.1-.05-.2-.08-.3.1.08.26.15.08.3Z"/>
    <path class="cls-3" d="m28.62,45.13c-.1-.02-.2-.05-.3-.07.17,0,.34,0,.51,0,0,.04,0,.07,0,.11-.07-.01-.14-.02-.21-.04Z"/>
    <path class="cls-4" d="m16.14,36.97c-.14,0-.32.03-.25-.22.08.07.16.15.25.22Z"/>
    <path class="cls-4" d="m29.95,12.67c-.1.04-.2.08-.3.12.01-.26.18-.14.3-.12Z"/>
    <path class="cls-4" d="m28.96,13.01c-.09.03-.17.05-.26.08.09-.21.12-.22.26-.08Z"/>
    <path class="cls-4" d="m26.09,13.62c-.1.05-.2.04-.31.04.13-.18.13-.18.31-.04Z"/>
    <path class="cls-4" d="m43.85,24.28c.02-.09.03-.17.05-.26.16.11.15.16-.05.26Z"/>
    <path class="cls-4" d="m10.34,5.37c.08.07.15.15.21.25-.18,0-.26-.06-.21-.25Z"/>
    <path class="cls-4" d="m10.91,6.04c.08.07.16.13.2.23-.18.03-.27-.03-.2-.23Z"/>
    <path class="cls-4" d="m20.28,40.4c-.07-.04-.14-.09-.21-.13.2-.16.2,0,.21.13Z"/>
    <path class="cls-4" d="m44.14,18.01c-.05-.11-.04-.23-.04-.35.2.09.1.22.04.35Z"/>
    <path class="cls-4" d="m13.83,2.23c-.07.05-.13.1-.22.12.03-.2.06-.22.22-.12Z"/>
    <path class="cls-4" d="m26.47,39.76c.05.08.1.17.12.27-.21-.01-.17-.14-.12-.27Z"/>
    <path class="cls-4" d="m19.8,40.11c-.19.15-.2,0-.21-.13.08.02.15.08.21.13Z"/>
    <path class="cls-4" d="m31.03,9.7c.02-.2.17-.16.3-.17-.09.07-.18.15-.3.17Z"/>
    <path class="cls-4" d="m15.42,30.9c-.01.16-.06.24-.21.1.06-.06.13-.09.21-.1Z"/>
    <path class="cls-4" d="m29.66,10.36s.03-.01.04-.02c.05-.08.11-.14.22-.07-.05.21-.07.22-.25.09Z"/>
    <path class="cls-4" d="m16.15,8.8c-.02.08-.06.16-.13.22-.15-.19,0-.2.13-.22Z"/>
    <path class="cls-4" d="m32.78,12.16c-.04-.09-.08-.18-.11-.27.22,0,.19.13.11.27Z"/>
    <path class="cls-4" d="m10.98,4.11c-.06.09-.15.15-.25.2-.02-.19.1-.21.25-.2Z"/>
    <path class="cls-4" d="m27.08,46.73c.02.09.05.17.07.26-.12-.06-.25-.11-.07-.26Z"/>
    <path class="cls-4" d="m22.04,38.81c.15-.06.25-.02.29.14-.1-.05-.2-.09-.29-.14Z"/>
    <path class="cls-4" d="m33.48,14.3c-.03-.09-.05-.17-.08-.26.12.06.25.11.08.26Z"/>
    <path class="cls-4" d="m12.88,2.78c-.06.05-.13.11-.22.12.01-.15.06-.24.22-.12Z"/>
    <path class="cls-4" d="m35.71,3.59c-.09-.07-.18-.13-.27-.2.15,0,.27,0,.27.2Z"/>
    <path class="cls-4" d="m37.35,4.89c-.09-.07-.17-.15-.26-.22.16-.01.28.02.26.22Z"/>
    <path class="cls-4" d="m10.46,4.54c-.07.08-.15.16-.24.21-.02-.19.1-.22.24-.21Z"/>
    <path class="cls-4" d="m28.66,13.1c-.08.03-.17.05-.25.08.06-.12.11-.24.25-.08Z"/>
    <path class="cls-4" d="m27.8,41.19c.09.04.18.08.27.12-.13.05-.26.1-.27-.12Z"/>
    <path class="cls-4" d="m11.64,36.91c.1.05.19.11.26.18-.13,0-.27.02-.26-.18Z"/>
    <path class="cls-4" d="m31.07,12.2c-.08.06-.17.09-.26.12.01-.2.13-.17.26-.12Z"/>
    <path class="cls-4" d="m15.15,6.09c.05-.07.09-.14.14-.21.13.18.01.21-.14.21Z"/>
    <path class="cls-4" d="m37.99,44.88s0-.02.01-.03c.18,0,.37,0,.55,0-.1.13-.22.01-.33.03-.07.01-.15,0-.23,0Z"/>
    <path class="cls-4" d="m11.37,3.81c-.06.09-.16.15-.25.21,0-.18.1-.21.25-.21Z"/>
    <path class="cls-4" d="m16.49,39.52c.07.02.14.04.21.07.03.02.06.04.08.05-.11,0-.28.13-.3-.12Z"/>
    <path class="cls-4" d="m10.51,36.03c.08.07.17.14.25.21-.15.01-.26-.03-.25-.21Z"/>
    <path class="cls-4" d="m43.11,13.45c-.04-.1-.08-.2-.12-.3.22.03.12.19.12.3Z"/>
    <path class="cls-4" d="m14.34,28.92c.07-.04.15-.08.22-.13,0,.16-.07.21-.22.13Z"/>
    <path class="cls-4" d="m35.93,5.66c.07-.09.14-.17.21-.26,0,.15-.03.27-.21.26Z"/>
    <path class="cls-4" d="m35.07,44.92c.22-.05.43-.07.65,0-.22,0-.43,0-.65,0Z"/>
    <path class="cls-4" d="m12.38,11.81c.04-.1.08-.2.12-.3,0,.12.11.27-.12.3Z"/>
    <path class="cls-4" d="m31.15,45.01c.22-.05.43-.07.65,0-.22,0-.43,0-.65,0Z"/>
    <path class="cls-4" d="m35.89,9.01c-.06.04-.11.08-.17.12-.01-.16.07-.22.22-.21-.02.03-.03.06-.05.08Z"/>
    <path class="cls-4" d="m38.48,6.01c-.05.1-.1.19-.18.26,0-.13,0-.26.18-.26Z"/>
    <path class="cls-4" d="m29.91,10.27c-.07.02-.14.05-.22.07.02-.18.13-.18.26-.12-.01.02-.03.03-.04.05Z"/>
    <path class="cls-4" d="m30.33,10.08c-.08.03-.17.06-.25.09.02-.18.12-.18.26-.12,0,.01,0,.02,0,.03Z"/>
    <path class="cls-4" d="m37.05,4.63c-.09-.07-.17-.14-.26-.22.15,0,.27.03.26.22Z"/>
    <path class="cls-4" d="m40.62,8.62c.12.13.22.28.29.44-.24-.06-.29-.13-.29-.44Z"/>
    <path class="cls-4" d="m15.36,32.03c-.04-.07-.08-.15-.13-.22.14.02.3.02.13.22Z"/>
    <path class="cls-4" d="m17.74,38.56c.18.14.36.26.51.43-.12.05-.23.06-.3-.09-.02-.06-.08-.08-.13-.1-.1-.05-.1-.14-.08-.24Z"/>
  </g>
</svg>