<?xml version="1.0" encoding="UTF-8"?>
<svg id="_图层_1" data-name="图层 1" xmlns="http://www.w3.org/2000/svg" viewBox="0 0 48 48">
  <defs>
    <style>
      .cls-1 {
        fill: #acacac;
      }

      .cls-2 {
        fill: #585858;
      }
    </style>
  </defs>
  <path class="cls-1" d="m23.46,45.21c-7.23.23-12.56.18-14.24,0-.67-.07-1.55-.26-2.21-.91-.56-.56-.91-1.34-.91-2.21V4.81c0-1.72,1.4-3.12,3.12-3.12h26.1c.24.02,1.39.12,2.26,1.08.74.82.84,1.75.86,2.04-.08,7.17-.16,14.33-.25,21.5-.39-.26-2.76-1.81-5.71-1.07-2.3.58-4.54,2.43-5.06,5.16-.6,3.12,1.43,5.45,1.68,5.73.01.03.09.21.01.4-.08.18-.26.29-.47.29-2.45.36-4.49,1.91-5.28,4.06-.72,1.98-.13,3.77.08,4.32Zm9.03-35.4v-.04c0-.62-.51-1.13-1.13-1.13H13.26c-.62,0-1.13.51-1.13,1.13v.04c0,.62.51,1.13,1.13,1.13h18.09c.62,0,1.13-.51,1.13-1.13Zm0,5.02v-.04c0-.62-.51-1.13-1.13-1.13H13.26c-.62,0-1.13.51-1.13,1.13v.04c0,.62.51,1.13,1.13,1.13h18.09c.62,0,1.13-.51,1.13-1.13Zm-8.8,5.02v-.04c0-.62-.51-1.13-1.13-1.13h-9.29c-.62,0-1.13.51-1.13,1.13v.04c0,.62.51,1.13,1.13,1.13h9.29c.62,0,1.13-.51,1.13-1.13Z"/>
  <g>
    <path class="cls-2" d="m34.68,46.73c-2.7,0-5.41,0-8.11,0-.48,0-.91-.11-1.28-.42-.36-.31-.51-.72-.5-1.19,0-.99.35-1.88.86-2.7,1.02-1.64,2.53-2.64,4.32-3.25,1.81-.61,3.68-.74,5.57-.67,1.65.06,3.26.34,4.77,1.02,1.75.79,3.1,1.99,3.87,3.78.24.55.4,1.13.41,1.73.01,1.03-.65,1.69-1.68,1.7-2.16,0-4.32,0-6.48,0-.58,0-1.16,0-1.74,0Z"/>
    <path class="cls-2" d="m29.73,31.95c-.07-2.68,2.12-4.95,4.84-5.02,2.72-.07,5,2.09,5.07,4.81.07,2.76-2.09,5.04-4.89,5.09-2.8.05-4.98-2.18-5.02-4.88Z"/>
  </g>
</svg>