<svg width="24" height="24" viewBox="0 0 24 24" fill="none" xmlns="http://www.w3.org/2000/svg">
  <path
    d="M19.3171 2.5H4.67707C3.20707 2.5 1.99707 3.86125 1.99707 5.515V8.47375C1.99707 10.1388 3.20707 11.5 4.67707 11.5H19.3071C20.7871 11.5 21.9971 10.1388 21.9971 8.485V5.515C21.9971 3.86125 20.7871 2.5 19.3171 2.5ZM6.74707 8.125C6.74707 8.58625 6.40707 8.96875 5.99707 8.96875C5.58707 8.96875 5.24707 8.58625 5.24707 8.125V5.875C5.24707 5.41375 5.58707 5.03125 5.99707 5.03125C6.40707 5.03125 6.74707 5.41375 6.74707 5.875V8.125ZM10.7471 8.125C10.7471 8.58625 10.4071 8.96875 9.99707 8.96875C9.58707 8.96875 9.24707 8.58625 9.24707 8.125V5.875C9.24707 5.41375 9.58707 5.03125 9.99707 5.03125C10.4071 5.03125 10.7471 5.41375 10.7471 5.875V8.125ZM17.9971 7.84375H13.9971C13.5871 7.84375 13.2471 7.46125 13.2471 7C13.2471 6.53875 13.5871 6.15625 13.9971 6.15625H17.9971C18.4071 6.15625 18.7471 6.53875 18.7471 7C18.7471 7.46125 18.4071 7.84375 17.9971 7.84375Z"
    fill="#909090" />
  <path
    d="M19.3257 12.5H4.6784C3.20767 12.5 1.99707 13.8613 1.99707 15.515V18.4737C1.99707 20.1387 3.20767 21.5 4.6784 21.5H19.3157C20.7964 21.5 21.997 20.1387 21.997 18.485V15.5263C22.007 13.8613 20.7964 12.5 19.3257 12.5ZM6.74943 18.125C6.74943 18.5862 6.40926 18.9688 5.99906 18.9688C5.58886 18.9688 5.24869 18.5862 5.24869 18.125V15.875C5.24869 15.4137 5.58886 15.0312 5.99906 15.0312C6.40926 15.0312 6.74943 15.4137 6.74943 15.875V18.125ZM10.7514 18.125C10.7514 18.5862 10.4113 18.9688 10.001 18.9688C9.59084 18.9688 9.25068 18.5862 9.25068 18.125V15.875C9.25068 15.4137 9.59084 15.0312 10.001 15.0312C10.4113 15.0312 10.7514 15.4137 10.7514 15.875V18.125ZM18.005 17.8438H14.003C13.5928 17.8438 13.2527 17.4612 13.2527 17C13.2527 16.5388 13.5928 16.1562 14.003 16.1562H18.005C18.4152 16.1562 18.7554 16.5388 18.7554 17C18.7554 17.4612 18.4152 17.8438 18.005 17.8438Z"
    fill="#909090" />
</svg>
