<?xml version="1.0" encoding="UTF-8"?>
<svg id="_图层_1" data-name="图层 1" xmlns="http://www.w3.org/2000/svg" viewBox="0 0 48 48">
  <defs>
    <style>
      .cls-1 {
        fill: #9d9df9;
      }

      .cls-2 {
        fill: #1f2afa;
      }
    </style>
  </defs>
  <path class="cls-2" d="m21.57,43.57h-11.27c-.31-.05-1.13-.21-1.87-.9-.84-.79-1.02-1.74-1.07-2.04V5.5c0-1.62,1.32-2.94,2.94-2.94h24.6c.2,0,1.24.02,2.08.86.84.84.86,1.88.86,2.08v19.2c-.22.33-.63.94-1.17,1.67-2.72,3.74-4.33,4.89-6.14,8.03-.26.44-.66,1.18-1.1,2.14-1.57.59-2.38,1.41-2.82,2.02-.66.92-.73,1.68-1.65,3.31-.43.75-.85,1.33-1.15,1.72m8.43-33.4h0c0-.6-.49-1.09-1.09-1.09H14.13c-.6,0-1.09.49-1.09,1.09h0c0,.6.49,1.09,1.09,1.09h17.01c.6,0,1.09-.49,1.09-1.09Zm0,4.73h0c0-.6-.49-1.09-1.09-1.09H14.13c-.6,0-1.09.49-1.09,1.09h0c0,.6.49,1.09,1.09,1.09h17.01c.6,0,1.09-.49,1.09-1.09Zm-8.3,4.73h0c0-.6-.49-1.09-1.09-1.09h-8.71c-.6,0-1.09.49-1.09,1.09h0c0,.6.49,1.09,1.09,1.09h8.71c.6,0,1.09-.49,1.09-1.09Z"/>
  <g>
    <path class="cls-1" d="m44.04,23.2c-.32-.23-.64-.15-.93.09-.1.09-.21.17-.31.26-2.27,1.98-4.38,4.13-6.3,6.44-2.69,3.23-3.42,4.23-3.82,4.91-.6,1.02-1.02,1.92-1.3,2.56.43,0,1.57.08,2.69.87,1,.71,1.45,1.61,1.62,2.01.31-.31.72-.74,1.18-1.28.6-.69,1.86-2.18,3.09-4.42,1.23-2.23,1.79-4.16,2.85-6.68.53-1.26.96-2.57,1.44-3.86.13-.35.1-.68-.23-.9Z"/>
    <path class="cls-1" d="m32.51,41.06c-.29-.32-.88-1.04-1.92-1.2-.17-.03-.93-.12-1.69.3-.66.36-1.04.91-1.32,1.51-.14.29-.29.58-.42.88-.41.99-.84,1.93-1.78,2.58-.58.41-.44,1.2.21,1.52.24.12.51.2.77.23,1.72.2,3.39-.08,4.99-.72.73-.29,1.29-.83,1.55-1.57.22-.61.27-1.28.42-1.92,0,0,0,0,0,0-.19-.86-.59-1.37-.81-1.61Z"/>
  </g>
</svg>