<?xml version="1.0" encoding="UTF-8"?>
<svg id="_图层_1" data-name="图层 1" xmlns="http://www.w3.org/2000/svg" viewBox="0 0 48 48">
  <defs>
    <style>
      .cls-1 {
        fill: #acacac;
      }

      .cls-2 {
        fill: #585858;
      }
    </style>
  </defs>
  <path class="cls-1" d="m23.58,45.08c-4.61.1-9.23.19-13.84.29-.33-.05-1.21-.23-2-.97-.9-.84-1.09-1.86-1.14-2.18V4.7c0-1.74,1.41-3.14,3.14-3.14h26.29c.21,0,1.32.02,2.22.92s.92,2.01.92,2.22c.02,11.59.06,19.38.13,19.81,0,.04.07.33-.04.65-.06.17-.14.29-.18.35-.02.02-.03.04-.03.04-.09.11-2.31,3.62-7.89,12.45-.04.07-.24.43-.61.48-.2.03-.36-.05-.53-.12,0,0-.14-.06-.58-.41-.91-.7-1.81-1.4-2.72-2.1-.4-.2-1.2-.54-2.22-.44-1.62.15-3.2,1.36-3.62,3.12-.44,1.86.67,3.33.82,3.53,1.02,1.06,1.77,1.8,2.26,2.23.1.09.34.3.29.49-.06.24-.55.3-.68.31Zm9.59-35.31v-.15c0-.6-.49-1.09-1.09-1.09H13.75c-.6,0-1.09.49-1.09,1.09v.15c0,.6.49,1.09,1.09,1.09h18.33c.6,0,1.09-.49,1.09-1.09Zm0,5.05v-.15c0-.6-.49-1.09-1.09-1.09H13.75c-.6,0-1.09.49-1.09,1.09v.15c0,.6.49,1.09,1.09,1.09h18.33c.6,0,1.09-.49,1.09-1.09Zm-8.87,5.05v-.15c0-.6-.49-1.09-1.09-1.09h-9.46c-.6,0-1.09.49-1.09,1.09v.15c0,.6.49,1.09,1.09,1.09h9.46c.6,0,1.09-.49,1.09-1.09Z"/>
  <path class="cls-2" d="m32.64,48c-.58,0-1.15-.17-1.62-.52l-6.95-5.14c-1.18-.87-1.43-2.54-.56-3.72.87-1.18,2.54-1.43,3.72-.56l4.68,3.45,8.19-12.68c.8-1.23,2.44-1.59,3.68-.79,1.23.8,1.59,2.44.79,3.68l-9.73,15.06c-.4.62-1.03,1.04-1.76,1.17-.15.03-.29.04-.44.04Z"/>
</svg>